{"glyphs":{"0":{"ha":725,"x_min":49,"x_max":676,"o":"m 676 494 q 662 291 676 383 q 611 130 647 199 q 515 24 575 61 q 363 -14 454 -14 q 187 44 257 -14 q 83 216 117 103 q 49 494 49 329 q 81 780 49 667 q 183 949 114 893 q 363 1006 253 1006 q 538 948 468 1006 q 642 776 607 890 q 676 494 676 663 m 290 494 q 297 325 290 392 q 317 226 303 258 q 363 193 332 193 q 408 225 393 193 q 429 324 424 257 q 435 494 435 390 q 429 663 435 596 q 408 765 424 731 q 363 799 393 799 q 318 765 333 799 q 297 663 303 731 q 290 494 290 596 z "},"1":{"ha":725,"x_min":54,"x_max":581,"o":"m 581 0 l 336 0 l 336 513 q 337 571 336 539 q 338 636 338 603 q 340 699 339 669 q 315 666 328 682 q 288 635 303 650 l 194 542 l 54 688 l 363 992 l 581 992 l 581 0 z "},"2":{"ha":725,"x_min":29,"x_max":658,"o":"m 658 0 l 38 0 l 38 168 l 242 418 q 342 552 308 501 q 388 638 376 603 q 400 708 400 674 q 378 773 400 750 q 317 796 357 796 q 240 772 279 796 q 151 690 201 749 l 29 847 q 120 935 74 900 q 222 988 167 971 q 346 1006 276 1006 q 500 971 433 1006 q 605 874 567 936 q 643 729 643 813 q 624 605 643 664 q 560 481 604 546 q 438 331 515 417 l 336 215 l 336 208 l 658 208 l 658 0 z "},"3":{"ha":725,"x_min":43,"x_max":668,"o":"m 643 756 q 620 654 643 700 q 556 575 597 608 q 458 522 514 542 l 458 518 q 615 441 561 499 q 668 283 668 383 q 626 128 668 194 q 502 24 583 61 q 303 -14 421 -14 q 168 -2 226 -14 q 43 39 110 10 l 43 254 q 158 205 100 221 q 265 189 217 189 q 376 215 343 189 q 410 294 410 242 q 392 360 410 335 q 335 398 375 386 q 225 410 294 410 l 172 410 l 172 606 l 226 606 q 329 619 290 606 q 387 658 368 632 q 406 719 406 683 q 379 781 406 761 q 304 801 353 801 q 245 792 275 801 q 188 769 215 783 q 138 738 161 756 l 44 911 q 180 982 108 958 q 351 1006 251 1006 q 565 942 488 1006 q 643 756 643 879 z "},"4":{"ha":725,"x_min":22,"x_max":707,"o":"m 707 192 l 606 192 l 606 0 l 367 0 l 367 192 l 22 192 l 22 381 l 376 992 l 606 992 l 606 385 l 707 385 l 707 192 m 367 514 q 367 547 367 524 q 369 594 368 569 q 370 639 369 619 q 371 660 371 658 l 365 660 q 345 608 356 631 q 321 561 335 585 l 221 385 l 367 385 l 367 514 z "},"5":{"ha":725,"x_min":68,"x_max":664,"o":"m 406 650 q 538 610 479 650 q 630 499 596 571 q 664 331 664 428 q 625 142 664 219 q 506 26 586 65 q 306 -14 426 -14 q 176 -1 235 -14 q 68 39 117 13 l 68 251 q 176 208 117 226 q 288 189 236 189 q 359 204 331 189 q 403 249 388 219 q 418 322 418 279 q 383 417 418 383 q 278 451 349 451 q 221 444 250 451 q 163 428 192 438 l 82 476 l 113 992 l 610 992 l 610 782 l 318 782 l 308 638 q 358 647 335 644 q 406 650 381 650 z "},"6":{"ha":725,"x_min":46,"x_max":682,"o":"m 46 419 q 57 593 46 507 q 97 753 68 679 q 175 884 125 828 q 302 973 225 940 q 489 1006 379 1006 q 560 1003 522 1006 q 631 994 597 1000 l 631 794 q 572 804 603 801 q 503 807 540 807 q 399 791 442 807 q 328 743 356 775 q 285 662 300 711 q 268 546 271 613 l 275 546 q 315 608 292 583 q 370 647 338 633 q 443 661 403 661 q 572 623 518 661 q 653 513 625 585 q 682 339 682 440 q 645 151 682 231 q 540 28 608 71 q 374 -14 471 -14 q 239 15 300 -14 q 135 98 178 43 q 69 234 92 153 q 46 419 46 315 m 368 190 q 423 225 401 190 q 444 335 444 260 q 426 430 444 397 q 371 463 408 463 q 328 447 346 463 q 299 406 310 432 q 289 349 289 381 q 294 288 289 317 q 310 237 300 258 q 334 203 319 215 q 368 190 349 190 z "},"7":{"ha":725,"x_min":51,"x_max":676,"o":"m 125 0 l 425 782 l 51 782 l 51 992 l 676 992 l 676 833 l 381 0 l 125 0 z "},"8":{"ha":725,"x_min":43,"x_max":682,"o":"m 364 1006 q 521 978 456 1006 q 621 897 586 950 q 656 764 656 843 q 639 665 656 710 q 590 585 622 621 q 510 522 558 550 q 604 446 567 485 q 662 363 642 407 q 682 264 682 318 q 645 115 682 178 q 537 19 608 53 q 361 -14 465 -14 q 185 19 257 -14 q 78 113 114 51 q 43 261 43 175 q 60 365 43 319 q 114 449 78 411 q 201 518 150 486 q 130 589 160 551 q 85 670 100 626 q 69 765 69 714 q 106 897 69 843 q 208 978 142 950 q 364 1006 275 1006 m 271 267 q 294 198 271 224 q 360 172 317 172 q 431 195 408 172 q 454 261 454 218 q 445 308 454 286 q 419 351 436 331 q 375 393 401 372 l 360 404 q 310 363 329 383 q 281 318 290 342 q 271 267 271 294 m 364 819 q 316 799 335 819 q 297 746 297 779 q 305 706 297 725 q 326 670 313 688 q 361 638 340 653 q 399 672 385 656 q 422 705 414 688 q 429 746 429 722 q 410 799 429 779 q 364 819 390 819 z "},"9":{"ha":725,"x_min":42,"x_max":681,"o":"m 681 568 q 666 383 681 471 q 619 222 651 294 q 536 97 588 150 q 410 15 485 44 q 238 -14 336 -14 q 166 -11 203 -14 q 96 -3 129 -8 l 96 197 q 154 188 124 192 q 218 185 185 185 q 325 201 281 185 q 398 249 369 217 q 441 331 426 282 q 457 446 456 381 l 450 446 q 410 384 433 410 q 355 344 386 358 q 281 331 324 331 q 152 369 206 331 q 70 480 99 407 q 42 653 42 553 q 79 842 42 763 q 186 963 117 921 q 351 1006 256 1006 q 485 977 425 1006 q 590 893 546 949 q 657 756 633 838 q 681 568 681 675 m 357 801 q 301 767 322 801 q 281 657 281 733 q 299 561 281 594 q 354 528 318 528 q 401 547 383 528 q 427 593 418 567 q 436 643 436 619 q 433 689 436 663 q 421 742 429 715 q 397 785 413 768 q 357 801 381 801 z "},"\u0000":{"ha":0,"x_min":0,"x_max":0,"o":""},"\r":{"ha":279,"x_min":0,"x_max":0,"o":""}," ":{"ha":279,"x_min":0,"x_max":0,"o":""},"!":{"ha":385,"x_min":57,"x_max":328,"o":"m 294 350 l 92 350 l 57 992 l 328 992 l 294 350 m 60 113 q 95 210 60 178 q 193 243 131 243 q 288 210 253 243 q 322 113 322 178 q 286 16 322 49 q 193 -17 250 -17 q 97 16 133 -17 q 60 113 60 49 z "},"\"":{"ha":689,"x_min":63,"x_max":626,"o":"m 304 992 l 276 633 l 90 633 l 63 992 l 304 992 m 626 992 l 599 633 l 413 633 l 385 992 l 626 992 z "},"#":{"ha":806,"x_min":28,"x_max":786,"o":"m 631 561 l 610 428 l 749 428 l 749 265 l 586 265 l 544 0 l 375 0 l 418 265 l 322 265 l 282 0 l 114 0 l 156 265 l 28 265 l 28 428 l 181 428 l 201 561 l 65 561 l 65 728 l 228 728 l 269 992 l 436 992 l 394 728 l 489 728 l 529 992 l 697 992 l 656 728 l 786 728 l 786 561 l 631 561 m 347 428 l 442 428 l 463 561 l 368 561 l 347 428 z "},"$":{"ha":722,"x_min":54,"x_max":669,"o":"m 311 42 q 184 60 246 44 q 67 100 122 75 l 67 304 q 188 247 122 271 q 311 219 254 222 l 311 422 q 174 489 232 451 q 85 578 115 526 q 54 706 54 631 q 87 837 54 783 q 178 921 119 890 q 311 960 236 951 l 311 1054 l 419 1054 l 419 961 q 538 940 479 957 q 649 896 596 922 l 597 722 q 509 760 556 746 q 419 778 463 774 l 419 589 q 558 526 503 560 q 642 443 614 492 q 669 322 669 394 q 606 142 669 217 q 419 46 543 67 l 419 -81 l 311 -81 l 311 42 m 419 231 q 465 260 451 240 q 479 306 479 279 q 472 337 479 324 q 453 360 465 350 q 419 381 440 371 l 419 231 m 311 776 q 274 763 288 772 q 254 738 260 753 q 249 706 249 724 q 255 676 249 689 q 275 651 261 663 q 311 629 289 640 l 311 776 z "},"%":{"ha":1211,"x_min":31,"x_max":1179,"o":"m 260 1006 q 428 922 365 1006 q 492 696 492 839 q 432 465 492 547 q 260 383 372 383 q 92 467 154 383 q 31 696 31 551 q 90 925 31 844 q 260 1006 150 1006 m 263 847 q 224 808 236 847 q 213 693 213 769 q 224 578 213 617 q 263 539 236 539 q 299 577 288 539 q 311 693 311 615 q 299 809 311 771 q 263 847 288 847 m 917 992 l 467 0 l 290 0 l 740 992 l 917 992 m 947 611 q 1116 528 1053 611 q 1179 301 1179 444 q 1119 71 1179 153 q 947 -11 1060 -11 q 781 73 842 -11 q 719 301 719 157 q 778 531 719 450 q 947 611 838 611 m 949 453 q 912 414 924 453 q 900 299 900 375 q 912 183 900 222 q 949 144 924 144 q 988 187 978 144 q 997 299 997 229 q 988 411 997 369 q 949 453 978 453 z "},"&":{"ha":958,"x_min":36,"x_max":965,"o":"m 404 1004 q 552 976 492 1004 q 644 894 613 947 q 675 768 675 842 q 632 629 675 690 q 517 517 589 568 l 622 397 q 650 468 638 428 q 672 557 663 508 l 921 557 q 869 374 904 464 q 785 208 833 283 l 965 0 l 660 0 l 611 61 q 537 21 575 38 q 452 -5 499 4 q 342 -14 406 -14 q 174 22 243 -14 q 71 124 106 58 q 36 275 36 190 q 56 385 36 335 q 114 476 75 435 q 208 547 153 517 q 163 614 182 581 q 135 685 144 647 q 125 768 125 724 q 158 891 125 838 q 255 974 192 944 q 404 1004 318 1004 m 328 407 q 301 375 311 393 q 285 336 290 357 q 281 290 281 315 q 306 219 281 250 q 376 189 331 189 q 433 199 408 189 q 476 224 457 208 l 328 407 m 403 838 q 362 820 379 838 q 344 767 344 803 q 358 712 344 739 q 396 657 372 685 q 443 711 426 679 q 460 775 460 743 q 444 822 460 807 q 403 838 428 838 z "},"'":{"ha":367,"x_min":63,"x_max":304,"o":"m 304 992 l 276 633 l 90 633 l 63 992 l 304 992 z "},"(":{"ha":467,"x_min":57,"x_max":453,"o":"m 57 394 q 79 634 57 521 q 144 844 101 747 q 243 1019 186 942 l 453 1019 q 319 729 363 886 q 276 396 276 572 q 297 176 276 282 q 356 -27 317 71 q 453 -219 396 -125 l 243 -219 q 143 -44 185 -139 q 79 161 101 51 q 57 394 57 271 z "},")":{"ha":467,"x_min":13,"x_max":410,"o":"m 410 394 q 388 161 410 271 q 324 -44 365 51 q 222 -219 282 -139 l 14 -219 q 111 -27 72 -125 q 169 176 150 71 q 189 396 189 282 q 170 623 189 514 q 113 831 151 732 q 13 1019 74 931 l 222 1019 q 323 844 281 942 q 388 634 365 747 q 410 394 410 521 z "},"*":{"ha":686,"x_min":21,"x_max":665,"o":"m 446 1058 l 419 842 l 624 915 l 665 719 l 467 697 l 610 533 l 442 422 l 342 608 l 247 422 l 75 533 l 218 697 l 21 719 l 64 915 l 267 842 l 240 1058 l 446 1058 z "},"+":{"ha":731,"x_min":51,"x_max":678,"o":"m 457 581 l 678 581 l 678 399 l 457 399 l 457 154 l 272 154 l 272 399 l 51 399 l 51 581 l 272 581 l 272 829 l 457 829 l 457 581 z "},",":{"ha":394,"x_min":42,"x_max":328,"o":"m 328 188 q 301 51 317 119 q 268 -79 286 -17 q 229 -193 250 -142 l 42 -193 q 64 -65 53 -136 q 84 78 75 7 q 97 203 93 150 l 319 203 l 328 188 z "},"-":{"ha":449,"x_min":38,"x_max":411,"o":"m 38 267 l 38 478 l 411 478 l 411 267 l 38 267 z "},".":{"ha":386,"x_min":61,"x_max":324,"o":"m 61 113 q 97 210 61 178 q 194 243 133 243 q 290 210 256 243 q 324 113 324 178 q 289 16 324 49 q 194 -17 254 -17 q 99 16 136 -17 q 61 113 61 49 z "},"/":{"ha":597,"x_min":6,"x_max":594,"o":"m 594 1006 l 213 -14 l 6 -14 l 388 1006 l 594 1006 z "},":":{"ha":393,"x_min":65,"x_max":326,"o":"m 65 113 q 101 210 65 178 q 199 243 136 243 q 293 210 260 243 q 326 113 326 178 q 292 16 326 49 q 199 -17 257 -17 q 103 16 140 -17 q 65 113 65 49 m 65 649 q 101 747 65 714 q 199 779 136 779 q 293 747 260 779 q 326 649 326 714 q 292 552 326 585 q 199 519 257 519 q 103 552 140 519 q 65 649 65 585 z "},";":{"ha":396,"x_min":40,"x_max":328,"o":"m 328 188 q 301 51 317 119 q 268 -79 286 -17 q 229 -193 250 -142 l 40 -193 q 58 -99 50 -150 q 74 7 67 -47 q 87 112 81 61 q 97 203 93 163 l 319 203 l 328 188 m 67 649 q 102 747 67 714 q 200 779 138 779 q 294 747 260 779 q 328 649 328 714 q 292 552 328 585 q 200 519 257 519 q 103 552 140 519 q 67 649 67 585 z "},"<":{"ha":731,"x_min":47,"x_max":678,"o":"m 678 146 l 47 438 l 47 554 l 678 857 l 678 656 l 313 499 l 678 346 l 678 146 z "},"=":{"ha":731,"x_min":51,"x_max":678,"o":"m 51 553 l 51 735 l 678 735 l 678 553 l 51 553 m 51 243 l 51 426 l 678 426 l 678 243 l 51 243 z "},">":{"ha":731,"x_min":51,"x_max":682,"o":"m 51 346 l 417 499 l 51 656 l 51 857 l 682 554 l 682 438 l 51 146 l 51 346 z "},"?":{"ha":601,"x_min":0,"x_max":581,"o":"m 164 408 q 174 487 164 453 q 206 551 183 521 q 267 611 229 581 q 319 657 300 638 q 344 695 338 676 q 351 738 351 714 q 330 786 351 769 q 268 803 308 803 q 181 785 228 803 q 79 731 133 767 l 0 910 q 141 981 68 957 q 289 1006 214 1006 q 506 938 431 1006 q 581 758 581 871 q 565 656 581 700 q 518 576 549 613 q 442 503 488 539 q 388 455 406 474 q 364 421 369 436 q 358 385 358 406 l 358 350 l 164 350 l 164 408 m 132 113 q 168 210 132 178 q 265 243 204 243 q 360 210 325 243 q 394 113 394 178 q 359 17 394 50 q 265 -17 324 -17 q 169 17 206 -17 q 132 113 132 50 z "},"@":{"ha":1119,"x_min":50,"x_max":1069,"o":"m 1069 513 q 1053 374 1069 439 q 1005 262 1036 310 q 931 186 974 214 q 838 158 889 158 q 745 182 785 158 q 685 249 706 206 l 675 249 q 609 182 647 206 q 525 158 571 158 q 360 231 417 158 q 304 433 304 304 q 339 599 304 526 q 440 714 374 672 q 599 756 506 756 q 708 744 651 756 q 808 714 764 732 l 796 428 q 794 392 794 413 q 793 353 793 372 q 803 309 793 324 q 829 294 813 294 q 869 318 853 294 q 896 390 886 342 q 906 514 906 439 q 870 699 906 619 q 763 822 835 778 q 583 867 690 867 q 426 835 494 867 q 312 743 358 803 q 241 601 265 683 q 217 417 217 518 q 256 213 217 299 q 372 81 294 128 q 565 35 450 35 q 716 52 635 35 q 872 100 797 69 l 872 -46 q 730 -90 806 -75 q 571 -104 654 -104 q 289 -42 406 -104 q 111 136 172 19 q 50 414 50 253 q 88 655 50 547 q 197 841 126 763 q 365 962 267 919 q 582 1004 463 1004 q 781 969 692 1004 q 935 871 871 935 q 1035 716 1000 807 q 1069 513 1069 625 m 478 433 q 497 327 478 360 q 546 294 515 294 q 604 340 586 294 q 628 500 622 385 l 635 614 q 615 617 624 617 q 599 618 607 618 q 533 595 560 618 q 492 531 506 572 q 478 433 478 489 z "},"A":{"ha":861,"x_min":0,"x_max":861,"o":"m 596 0 l 554 192 l 308 192 l 267 0 l 0 0 l 267 993 l 592 993 l 861 0 l 596 0 m 472 603 q 458 676 465 638 q 443 754 450 715 q 431 822 436 793 q 422 756 428 793 q 407 681 415 719 q 392 606 399 642 l 350 399 l 513 399 l 472 603 z "},"B":{"ha":824,"x_min":89,"x_max":763,"o":"m 394 992 q 661 931 576 992 q 746 744 746 869 q 727 642 746 688 q 678 567 708 597 q 608 526 647 538 l 608 519 q 691 476 657 506 q 744 402 725 447 q 763 290 763 357 q 722 136 763 201 q 606 35 681 71 q 426 0 531 0 l 89 0 l 89 992 l 394 992 m 396 607 q 471 633 446 607 q 496 707 496 660 q 470 774 496 751 q 390 797 444 797 l 335 797 l 335 607 l 396 607 m 335 419 l 335 199 l 406 199 q 486 228 461 199 q 511 311 511 257 q 499 368 511 344 q 464 406 488 392 q 403 419 440 419 l 335 419 z "},"C":{"ha":764,"x_min":60,"x_max":726,"o":"m 475 797 q 407 776 438 797 q 356 716 376 756 q 325 619 336 676 q 314 492 314 563 q 333 327 314 393 q 392 228 353 261 q 488 194 431 194 q 591 213 542 194 q 690 257 640 231 l 690 42 q 578 0 638 14 q 453 -14 519 -14 q 235 46 322 -14 q 103 219 147 106 q 60 493 60 333 q 87 701 60 607 q 166 863 114 794 q 292 969 218 932 q 463 1006 367 1006 q 596 989 529 1006 q 726 936 663 972 l 658 736 q 570 781 615 764 q 475 797 525 797 z "},"D":{"ha":876,"x_min":89,"x_max":817,"o":"m 817 517 q 763 235 817 350 q 608 60 708 119 q 364 0 507 0 l 89 0 l 89 992 l 383 992 q 619 937 522 992 q 766 776 715 882 q 817 517 817 671 m 563 507 q 542 666 563 606 q 482 755 522 726 q 381 783 442 783 l 335 783 l 335 210 l 365 210 q 515 282 468 210 q 563 507 563 354 z "},"E":{"ha":660,"x_min":89,"x_max":600,"o":"m 600 0 l 89 0 l 89 992 l 600 992 l 600 788 l 335 788 l 335 615 l 581 615 l 581 411 l 335 411 l 335 207 l 600 207 l 600 0 z "},"F":{"ha":649,"x_min":89,"x_max":597,"o":"m 333 0 l 89 0 l 89 992 l 597 992 l 597 788 l 333 788 l 333 582 l 578 582 l 578 378 l 333 378 l 333 0 z "},"G":{"ha":885,"x_min":60,"x_max":808,"o":"m 439 581 l 808 581 l 808 46 q 647 1 732 17 q 471 -14 561 -14 q 249 44 342 -14 q 108 217 157 103 q 60 499 60 332 q 113 770 60 657 q 267 944 165 883 q 515 1006 369 1006 q 668 988 597 1006 q 792 943 739 971 l 721 744 q 626 784 676 771 q 521 797 576 797 q 404 760 450 797 q 336 655 358 724 q 314 492 314 586 q 333 330 314 396 q 392 230 353 264 q 486 196 431 196 q 530 199 507 196 q 571 207 553 201 l 571 381 l 439 381 l 439 581 z "},"H":{"ha":911,"x_min":89,"x_max":822,"o":"m 822 0 l 575 0 l 575 411 l 336 411 l 336 0 l 89 0 l 89 992 l 336 992 l 336 618 l 575 618 l 575 992 l 822 992 l 822 0 z "},"I":{"ha":528,"x_min":39,"x_max":489,"o":"m 489 0 l 39 0 l 39 135 l 140 182 l 140 810 l 39 857 l 39 992 l 489 992 l 489 857 l 386 810 l 386 182 l 489 135 l 489 0 z "},"J":{"ha":429,"x_min":-92,"x_max":339,"o":"m 31 -311 q -35 -308 -6 -311 q -92 -297 -65 -304 l -92 -94 q -53 -104 -74 -100 q -10 -108 -33 -108 q 53 -92 31 -108 q 85 -36 75 -75 q 94 68 94 3 l 94 992 l 339 992 l 339 82 q 301 -153 339 -67 q 195 -275 264 -239 q 31 -311 126 -311 z "},"K":{"ha":822,"x_min":89,"x_max":836,"o":"m 832 0 l 558 0 l 399 372 l 336 332 l 336 0 l 89 0 l 89 992 l 336 992 l 336 561 q 362 623 346 592 q 396 688 378 654 l 571 992 l 836 992 l 575 547 l 832 0 z "},"L":{"ha":658,"x_min":89,"x_max":631,"o":"m 89 0 l 89 992 l 335 992 l 335 207 l 631 207 l 631 0 l 89 0 z "},"M":{"ha":1188,"x_min":89,"x_max":1099,"o":"m 489 0 l 308 681 l 303 681 q 309 598 307 642 q 313 512 311 554 q 315 431 315 469 l 315 0 l 89 0 l 89 992 l 424 992 l 593 364 l 597 364 l 767 992 l 1099 992 l 1099 0 l 865 0 l 865 435 q 867 517 865 475 q 871 601 868 558 q 875 681 874 643 l 869 681 l 689 0 l 489 0 z "},"N":{"ha":985,"x_min":89,"x_max":896,"o":"m 896 0 l 597 0 l 308 642 l 303 642 q 310 547 307 593 q 313 461 313 501 q 314 390 314 421 l 314 0 l 89 0 l 89 992 l 386 992 l 675 365 l 679 365 q 674 453 676 410 q 671 536 672 497 q 669 606 669 575 l 669 992 l 896 992 l 896 0 z "},"O":{"ha":936,"x_min":60,"x_max":876,"o":"m 876 497 q 851 281 876 375 q 775 119 825 186 q 648 19 725 53 q 468 -14 571 -14 q 290 20 367 -14 q 162 120 214 54 q 85 281 110 186 q 60 499 60 376 q 105 774 60 661 q 242 947 150 888 q 468 1007 333 1007 q 697 948 606 1007 q 832 775 788 889 q 876 497 876 661 m 315 497 q 332 333 315 400 q 383 233 349 267 q 468 199 417 199 q 555 231 521 199 q 604 331 589 264 q 619 497 619 397 q 583 723 619 647 q 468 799 547 799 q 383 765 417 799 q 332 663 349 731 q 315 497 315 596 z "},"P":{"ha":769,"x_min":89,"x_max":726,"o":"m 399 992 q 644 910 563 992 q 726 676 726 828 q 707 540 726 603 q 647 431 688 478 q 543 356 607 383 q 390 329 479 329 l 335 329 l 335 0 l 89 0 l 89 992 l 399 992 m 381 786 l 335 786 l 335 535 l 365 535 q 425 549 399 535 q 466 593 451 563 q 481 674 481 624 q 456 757 481 728 q 381 786 432 786 z "},"Q":{"ha":936,"x_min":60,"x_max":882,"o":"m 876 497 q 856 299 876 388 q 794 146 836 210 q 690 42 753 82 l 882 -236 l 596 -236 l 463 -12 q 458 -12 461 -12 q 453 -12 456 -12 q 281 24 354 -12 q 158 127 207 60 q 84 288 108 194 q 60 499 60 382 q 105 774 60 661 q 242 947 150 888 q 468 1007 333 1007 q 697 948 606 1007 q 832 775 788 889 q 876 497 876 661 m 315 497 q 332 333 315 400 q 383 233 349 267 q 468 199 417 199 q 555 231 521 199 q 604 331 589 264 q 619 497 619 397 q 583 723 619 647 q 468 799 547 799 q 383 765 417 799 q 332 663 349 731 q 315 497 315 596 z "},"R":{"ha":813,"x_min":89,"x_max":822,"o":"m 372 992 q 574 959 493 992 q 694 862 654 926 q 735 699 735 797 q 719 591 735 640 q 670 502 703 542 q 590 432 638 463 l 822 0 l 549 0 l 376 369 l 335 369 l 335 0 l 89 0 l 89 992 l 372 992 m 369 793 l 335 793 l 335 557 l 368 557 q 453 588 422 557 q 483 686 483 619 q 471 745 483 721 q 433 781 458 769 q 369 793 408 793 z "},"S":{"ha":682,"x_min":46,"x_max":643,"o":"m 643 301 q 604 141 643 213 q 491 28 565 69 q 310 -14 417 -14 q 215 -8 258 -14 q 131 11 172 -3 q 46 49 90 25 l 46 288 q 178 226 111 249 q 301 204 246 204 q 354 214 333 204 q 385 240 375 224 q 394 278 394 257 q 384 320 394 301 q 344 360 374 339 q 257 414 314 382 q 172 469 210 442 q 107 531 133 497 q 66 610 81 565 q 51 715 51 654 q 90 870 51 806 q 201 970 128 935 q 375 1006 274 1006 q 513 987 446 1006 q 643 935 581 968 l 575 728 q 471 775 521 758 q 379 792 421 792 q 333 783 351 792 q 307 760 315 775 q 299 728 299 746 q 310 684 299 703 q 354 644 322 665 q 447 588 386 622 q 555 513 511 553 q 621 422 599 472 q 643 301 643 371 z "},"T":{"ha":693,"x_min":26,"x_max":667,"o":"m 469 0 l 225 0 l 225 783 l 26 783 l 26 992 l 667 992 l 667 783 l 469 783 l 469 0 z "},"U":{"ha":888,"x_min":85,"x_max":803,"o":"m 803 354 q 762 153 803 236 q 640 28 721 71 q 440 -14 560 -14 q 176 78 268 -14 q 85 349 85 169 l 85 992 l 331 992 l 331 363 q 359 236 331 274 q 443 199 388 199 q 509 215 483 199 q 546 267 535 231 q 557 364 557 303 l 557 992 l 803 992 l 803 354 z "},"V":{"ha":833,"x_min":0,"x_max":833,"o":"m 833 992 l 560 0 l 272 0 l 0 992 l 264 992 l 374 499 q 390 421 381 468 q 406 328 399 374 q 415 253 414 282 q 426 327 419 282 q 442 419 433 372 q 458 497 451 467 l 571 992 l 833 992 z "},"W":{"ha":1221,"x_min":6,"x_max":1214,"o":"m 1214 992 l 1010 0 l 725 0 l 649 389 q 639 447 644 415 q 628 515 633 479 q 618 585 622 550 q 611 651 614 619 q 604 590 608 625 q 594 519 600 556 q 583 449 589 482 q 574 390 578 415 l 496 0 l 213 0 l 6 992 l 244 992 l 328 540 q 337 483 332 517 q 348 410 342 449 q 359 334 354 372 q 368 263 364 296 q 378 346 372 301 q 392 433 385 390 q 408 512 400 475 q 419 575 415 549 l 507 992 l 715 992 l 796 575 q 809 509 801 547 q 824 427 817 471 q 837 341 831 383 q 847 263 843 299 q 857 349 850 301 q 872 448 864 397 q 888 539 881 499 l 971 992 l 1214 992 z "},"X":{"ha":807,"x_min":-1,"x_max":807,"o":"m 807 0 l 536 0 l 401 293 l 264 0 l -1 0 l 256 499 l 14 992 l 275 992 l 396 707 l 511 992 l 778 992 l 540 499 l 807 0 z "},"Y":{"ha":788,"x_min":0,"x_max":788,"o":"m 394 629 l 531 992 l 788 992 l 517 382 l 517 0 l 271 0 l 271 374 l 0 992 l 260 992 l 394 629 z "},"Z":{"ha":713,"x_min":33,"x_max":682,"o":"m 682 0 l 33 0 l 33 165 l 394 786 l 40 786 l 40 992 l 672 992 l 672 826 l 313 207 l 682 207 l 682 0 z "},"[":{"ha":429,"x_min":64,"x_max":403,"o":"m 403 -233 l 64 -233 l 64 1019 l 403 1019 l 403 847 l 274 847 l 274 -61 l 403 -61 l 403 -233 z "},"\\":{"ha":597,"x_min":3,"x_max":593,"o":"m 211 1006 l 593 -14 l 385 -14 l 3 1006 l 211 1006 z "},"]":{"ha":429,"x_min":26,"x_max":365,"o":"m 26 -61 l 156 -61 l 156 847 l 26 847 l 26 1019 l 365 1019 l 365 -233 l 26 -233 l 26 -61 z "},"^":{"ha":744,"x_min":3,"x_max":744,"o":"m 3 338 l 308 993 l 424 993 l 744 338 l 542 338 l 369 701 l 203 338 l 3 338 z "},"_":{"ha":694,"x_min":-3,"x_max":697,"o":"m 697 -257 l -3 -257 l -3 -90 l 697 -90 l 697 -257 z "},"`":{"ha":504,"x_min":56,"x_max":449,"o":"m 319 1064 q 360 997 336 1036 q 409 919 385 957 q 449 861 433 882 l 449 842 l 281 842 q 230 885 261 858 q 165 944 199 913 q 102 1003 132 975 q 56 1050 72 1032 l 56 1064 l 319 1064 z "},"a":{"ha":740,"x_min":39,"x_max":665,"o":"m 399 782 q 594 713 524 782 q 665 504 665 643 l 665 0 l 497 0 l 456 101 l 450 101 q 394 37 424 63 q 328 -1 365 11 q 236 -14 290 -14 q 127 19 171 -14 q 61 109 83 53 q 39 235 39 165 q 111 419 39 358 q 319 485 183 479 l 428 489 l 428 506 q 408 577 428 554 q 349 600 388 600 q 267 585 313 600 q 169 543 222 571 l 106 713 q 239 764 165 746 q 399 782 313 782 m 382 340 q 303 315 328 339 q 278 246 278 290 q 294 188 278 207 q 339 168 310 168 q 403 199 376 168 q 429 278 429 229 l 429 343 l 382 340 z "},"b":{"ha":778,"x_min":76,"x_max":728,"o":"m 313 817 q 310 753 313 789 q 306 669 308 717 l 313 669 q 388 753 344 725 q 492 782 432 782 q 663 678 599 782 q 728 386 728 574 q 699 172 728 261 q 615 34 669 82 q 485 -14 560 -14 q 388 7 425 -14 q 313 75 350 28 l 300 75 l 264 0 l 76 0 l 76 1056 l 313 1056 l 313 817 m 404 585 q 353 566 374 585 q 322 510 332 547 q 313 413 313 472 l 313 371 q 334 227 313 272 q 407 182 356 182 q 467 233 446 182 q 488 389 488 285 q 467 535 488 486 q 404 585 447 585 z "},"c":{"ha":646,"x_min":49,"x_max":613,"o":"m 379 -14 q 199 28 272 -14 q 87 157 125 69 q 49 381 49 244 q 88 592 49 501 q 201 732 126 682 q 389 782 276 782 q 509 767 454 782 q 613 724 564 753 l 547 539 q 474 574 510 563 q 399 585 438 585 q 341 562 365 585 q 303 494 317 539 q 289 381 289 449 q 302 270 289 314 q 341 205 315 226 q 404 183 367 183 q 499 201 451 183 q 592 251 547 218 l 592 54 q 495 3 547 21 q 379 -14 443 -14 z "},"d":{"ha":778,"x_min":49,"x_max":701,"o":"m 290 -14 q 113 92 178 -14 q 49 385 49 197 q 114 678 49 574 q 289 782 179 782 q 361 769 329 782 q 419 732 393 757 q 465 669 446 707 l 472 669 q 466 756 468 715 q 464 826 464 796 l 464 1056 l 701 1056 l 701 0 l 515 0 l 475 82 l 464 82 q 417 29 442 50 q 363 -3 393 8 q 290 -14 333 -14 m 375 181 q 448 224 426 181 q 471 365 469 268 l 471 403 q 449 539 471 494 q 375 583 426 583 q 312 534 335 583 q 289 386 289 485 q 312 231 289 281 q 375 181 335 181 z "},"e":{"ha":726,"x_min":49,"x_max":682,"o":"m 371 781 q 538 740 468 781 q 645 622 608 700 q 682 431 682 544 l 682 313 l 283 313 q 319 205 285 242 q 425 168 354 168 q 533 182 483 168 q 640 228 583 196 l 640 42 q 529 -1 589 13 q 393 -14 469 -14 q 203 30 279 -14 q 88 162 126 74 q 49 381 49 250 q 86 601 49 513 q 196 735 124 690 q 371 781 268 781 m 378 606 q 313 575 339 606 q 285 474 288 544 l 464 474 q 453 547 464 518 q 424 591 443 576 q 378 606 404 606 z "},"f":{"ha":490,"x_min":15,"x_max":519,"o":"m 479 579 l 343 579 l 343 0 l 106 0 l 106 579 l 15 579 l 15 701 l 107 765 l 107 778 q 131 942 107 879 q 206 1033 156 1004 q 336 1063 257 1063 q 426 1054 386 1063 q 519 1026 467 1046 l 471 860 q 433 869 453 865 q 392 874 413 874 q 355 855 367 874 q 343 794 343 836 l 343 768 l 479 768 l 479 579 z "},"g":{"ha":778,"x_min":49,"x_max":701,"o":"m 293 782 q 395 756 354 782 q 468 672 436 731 l 478 672 l 496 768 l 701 768 l 701 47 q 663 -160 701 -75 q 542 -290 624 -246 q 331 -333 460 -333 q 195 -320 254 -333 q 82 -279 136 -307 l 82 -78 q 202 -123 146 -108 q 321 -137 258 -137 q 426 -108 388 -137 q 464 -14 464 -79 l 464 -4 q 466 47 464 18 q 471 99 468 75 l 464 99 q 394 15 435 43 q 286 -14 353 -14 q 113 90 178 -14 q 49 379 49 194 q 114 676 49 569 q 293 782 179 782 m 374 585 q 328 563 347 585 q 299 494 308 540 q 289 376 289 447 q 311 231 289 278 q 376 183 333 183 q 419 194 401 183 q 449 225 438 204 q 465 278 460 246 q 471 356 471 311 l 471 393 q 461 502 471 460 q 431 565 451 544 q 374 585 410 585 z "},"h":{"ha":793,"x_min":76,"x_max":719,"o":"m 313 875 q 308 766 313 817 q 297 674 304 715 l 310 674 q 353 735 328 711 q 413 771 379 760 q 490 782 447 782 q 611 750 560 782 q 691 656 663 718 q 719 500 719 593 l 719 0 l 482 0 l 482 425 q 465 541 482 503 q 413 579 447 579 q 351 554 372 579 q 321 477 329 529 q 313 347 313 425 l 313 0 l 76 0 l 76 1056 l 313 1056 l 313 875 z "},"i":{"ha":393,"x_min":71,"x_max":322,"o":"m 314 768 l 314 0 l 78 0 l 78 768 l 314 768 m 196 1078 q 290 1050 257 1078 q 322 960 322 1022 q 289 871 322 899 q 196 843 256 843 q 104 871 138 843 q 71 960 71 899 q 103 1050 71 1022 q 196 1078 135 1078 z "},"j":{"ha":393,"x_min":-58,"x_max":322,"o":"m 67 -333 q 3 -329 38 -333 q -58 -317 -31 -325 l -58 -121 q -23 -130 -40 -126 q 10 -133 -6 -133 q 59 -110 42 -133 q 76 -33 76 -87 l 76 768 l 314 768 l 314 -62 q 286 -209 314 -149 q 203 -301 258 -269 q 67 -333 149 -332 m 69 960 q 102 1050 69 1022 q 196 1078 135 1078 q 290 1050 257 1078 q 322 960 322 1022 q 288 871 322 899 q 196 843 254 843 q 103 871 136 843 q 69 960 69 899 z "},"k":{"ha":781,"x_min":76,"x_max":786,"o":"m 314 638 q 311 533 314 586 q 303 431 308 479 l 307 431 q 328 471 317 450 q 351 511 340 492 q 372 544 363 531 l 517 768 l 775 768 l 550 442 l 786 0 l 522 0 l 385 278 l 314 219 l 314 0 l 76 0 l 76 1056 l 314 1056 l 314 638 z "},"l":{"ha":390,"x_min":76,"x_max":313,"o":"m 313 0 l 76 0 l 76 1056 l 313 1056 l 313 0 z "},"m":{"ha":1183,"x_min":76,"x_max":1110,"o":"m 885 782 q 1053 713 996 782 q 1110 500 1110 644 l 1110 0 l 872 0 l 872 424 q 855 542 872 504 q 801 579 838 579 q 731 526 750 579 q 711 364 711 472 l 711 0 l 474 0 l 474 424 q 467 511 474 476 q 444 563 460 546 q 406 579 429 579 q 350 554 371 579 q 321 476 329 529 q 313 342 313 424 l 313 0 l 76 0 l 76 768 l 260 768 l 289 674 l 300 674 q 344 732 317 708 q 412 769 372 756 q 499 782 451 782 q 616 753 572 782 q 683 679 660 725 l 697 679 q 773 755 726 728 q 885 782 819 782 z "},"n":{"ha":793,"x_min":76,"x_max":719,"o":"m 490 782 q 658 710 596 782 q 719 500 719 639 l 719 0 l 482 0 l 482 425 q 467 540 482 501 q 407 579 451 579 q 332 526 351 579 q 313 347 313 472 l 313 0 l 76 0 l 76 768 l 260 768 l 288 672 l 300 672 q 347 733 319 708 q 410 769 374 757 q 490 782 446 782 z "},"o":{"ha":767,"x_min":49,"x_max":717,"o":"m 717 386 q 698 233 717 306 q 639 106 679 161 q 535 18 599 50 q 382 -14 471 -14 q 238 17 300 -14 q 133 103 175 49 q 69 231 90 158 q 49 386 49 304 q 85 592 49 503 q 195 731 121 681 q 385 782 269 782 q 558 735 483 782 q 675 601 633 689 q 717 386 717 513 m 289 385 q 299 270 289 317 q 330 200 308 224 q 383 176 351 176 q 438 200 418 176 q 467 270 458 224 q 476 386 476 317 q 467 501 476 456 q 438 569 458 546 q 383 592 418 592 q 312 541 335 592 q 289 385 289 490 z "},"p":{"ha":778,"x_min":76,"x_max":728,"o":"m 488 782 q 664 676 600 782 q 728 383 728 571 q 698 169 728 258 q 614 33 668 81 q 489 -14 560 -14 q 416 -1 449 -14 q 358 35 383 11 q 313 92 333 58 l 306 92 q 310 13 308 47 q 313 -50 313 -22 l 313 -333 l 76 -333 l 76 768 l 267 768 l 301 669 l 313 669 q 362 737 338 713 q 417 772 386 761 q 488 782 449 782 m 404 589 q 352 569 372 589 q 323 509 332 550 q 313 403 314 468 l 313 365 q 322 265 313 304 q 351 205 331 225 q 404 185 372 185 q 451 206 432 185 q 478 272 469 228 q 488 382 488 315 q 466 539 488 489 q 404 589 444 589 z "},"q":{"ha":778,"x_min":49,"x_max":701,"o":"m 464 -39 q 466 19 464 -15 q 471 99 468 54 l 464 99 q 391 15 435 43 q 286 -14 347 -14 q 113 90 178 -14 q 49 379 49 194 q 78 597 49 507 q 163 734 108 686 q 293 782 218 782 q 395 756 354 782 q 468 672 436 731 l 478 672 l 496 768 l 701 768 l 701 -333 l 464 -333 l 464 -39 m 376 183 q 431 201 411 183 q 461 258 451 219 q 471 356 471 296 l 471 393 q 449 539 471 493 q 374 585 428 585 q 311 533 333 585 q 289 376 289 482 q 311 231 289 278 q 376 183 333 183 z "},"r":{"ha":560,"x_min":76,"x_max":547,"o":"m 479 782 q 513 780 496 782 q 547 774 529 778 l 528 529 q 497 535 514 533 q 453 538 479 538 q 396 529 421 538 q 352 502 371 521 q 324 454 333 483 q 314 383 314 425 l 314 0 l 76 0 l 76 768 l 257 768 l 292 646 l 303 646 q 345 710 319 679 q 406 762 371 742 q 479 782 440 782 z "},"s":{"ha":600,"x_min":42,"x_max":560,"o":"m 560 236 q 528 101 560 157 q 435 15 497 44 q 279 -14 372 -14 q 158 -4 215 -14 q 43 29 100 6 l 43 242 q 152 197 94 214 q 260 179 210 179 q 312 190 294 179 q 329 222 329 200 q 320 249 329 236 q 284 277 311 261 q 199 319 257 293 q 112 378 147 344 q 59 455 76 411 q 42 556 42 499 q 113 723 42 664 q 311 782 185 782 q 433 765 376 782 q 551 717 490 749 l 490 546 q 405 587 449 571 q 322 603 361 603 q 283 594 296 603 q 269 568 269 586 q 277 545 269 556 q 311 520 285 535 q 392 476 338 506 q 482 418 444 450 q 540 342 519 386 q 560 236 560 299 z "},"t":{"ha":536,"x_min":18,"x_max":506,"o":"m 399 185 q 450 192 424 185 q 506 211 476 200 l 506 29 q 423 -2 467 10 q 324 -14 379 -14 q 199 14 249 -14 q 124 100 149 42 q 100 253 100 158 l 100 579 l 18 579 l 18 696 l 121 761 l 178 922 l 338 922 l 338 768 l 496 768 l 496 579 l 338 579 l 338 260 q 353 203 338 222 q 399 185 368 185 z "},"u":{"ha":793,"x_min":75,"x_max":717,"o":"m 717 768 l 717 0 l 535 0 l 507 94 l 494 94 q 446 34 474 58 q 383 -2 418 10 q 304 -14 347 -14 q 183 18 235 -14 q 103 113 131 50 q 75 268 75 176 l 75 768 l 311 768 l 311 343 q 327 228 311 268 q 381 189 343 189 q 445 215 424 189 q 474 288 467 240 q 481 401 481 336 l 481 768 l 717 768 z "},"v":{"ha":732,"x_min":1,"x_max":731,"o":"m 243 0 l 1 768 l 249 768 l 342 371 q 350 328 346 350 q 357 284 354 307 q 361 236 360 261 l 367 236 q 369 279 367 257 q 376 324 372 301 q 386 369 381 347 l 483 768 l 731 768 l 490 0 l 243 0 z "},"w":{"ha":1094,"x_min":10,"x_max":1085,"o":"m 579 338 q 570 393 575 364 q 561 453 565 422 q 554 511 557 483 q 549 560 551 539 l 543 560 q 536 507 540 536 q 528 447 532 478 q 520 388 525 417 q 510 336 515 360 l 446 0 l 185 0 l 10 768 l 246 768 l 292 511 q 305 431 299 476 q 315 339 311 386 q 321 249 319 292 l 326 249 q 332 308 329 276 q 340 372 335 339 q 350 435 344 404 q 361 496 356 467 l 414 768 l 683 768 l 733 492 q 747 405 740 449 q 760 321 754 361 q 767 249 765 281 l 772 249 q 780 337 775 290 q 791 428 785 383 q 804 511 797 474 l 854 768 l 1085 768 l 908 0 l 643 0 l 579 338 z "},"x":{"ha":724,"x_min":7,"x_max":717,"o":"m 206 392 l 14 768 l 275 768 l 363 563 l 449 768 l 710 768 l 518 392 l 717 0 l 456 0 l 358 222 l 264 0 l 7 0 l 206 392 z "},"y":{"ha":732,"x_min":1,"x_max":729,"o":"m 1 768 l 250 768 l 346 403 q 356 363 351 383 q 363 323 360 342 q 365 288 365 304 l 371 288 q 379 340 374 313 q 393 400 385 367 l 485 768 l 729 768 l 476 -49 q 403 -212 444 -150 q 306 -304 363 -275 q 171 -333 250 -333 q 117 -331 142 -333 q 71 -322 92 -328 l 71 -122 q 101 -128 85 -125 q 133 -131 117 -131 q 186 -119 167 -131 q 221 -78 206 -107 q 251 -1 236 -50 l 254 11 l 1 768 z "},"z":{"ha":597,"x_min":25,"x_max":571,"o":"m 571 0 l 25 0 l 25 140 l 292 576 l 40 576 l 40 768 l 558 768 l 558 615 l 304 192 l 571 192 l 571 0 z "},"{":{"ha":538,"x_min":25,"x_max":504,"o":"m 504 -233 q 306 -213 378 -233 q 203 -142 233 -193 q 174 0 174 -92 l 174 176 q 156 241 174 215 q 104 279 138 267 q 25 292 71 292 l 25 479 q 106 492 72 479 q 156 530 139 504 q 174 594 174 556 l 174 775 q 199 910 174 860 q 297 983 225 960 q 504 1006 368 1006 l 504 824 q 446 818 472 822 q 403 799 419 814 q 388 751 388 785 l 388 561 q 354 442 388 482 q 251 390 321 401 l 251 382 q 355 329 322 368 q 388 215 388 290 l 388 22 q 401 -22 388 -7 q 440 -44 414 -37 q 504 -51 467 -50 l 504 -233 z "},"|":{"ha":619,"x_min":214,"x_max":406,"o":"m 214 1067 l 406 1067 l 406 -314 l 214 -314 l 214 1067 z "},"}":{"ha":538,"x_min":33,"x_max":513,"o":"m 33 -51 q 97 -43 71 -49 q 135 -22 122 -37 q 149 22 149 -7 l 149 215 q 181 329 149 290 q 285 382 214 368 l 285 390 q 182 442 215 401 q 149 561 149 482 l 149 751 q 132 799 149 785 q 89 818 115 814 q 33 824 63 822 l 33 1006 q 233 985 161 1006 q 333 914 304 964 q 363 775 363 864 l 363 594 q 381 530 363 556 q 432 492 399 504 q 513 479 465 479 l 513 292 q 433 279 467 292 q 381 241 400 267 q 363 176 363 215 l 363 0 q 336 -136 363 -85 q 239 -210 310 -187 q 33 -233 168 -233 l 33 -51 z "},"~":{"ha":731,"x_min":46,"x_max":683,"o":"m 340 401 q 262 431 299 422 q 193 439 225 439 q 120 417 157 439 q 46 357 83 396 l 46 547 q 120 602 79 583 q 213 621 161 621 q 297 610 256 621 q 389 578 339 600 q 469 549 433 558 q 539 540 506 540 q 610 563 572 540 q 683 622 649 585 l 683 432 q 610 376 651 394 q 517 358 568 358 q 433 369 475 358 q 340 401 392 381 z "}," ":{"ha":279,"x_min":0,"x_max":0,"o":""},"¡":{"ha":385,"x_min":57,"x_max":328,"o":"m 92 415 l 294 415 l 328 -243 l 57 -243 l 92 415 m 326 653 q 290 555 326 588 q 193 522 254 522 q 99 555 135 522 q 64 653 64 588 q 99 749 64 717 q 193 782 135 782 q 290 749 253 782 q 326 653 326 717 z "},"¢":{"ha":725,"x_min":79,"x_max":642,"o":"m 460 900 q 555 883 507 897 q 642 844 603 868 l 578 660 q 504 694 542 683 q 432 706 467 706 q 372 686 397 706 q 333 622 346 667 q 319 501 319 576 q 332 386 319 429 q 369 324 344 343 q 429 304 393 304 q 527 322 476 304 q 621 372 578 340 l 621 175 q 547 135 589 151 q 460 111 504 118 l 460 -14 l 335 -14 l 335 113 q 192 171 249 122 q 107 303 135 219 q 79 501 79 388 q 108 697 79 613 q 194 833 138 782 q 335 894 251 883 l 335 1006 l 460 1006 l 460 900 z "},"£":{"ha":725,"x_min":64,"x_max":685,"o":"m 435 1006 q 553 992 496 1006 q 665 950 611 978 l 603 761 q 524 790 560 781 q 460 799 488 799 q 413 778 429 799 q 396 706 396 757 l 396 606 l 590 606 l 590 431 l 396 431 l 396 363 q 384 297 396 325 q 351 247 372 268 q 300 208 329 225 l 685 208 l 685 0 l 64 0 l 64 200 q 118 241 97 221 q 148 289 139 261 q 157 361 157 317 l 157 431 l 64 431 l 64 606 l 157 606 l 157 707 q 191 873 157 807 q 287 972 225 939 q 435 1006 349 1006 z "},"¤":{"ha":764,"x_min":57,"x_max":706,"o":"m 110 490 q 119 556 110 524 q 144 621 128 589 l 57 706 l 164 814 l 250 728 q 313 753 279 744 q 379 761 346 761 q 447 753 414 761 q 510 726 479 744 l 596 814 l 706 710 l 617 622 q 642 560 633 593 q 650 490 650 526 q 642 420 650 453 q 617 358 635 388 l 701 275 l 596 168 l 510 253 q 447 229 481 238 q 379 221 414 221 q 310 228 343 221 q 247 253 276 236 l 164 169 l 58 276 l 144 361 q 119 422 128 390 q 110 490 110 454 m 261 490 q 277 431 261 458 q 320 388 293 404 q 379 372 347 372 q 440 388 413 372 q 485 431 468 404 q 501 490 501 458 q 485 550 501 524 q 440 593 468 576 q 379 610 413 610 q 320 594 347 610 q 277 551 293 578 q 261 490 261 524 z "},"¥":{"ha":725,"x_min":1,"x_max":724,"o":"m 363 651 l 471 992 l 724 992 l 514 510 l 649 510 l 649 367 l 481 367 l 481 286 l 649 286 l 649 143 l 481 143 l 481 0 l 246 0 l 246 143 l 76 143 l 76 286 l 246 286 l 246 367 l 76 367 l 76 510 l 208 510 l 1 992 l 253 992 l 363 651 z "},"¦":{"ha":619,"x_min":214,"x_max":406,"o":"m 214 1054 l 406 1054 l 406 497 l 214 497 l 214 1054 m 214 242 l 406 242 l 406 -314 l 214 -314 l 214 242 z "},"§":{"ha":632,"x_min":58,"x_max":574,"o":"m 58 535 q 88 626 58 585 q 163 697 117 668 q 95 772 118 731 q 72 863 72 813 q 142 1007 72 953 q 328 1061 211 1061 q 447 1046 389 1061 q 560 1003 506 1031 l 500 850 q 413 892 457 876 q 333 908 369 908 q 284 897 301 908 q 267 860 267 885 q 278 828 267 843 q 313 799 289 814 q 374 768 338 785 q 489 703 444 736 q 553 631 533 669 q 574 542 574 592 q 549 438 574 479 q 482 363 525 397 q 540 292 519 333 q 560 199 560 250 q 488 39 560 100 q 286 -22 417 -22 q 167 -8 222 -22 q 65 36 111 7 l 65 206 q 138 168 99 185 q 216 141 178 151 q 282 131 254 131 q 346 146 325 131 q 367 190 367 161 q 359 223 367 210 q 329 251 351 236 q 263 288 307 265 q 147 356 192 324 q 81 432 103 389 q 58 535 58 475 m 242 560 q 250 522 242 539 q 279 487 258 504 q 336 449 300 469 l 367 432 q 385 463 378 446 q 392 503 392 481 q 381 551 392 529 q 344 592 369 572 q 278 629 319 611 q 251 602 260 619 q 242 560 242 585 z "},"¨":{"ha":699,"x_min":104,"x_max":601,"o":"m 104 958 q 133 1038 104 1011 q 208 1065 163 1065 q 285 1037 256 1065 q 314 958 314 1008 q 285 881 314 910 q 208 853 256 853 q 133 880 163 853 q 104 958 104 907 m 390 958 q 419 1038 390 1011 q 494 1065 449 1065 q 572 1037 543 1065 q 601 958 601 1008 q 572 881 601 910 q 494 853 543 853 q 419 881 447 853 q 390 958 390 908 z "},"©":{"ha":1144,"x_min":63,"x_max":1082,"o":"m 575 178 q 352 263 431 178 q 274 497 274 347 q 308 666 274 596 q 408 774 342 736 q 568 813 474 813 q 681 799 628 813 q 786 760 735 786 l 724 631 q 653 659 689 650 q 585 668 618 668 q 488 625 522 668 q 453 490 453 582 q 485 363 453 403 q 589 322 518 322 q 675 334 631 322 q 760 368 719 346 l 760 221 q 672 188 717 199 q 575 178 626 178 m 574 -14 q 363 26 457 -14 q 202 135 269 65 q 99 297 135 204 q 63 497 63 390 q 101 701 63 608 q 208 863 139 794 q 369 969 276 932 q 571 1006 461 1006 q 775 968 682 1006 q 937 861 868 931 q 1044 699 1006 792 q 1082 493 1082 606 q 1045 290 1082 383 q 940 129 1008 197 q 779 24 872 61 q 574 -14 686 -14 m 574 92 q 733 122 661 92 q 856 208 804 153 q 935 336 907 263 q 963 497 963 410 q 933 660 963 586 q 851 788 904 735 q 727 871 799 842 q 571 900 656 900 q 411 869 483 900 q 288 784 339 839 q 208 656 236 729 q 181 494 181 582 q 210 329 181 403 q 292 202 239 256 q 418 120 346 149 q 574 92 490 92 z "},"ª":{"ha":504,"x_min":29,"x_max":453,"o":"m 269 1003 q 403 953 354 1003 q 453 807 453 903 l 453 503 l 343 503 l 315 583 q 259 519 293 543 q 169 494 225 494 q 94 516 126 494 q 46 574 63 538 q 29 656 29 611 q 56 750 29 717 q 132 798 83 783 q 242 815 181 813 l 292 818 l 292 822 q 278 863 292 850 q 233 876 265 876 q 168 865 199 876 q 103 836 138 854 l 56 949 q 154 989 106 975 q 269 1003 203 1003 m 249 721 q 203 703 217 718 q 189 664 189 689 q 201 630 189 642 q 233 618 213 618 q 276 645 261 618 q 292 710 292 672 l 292 725 l 249 721 z "},"«":{"ha":828,"x_min":36,"x_max":786,"o":"m 36 399 l 267 722 l 438 632 l 283 389 l 438 147 l 267 57 l 36 379 l 36 399 m 386 399 l 615 722 l 786 632 l 633 389 l 786 147 l 615 57 l 386 379 l 386 399 z "},"¬":{"ha":731,"x_min":51,"x_max":674,"o":"m 674 581 l 674 161 l 488 161 l 488 399 l 51 399 l 51 581 l 674 581 z "},"­":{"ha":449,"x_min":38,"x_max":411,"o":"m 38 267 l 38 478 l 411 478 l 411 267 l 38 267 z "},"®":{"ha":1144,"x_min":63,"x_max":1082,"o":"m 347 213 l 347 806 l 549 806 q 741 759 679 806 q 803 622 803 713 q 778 521 803 560 q 707 458 754 482 l 829 213 l 644 213 l 554 429 l 522 429 l 522 213 l 347 213 m 540 549 q 603 563 581 549 q 625 615 625 578 q 606 661 625 649 q 542 674 586 674 l 522 674 l 522 549 l 540 549 m 574 -14 q 363 26 457 -14 q 202 135 269 65 q 99 297 135 204 q 63 497 63 390 q 101 701 63 608 q 208 863 139 794 q 369 969 276 932 q 571 1006 461 1006 q 775 968 682 1006 q 937 861 868 931 q 1044 699 1006 792 q 1082 493 1082 606 q 1045 290 1082 383 q 940 129 1008 197 q 779 24 872 61 q 574 -14 686 -14 m 574 92 q 733 122 661 92 q 856 208 804 153 q 935 336 907 263 q 963 497 963 410 q 933 660 963 586 q 851 788 904 735 q 727 871 799 842 q 571 900 656 900 q 411 869 483 900 q 288 784 339 839 q 208 656 236 729 q 181 494 181 582 q 210 329 181 403 q 292 202 239 256 q 418 120 346 149 q 574 92 490 92 z "},"¯":{"ha":689,"x_min":-3,"x_max":693,"o":"m 693 1056 l -3 1056 l -3 1222 l 693 1222 l 693 1056 z "},"°":{"ha":525,"x_min":32,"x_max":493,"o":"m 263 557 q 144 585 196 557 q 63 665 93 614 q 32 781 32 715 q 62 898 32 847 q 144 977 92 949 q 263 1006 196 1006 q 381 977 329 1006 q 463 898 432 949 q 493 781 493 847 q 463 665 493 715 q 381 585 432 614 q 263 557 329 557 m 263 697 q 325 719 303 697 q 347 781 347 742 q 325 844 347 821 q 263 867 303 867 q 200 844 222 867 q 178 781 178 821 q 200 719 178 742 q 263 697 222 697 z "},"±":{"ha":731,"x_min":51,"x_max":678,"o":"m 51 0 l 51 182 l 678 182 l 678 0 l 51 0 m 457 657 l 678 657 l 678 475 l 457 475 l 457 231 l 272 231 l 272 475 l 51 475 l 51 657 l 272 657 l 272 906 l 457 906 l 457 657 z "},"²":{"ha":504,"x_min":36,"x_max":456,"o":"m 456 578 l 46 578 l 46 718 l 178 863 q 231 927 211 901 q 258 971 250 953 q 265 1006 265 989 q 253 1037 265 1025 q 219 1049 242 1049 q 170 1035 194 1049 q 117 989 146 1021 l 36 1096 q 122 1160 67 1133 q 249 1188 176 1188 q 390 1142 342 1188 q 439 1026 439 1096 q 419 933 439 975 q 358 844 400 890 q 251 733 317 799 l 238 721 l 456 721 l 456 578 z "},"³":{"ha":504,"x_min":39,"x_max":456,"o":"m 242 1185 q 385 1146 331 1185 q 439 1039 439 1107 q 415 949 439 986 q 343 890 392 913 l 343 885 q 426 833 397 868 q 456 739 456 797 q 392 612 456 657 q 226 567 329 567 q 127 578 172 567 q 46 614 82 590 l 46 767 q 126 726 82 740 q 222 711 171 711 q 273 723 256 711 q 290 757 290 735 q 273 800 290 786 q 208 814 256 814 l 144 814 l 144 940 l 194 940 q 260 955 240 940 q 279 996 279 969 q 267 1033 279 1018 q 224 1047 256 1047 q 167 1036 193 1047 q 110 997 142 1025 l 39 1104 q 133 1163 82 1142 q 242 1185 183 1185 z "},"´":{"ha":504,"x_min":56,"x_max":449,"o":"m 449 1050 q 405 1006 432 1032 q 346 950 378 979 q 283 893 314 921 q 224 842 251 865 l 56 842 l 56 861 q 101 931 78 896 q 147 999 125 965 q 185 1064 168 1033 l 449 1064 l 449 1050 z "},"µ":{"ha":794,"x_min":75,"x_max":718,"o":"m 718 768 l 718 0 l 536 0 l 507 97 l 497 97 q 469 38 486 63 q 431 -1 451 13 q 386 -14 410 -14 q 340 0 357 -14 q 308 43 324 14 l 306 43 q 308 -3 307 24 q 311 -58 310 -29 q 313 -117 313 -87 l 313 -333 l 75 -333 l 75 768 l 313 768 l 313 344 q 328 228 313 268 q 383 189 344 189 q 446 219 425 189 q 474 302 467 250 q 481 421 481 354 l 481 768 l 718 768 z "},"¶":{"ha":764,"x_min":51,"x_max":689,"o":"m 689 -176 l 569 -176 l 569 933 l 481 933 l 481 -176 l 360 -176 l 360 379 q 328 370 344 374 q 289 367 311 367 q 158 403 211 367 q 78 514 106 439 q 51 707 51 589 q 80 905 51 828 q 166 1019 108 982 q 307 1056 224 1056 l 689 1056 l 689 -176 z "},"·":{"ha":386,"x_min":61,"x_max":324,"o":"m 61 489 q 97 587 61 554 q 194 619 133 619 q 290 587 256 619 q 324 489 324 554 q 289 392 324 425 q 194 360 254 360 q 99 392 136 360 q 61 489 61 425 z "},"¸":{"ha":258,"x_min":-26,"x_max":283,"o":"m 283 -174 q 236 -290 283 -246 q 104 -333 189 -333 q 33 -329 65 -333 q -26 -318 0 -325 l -26 -190 q 17 -200 -3 -197 q 54 -203 38 -203 q 94 -193 81 -203 q 107 -164 107 -183 q 83 -126 107 -140 q 14 -110 60 -112 l 60 0 l 172 0 l 156 -46 q 221 -67 192 -51 q 267 -110 250 -83 q 283 -174 283 -136 z "},"¹":{"ha":504,"x_min":43,"x_max":388,"o":"m 388 1172 l 388 578 l 215 578 l 215 819 q 216 869 215 842 q 218 922 217 896 q 222 972 219 949 q 203 952 213 961 q 186 936 194 943 l 126 886 l 43 994 l 251 1172 l 388 1172 z "},"º":{"ha":496,"x_min":31,"x_max":465,"o":"m 465 749 q 407 562 465 629 q 246 494 349 494 q 90 564 149 494 q 31 749 31 633 q 89 936 31 869 q 249 1003 147 1003 q 361 972 313 1003 q 438 885 410 942 q 465 749 465 829 m 192 749 q 206 657 192 688 q 249 626 219 626 q 291 657 278 626 q 304 749 304 688 q 291 841 304 810 q 249 872 278 872 q 206 841 219 872 q 192 749 192 810 z "},"»":{"ha":828,"x_min":42,"x_max":792,"o":"m 792 379 l 563 57 l 390 147 l 544 389 l 390 632 l 563 722 l 792 399 l 792 379 m 442 379 l 213 57 l 42 147 l 194 389 l 42 632 l 213 722 l 442 399 l 442 379 z "},"¼":{"ha":1196,"x_min":29,"x_max":1182,"o":"m 267 0 l 754 992 l 939 992 l 451 0 l 267 0 m 201 639 q 201 686 201 661 q 203 738 201 711 q 207 792 204 764 q 191 773 200 782 q 174 756 182 764 l 113 706 l 29 814 l 238 992 l 374 992 l 374 397 l 201 397 l 201 639 m 938 0 l 938 94 l 707 94 l 707 217 l 919 596 l 1104 596 l 1104 225 l 1182 225 l 1182 94 l 1104 94 l 1104 0 l 938 0 m 840 225 l 938 225 l 938 340 q 939 387 938 364 q 942 432 940 410 q 919 375 929 397 q 903 342 910 353 l 840 225 z "},"½":{"ha":1213,"x_min":29,"x_max":1164,"o":"m 254 0 l 743 992 l 928 992 l 439 0 l 254 0 m 201 639 q 201 674 201 654 q 203 715 201 693 q 206 756 204 736 q 207 792 207 775 q 191 772 200 782 q 172 756 182 763 l 113 706 l 29 814 l 238 992 l 374 992 l 374 397 l 201 397 l 201 639 m 753 0 l 753 140 l 885 281 q 940 343 921 318 q 967 387 960 368 q 975 425 975 406 q 963 458 975 446 q 926 471 950 471 q 876 456 901 471 q 825 411 851 442 l 744 518 q 833 584 778 558 q 956 610 888 610 q 1097 565 1047 610 q 1147 449 1147 519 q 1133 367 1147 403 q 1098 302 1119 331 q 1053 249 1076 274 l 946 143 l 1164 143 l 1164 0 l 753 0 z "},"¾":{"ha":1211,"x_min":43,"x_max":1196,"o":"m 283 0 l 772 992 l 957 992 l 468 0 l 283 0 m 231 386 q 131 398 176 386 q 50 433 86 410 l 50 586 q 129 545 85 560 q 226 531 174 531 q 278 542 261 531 q 294 576 294 554 q 275 621 294 608 q 213 633 256 633 l 149 633 l 149 760 l 199 760 q 263 774 242 760 q 283 815 283 788 q 272 852 283 838 q 228 867 260 867 q 172 856 197 867 q 114 817 146 844 l 43 924 q 140 984 89 964 q 246 1004 190 1004 q 388 966 333 1004 q 443 858 443 928 q 419 769 443 806 q 347 710 396 732 l 347 704 q 431 652 401 688 q 460 558 460 617 q 397 432 460 478 q 231 386 333 386 m 951 0 l 951 94 l 721 94 l 721 217 l 933 596 l 1119 596 l 1119 225 l 1196 225 l 1196 94 l 1119 94 l 1119 0 l 951 0 m 854 225 l 951 225 l 951 340 q 953 387 951 364 q 956 432 954 410 q 934 375 943 397 q 918 342 925 353 l 854 225 z "},"¿":{"ha":601,"x_min":21,"x_max":601,"o":"m 438 357 q 427 279 438 314 q 394 215 417 244 q 333 154 372 185 q 283 108 301 128 q 257 70 264 89 q 250 28 250 51 q 271 -21 250 -4 q 333 -37 292 -37 q 422 -19 374 -37 q 522 35 469 0 l 601 -144 q 460 -215 532 -190 q 311 -240 388 -240 q 96 -173 171 -240 q 21 7 21 -106 q 36 109 21 65 q 83 190 51 153 q 160 263 114 226 q 215 311 197 293 q 238 345 232 329 q 243 381 243 361 l 243 415 l 438 415 l 438 357 m 469 653 q 433 555 469 588 q 336 522 397 522 q 242 555 276 522 q 207 653 207 588 q 242 749 207 717 q 336 782 276 782 q 433 749 396 782 q 469 653 469 717 z "},"À":{"ha":861,"x_min":0,"x_max":861,"o":"m 596 0 l 554 192 l 308 192 l 267 0 l 0 0 l 267 993 l 592 993 l 861 0 l 596 0 m 472 603 q 458 676 465 638 q 443 754 450 715 q 431 822 436 793 q 422 756 428 793 q 407 681 415 719 q 392 606 399 642 l 350 399 l 513 399 l 472 603 m 479 1288 q 520 1220 496 1260 q 569 1143 544 1181 q 608 1085 593 1106 l 608 1065 l 440 1065 q 390 1109 421 1082 q 325 1167 358 1136 q 262 1227 292 1199 q 215 1274 232 1256 l 215 1288 l 479 1288 z "},"Á":{"ha":861,"x_min":0,"x_max":861,"o":"m 596 0 l 554 192 l 308 192 l 267 0 l 0 0 l 267 993 l 592 993 l 861 0 l 596 0 m 472 603 q 458 676 465 638 q 443 754 450 715 q 431 822 436 793 q 422 756 428 793 q 407 681 415 719 q 392 606 399 642 l 350 399 l 513 399 l 472 603 m 686 1274 q 642 1229 669 1256 q 583 1174 615 1203 q 520 1117 551 1144 q 461 1065 489 1089 l 293 1065 l 293 1085 q 339 1154 315 1119 q 384 1223 363 1189 q 422 1288 406 1257 l 686 1288 l 686 1274 z "},"Â":{"ha":861,"x_min":0,"x_max":861,"o":"m 596 0 l 554 192 l 308 192 l 267 0 l 0 0 l 267 993 l 592 993 l 861 0 l 596 0 m 472 603 q 458 676 465 638 q 443 754 450 715 q 431 822 436 793 q 422 756 428 793 q 407 681 415 719 q 392 606 399 642 l 350 399 l 513 399 l 472 603 m 543 1288 q 585 1222 563 1257 q 635 1153 608 1188 q 688 1085 661 1118 l 688 1065 l 540 1065 q 488 1108 515 1083 q 432 1167 461 1133 q 374 1108 400 1133 q 325 1065 349 1083 l 175 1065 l 175 1085 q 224 1147 196 1108 q 280 1223 253 1185 q 321 1288 307 1261 l 543 1288 z "},"Ã":{"ha":861,"x_min":0,"x_max":861,"o":"m 596 0 l 554 192 l 308 192 l 267 0 l 0 0 l 267 993 l 592 993 l 861 0 l 596 0 m 472 603 q 458 676 465 638 q 443 754 450 715 q 431 822 436 793 q 422 756 428 793 q 407 681 415 719 q 392 606 399 642 l 350 399 l 513 399 l 472 603 m 178 1063 q 186 1145 179 1104 q 208 1220 193 1186 q 249 1274 222 1254 q 315 1294 275 1294 q 371 1285 344 1294 q 424 1262 397 1275 q 475 1239 450 1249 q 525 1229 500 1229 q 551 1245 542 1229 q 568 1296 561 1261 l 686 1296 q 644 1122 683 1179 q 547 1064 604 1064 q 492 1074 521 1064 q 435 1097 463 1083 q 383 1119 407 1110 q 339 1129 358 1129 q 314 1115 328 1129 q 296 1063 300 1101 l 178 1063 z "},"Ä":{"ha":861,"x_min":0,"x_max":861,"o":"m 596 0 l 554 192 l 308 192 l 267 0 l 0 0 l 267 993 l 592 993 l 861 0 l 596 0 m 472 603 q 458 676 465 638 q 443 754 450 715 q 431 822 436 793 q 422 756 428 793 q 407 681 415 719 q 392 606 399 642 l 350 399 l 513 399 l 472 603 m 183 1182 q 213 1262 183 1235 q 288 1289 242 1289 q 364 1260 335 1289 q 393 1182 393 1232 q 364 1105 393 1133 q 288 1076 335 1076 q 213 1103 242 1076 q 183 1182 183 1131 m 469 1182 q 499 1262 469 1235 q 574 1289 528 1289 q 651 1260 622 1289 q 681 1182 681 1232 q 651 1105 681 1133 q 574 1076 622 1076 q 498 1104 526 1076 q 469 1182 469 1132 z "},"Å":{"ha":861,"x_min":0,"x_max":861,"o":"m 596 0 l 554 192 l 308 192 l 267 0 l 0 0 l 267 993 l 592 993 l 861 0 l 596 0 m 472 603 q 458 676 465 638 q 443 754 450 715 q 431 822 436 793 q 422 756 428 793 q 407 681 415 719 q 392 606 399 642 l 350 399 l 513 399 l 472 603 m 429 881 q 303 928 351 881 q 256 1051 256 976 q 303 1176 256 1128 q 429 1224 351 1224 q 556 1175 506 1224 q 606 1053 606 1126 q 556 929 606 978 q 429 881 507 881 m 429 996 q 469 1012 453 996 q 486 1053 486 1028 q 469 1094 486 1078 q 429 1110 453 1110 q 389 1094 406 1110 q 372 1053 372 1078 q 387 1012 372 1028 q 429 996 401 996 z "},"Æ":{"ha":1114,"x_min":-7,"x_max":1056,"o":"m 1056 0 l 546 0 l 546 192 l 322 192 l 264 0 l -7 0 l 336 992 l 1056 992 l 1056 788 l 789 788 l 789 615 l 1035 615 l 1035 411 l 789 411 l 789 207 l 1056 207 l 1056 0 m 385 400 l 546 400 l 546 783 l 499 783 l 385 400 z "},"Ç":{"ha":764,"x_min":60,"x_max":726,"o":"m 475 797 q 407 776 438 797 q 356 716 376 756 q 325 619 336 676 q 314 492 314 563 q 333 327 314 393 q 392 228 353 261 q 488 194 431 194 q 591 213 542 194 q 690 257 640 231 l 690 42 q 578 0 638 14 q 453 -14 519 -14 q 235 46 322 -14 q 103 219 147 106 q 60 493 60 333 q 87 701 60 607 q 166 863 114 794 q 292 969 218 932 q 463 1006 367 1006 q 596 989 529 1006 q 726 936 663 972 l 658 736 q 570 781 615 764 q 475 797 525 797 m 585 -174 q 538 -290 585 -246 q 406 -333 490 -333 q 334 -329 367 -333 q 275 -318 301 -325 l 275 -190 q 319 -200 299 -197 q 356 -203 339 -203 q 395 -193 382 -203 q 408 -164 408 -183 q 385 -126 408 -140 q 315 -110 361 -112 l 361 0 l 474 0 l 457 -46 q 522 -67 493 -51 q 568 -110 551 -83 q 585 -174 585 -136 z "},"È":{"ha":660,"x_min":89,"x_max":600,"o":"m 600 0 l 89 0 l 89 992 l 600 992 l 600 788 l 335 788 l 335 615 l 581 615 l 581 411 l 335 411 l 335 207 l 600 207 l 600 0 m 390 1288 q 431 1220 407 1260 q 480 1143 456 1181 q 519 1085 504 1106 l 519 1065 l 351 1065 q 301 1109 332 1082 q 236 1167 269 1136 q 173 1227 203 1199 q 126 1274 143 1256 l 126 1288 l 390 1288 z "},"É":{"ha":660,"x_min":89,"x_max":600,"o":"m 600 0 l 89 0 l 89 992 l 600 992 l 600 788 l 335 788 l 335 615 l 581 615 l 581 411 l 335 411 l 335 207 l 600 207 l 600 0 m 597 1274 q 553 1229 581 1256 q 494 1174 526 1203 q 431 1117 463 1144 q 372 1065 400 1089 l 204 1065 l 204 1085 q 250 1154 226 1119 q 295 1223 274 1189 q 333 1288 317 1257 l 597 1288 l 597 1274 z "},"Ê":{"ha":660,"x_min":86,"x_max":600,"o":"m 600 0 l 89 0 l 89 992 l 600 992 l 600 788 l 335 788 l 335 615 l 581 615 l 581 411 l 335 411 l 335 207 l 600 207 l 600 0 m 454 1288 q 497 1222 474 1257 q 546 1153 519 1188 q 599 1085 572 1118 l 599 1065 l 451 1065 q 399 1108 426 1083 q 343 1167 372 1133 q 285 1108 311 1133 q 236 1065 260 1083 l 86 1065 l 86 1085 q 135 1147 107 1108 q 191 1223 164 1185 q 232 1288 218 1261 l 454 1288 z "},"Ë":{"ha":660,"x_min":89,"x_max":600,"o":"m 600 0 l 89 0 l 89 992 l 600 992 l 600 788 l 335 788 l 335 615 l 581 615 l 581 411 l 335 411 l 335 207 l 600 207 l 600 0 m 94 1182 q 124 1262 94 1235 q 199 1289 153 1289 q 275 1260 246 1289 q 304 1182 304 1232 q 275 1105 304 1133 q 199 1076 246 1076 q 124 1103 153 1076 q 94 1182 94 1131 m 381 1182 q 410 1262 381 1235 q 485 1289 439 1289 q 563 1260 533 1289 q 592 1182 592 1232 q 563 1105 592 1133 q 485 1076 533 1076 q 409 1104 438 1076 q 381 1182 381 1132 z "},"Ì":{"ha":528,"x_min":39,"x_max":489,"o":"m 489 0 l 39 0 l 39 135 l 140 182 l 140 810 l 39 857 l 39 992 l 489 992 l 489 857 l 386 810 l 386 182 l 489 135 l 489 0 m 311 1288 q 352 1220 328 1260 q 401 1143 376 1181 q 440 1085 425 1106 l 440 1065 l 272 1065 q 222 1109 253 1082 q 157 1167 190 1136 q 94 1227 124 1199 q 47 1274 64 1256 l 47 1288 l 311 1288 z "},"Í":{"ha":528,"x_min":39,"x_max":519,"o":"m 489 0 l 39 0 l 39 135 l 140 182 l 140 810 l 39 857 l 39 992 l 489 992 l 489 857 l 386 810 l 386 182 l 489 135 l 489 0 m 518 1274 q 474 1229 501 1256 q 415 1174 447 1203 q 352 1117 383 1144 q 293 1065 321 1089 l 125 1065 l 125 1085 q 171 1154 147 1119 q 216 1223 194 1189 q 254 1288 238 1257 l 518 1288 l 518 1274 z "},"Î":{"ha":528,"x_min":7,"x_max":521,"o":"m 489 0 l 39 0 l 39 135 l 140 182 l 140 810 l 39 857 l 39 992 l 489 992 l 489 857 l 386 810 l 386 182 l 489 135 l 489 0 m 375 1288 q 417 1222 394 1257 q 467 1153 440 1188 q 519 1085 493 1118 l 519 1065 l 372 1065 q 320 1108 347 1083 q 264 1167 293 1133 q 206 1108 232 1133 q 157 1065 181 1083 l 7 1065 l 7 1085 q 56 1147 28 1108 q 112 1223 85 1185 q 153 1288 139 1261 l 375 1288 z "},"Ï":{"ha":528,"x_min":15,"x_max":511,"o":"m 489 0 l 39 0 l 39 135 l 140 182 l 140 810 l 39 857 l 39 992 l 489 992 l 489 857 l 386 810 l 386 182 l 489 135 l 489 0 m 15 1182 q 44 1262 15 1235 q 119 1289 74 1289 q 196 1260 167 1289 q 225 1182 225 1232 q 196 1105 225 1133 q 119 1076 167 1076 q 44 1103 74 1076 q 15 1182 15 1131 m 301 1182 q 331 1262 301 1235 q 406 1289 360 1289 q 483 1260 454 1289 q 513 1182 513 1232 q 483 1105 513 1133 q 406 1076 454 1076 q 330 1104 358 1076 q 301 1182 301 1132 z "},"Ð":{"ha":876,"x_min":6,"x_max":817,"o":"m 383 992 q 619 937 522 992 q 766 776 715 882 q 817 517 817 671 q 763 235 817 350 q 608 60 708 119 q 364 0 507 0 l 89 0 l 89 414 l 6 414 l 6 600 l 89 600 l 89 992 l 383 992 m 381 783 l 335 783 l 335 600 l 444 600 l 444 414 l 335 414 l 335 210 l 365 210 q 515 282 468 210 q 563 507 563 354 q 542 666 563 606 q 482 755 522 726 q 381 783 442 783 z "},"Ñ":{"ha":985,"x_min":89,"x_max":896,"o":"m 896 0 l 597 0 l 308 642 l 303 642 q 310 547 307 593 q 313 461 313 501 q 314 390 314 421 l 314 0 l 89 0 l 89 992 l 386 992 l 675 365 l 679 365 q 674 453 676 410 q 671 536 672 497 q 669 606 669 575 l 669 992 l 896 992 l 896 0 m 239 1063 q 247 1145 240 1104 q 269 1220 254 1186 q 310 1274 283 1254 q 376 1294 336 1294 q 432 1285 406 1294 q 485 1262 458 1275 q 536 1239 511 1249 q 586 1229 561 1229 q 613 1245 603 1229 q 629 1296 622 1261 l 747 1296 q 705 1122 744 1179 q 608 1064 665 1064 q 553 1074 582 1064 q 496 1097 524 1083 q 444 1119 468 1110 q 400 1129 419 1129 q 375 1115 389 1129 q 357 1063 361 1101 l 239 1063 z "},"Ò":{"ha":936,"x_min":60,"x_max":876,"o":"m 876 497 q 851 281 876 375 q 775 119 825 186 q 648 19 725 53 q 468 -14 571 -14 q 290 20 367 -14 q 162 120 214 54 q 85 281 110 186 q 60 499 60 376 q 105 774 60 661 q 242 947 150 888 q 468 1007 333 1007 q 697 948 606 1007 q 832 775 788 889 q 876 497 876 661 m 315 497 q 332 333 315 400 q 383 233 349 267 q 468 199 417 199 q 555 231 521 199 q 604 331 589 264 q 619 497 619 397 q 583 723 619 647 q 468 799 547 799 q 383 765 417 799 q 332 663 349 731 q 315 497 315 596 m 517 1288 q 558 1220 533 1260 q 606 1143 582 1181 q 646 1085 631 1106 l 646 1065 l 478 1065 q 427 1109 458 1082 q 363 1167 396 1136 q 299 1227 329 1199 q 253 1274 269 1256 l 253 1288 l 517 1288 z "},"Ó":{"ha":936,"x_min":60,"x_max":876,"o":"m 876 497 q 851 281 876 375 q 775 119 825 186 q 648 19 725 53 q 468 -14 571 -14 q 290 20 367 -14 q 162 120 214 54 q 85 281 110 186 q 60 499 60 376 q 105 774 60 661 q 242 947 150 888 q 468 1007 333 1007 q 697 948 606 1007 q 832 775 788 889 q 876 497 876 661 m 315 497 q 332 333 315 400 q 383 233 349 267 q 468 199 417 199 q 555 231 521 199 q 604 331 589 264 q 619 497 619 397 q 583 723 619 647 q 468 799 547 799 q 383 765 417 799 q 332 663 349 731 q 315 497 315 596 m 724 1274 q 680 1229 707 1256 q 621 1174 653 1203 q 558 1117 589 1144 q 499 1065 526 1089 l 331 1065 l 331 1085 q 376 1154 353 1119 q 422 1223 400 1189 q 460 1288 443 1257 l 724 1288 l 724 1274 z "},"Ô":{"ha":936,"x_min":60,"x_max":876,"o":"m 876 497 q 851 281 876 375 q 775 119 825 186 q 648 19 725 53 q 468 -14 571 -14 q 290 20 367 -14 q 162 120 214 54 q 85 281 110 186 q 60 499 60 376 q 105 774 60 661 q 242 947 150 888 q 468 1007 333 1007 q 697 948 606 1007 q 832 775 788 889 q 876 497 876 661 m 315 497 q 332 333 315 400 q 383 233 349 267 q 468 199 417 199 q 555 231 521 199 q 604 331 589 264 q 619 497 619 397 q 583 723 619 647 q 468 799 547 799 q 383 765 417 799 q 332 663 349 731 q 315 497 315 596 m 581 1288 q 623 1222 600 1257 q 672 1153 646 1188 q 725 1085 699 1118 l 725 1065 l 578 1065 q 526 1108 553 1083 q 469 1167 499 1133 q 412 1108 438 1133 q 363 1065 386 1083 l 213 1065 l 213 1085 q 262 1147 233 1108 q 317 1223 290 1185 q 358 1288 344 1261 l 581 1288 z "},"Õ":{"ha":936,"x_min":60,"x_max":876,"o":"m 876 497 q 851 281 876 375 q 775 119 825 186 q 648 19 725 53 q 468 -14 571 -14 q 290 20 367 -14 q 162 120 214 54 q 85 281 110 186 q 60 499 60 376 q 105 774 60 661 q 242 947 150 888 q 468 1007 333 1007 q 697 948 606 1007 q 832 775 788 889 q 876 497 876 661 m 315 497 q 332 333 315 400 q 383 233 349 267 q 468 199 417 199 q 555 231 521 199 q 604 331 589 264 q 619 497 619 397 q 583 723 619 647 q 468 799 547 799 q 383 765 417 799 q 332 663 349 731 q 315 497 315 596 m 215 1063 q 224 1145 217 1104 q 245 1220 231 1186 q 286 1274 260 1254 q 353 1294 313 1294 q 408 1285 382 1294 q 461 1262 435 1275 q 513 1239 488 1249 q 563 1229 538 1229 q 589 1245 579 1229 q 606 1296 599 1261 l 724 1296 q 681 1122 721 1179 q 585 1064 642 1064 q 529 1074 558 1064 q 472 1097 500 1083 q 420 1119 444 1110 q 376 1129 396 1129 q 351 1115 365 1129 q 333 1063 338 1101 l 215 1063 z "},"Ö":{"ha":936,"x_min":60,"x_max":876,"o":"m 876 497 q 851 281 876 375 q 775 119 825 186 q 648 19 725 53 q 468 -14 571 -14 q 290 20 367 -14 q 162 120 214 54 q 85 281 110 186 q 60 499 60 376 q 105 774 60 661 q 242 947 150 888 q 468 1007 333 1007 q 697 948 606 1007 q 832 775 788 889 q 876 497 876 661 m 315 497 q 332 333 315 400 q 383 233 349 267 q 468 199 417 199 q 555 231 521 199 q 604 331 589 264 q 619 497 619 397 q 583 723 619 647 q 468 799 547 799 q 383 765 417 799 q 332 663 349 731 q 315 497 315 596 m 219 1182 q 249 1262 219 1235 q 324 1289 278 1289 q 400 1260 371 1289 q 429 1182 429 1232 q 400 1105 429 1133 q 324 1076 371 1076 q 249 1103 278 1076 q 219 1182 219 1131 m 506 1182 q 535 1262 506 1235 q 610 1289 564 1289 q 688 1260 658 1289 q 717 1182 717 1232 q 688 1105 717 1133 q 610 1076 658 1076 q 534 1104 563 1076 q 506 1182 506 1132 z "},"×":{"ha":731,"x_min":65,"x_max":667,"o":"m 539 790 l 667 667 l 490 490 l 664 315 l 539 190 l 363 364 l 188 192 l 67 318 l 236 490 l 65 663 l 188 790 l 363 619 l 539 790 z "},"Ø":{"ha":936,"x_min":60,"x_max":876,"o":"m 876 497 q 851 281 876 375 q 775 119 825 186 q 648 19 725 53 q 468 -14 571 -14 q 373 -6 417 -14 q 290 18 329 3 l 243 -74 l 126 -12 l 183 94 q 88 272 115 172 q 60 499 60 372 q 105 774 60 661 q 242 947 150 888 q 468 1007 333 1007 q 569 998 522 1007 q 654 971 615 989 l 697 1050 l 813 990 l 760 893 q 848 728 819 828 q 876 497 876 628 m 625 497 q 615 632 625 574 l 392 215 q 426 198 407 204 q 468 192 446 192 q 557 226 522 192 q 608 329 592 261 q 625 497 625 397 m 311 497 q 314 415 311 453 q 324 346 317 378 l 551 771 q 514 795 535 788 q 468 803 493 803 q 380 768 415 803 q 328 665 344 733 q 311 497 311 597 z "},"Ù":{"ha":888,"x_min":85,"x_max":803,"o":"m 803 354 q 762 153 803 236 q 640 28 721 71 q 440 -14 560 -14 q 176 78 268 -14 q 85 349 85 169 l 85 992 l 331 992 l 331 363 q 359 236 331 274 q 443 199 388 199 q 509 215 483 199 q 546 267 535 231 q 557 364 557 303 l 557 992 l 803 992 l 803 354 m 492 1288 q 533 1220 508 1260 q 581 1143 557 1181 q 621 1085 606 1106 l 621 1065 l 453 1065 q 402 1109 433 1082 q 338 1167 371 1136 q 274 1227 304 1199 q 228 1274 244 1256 l 228 1288 l 492 1288 z "},"Ú":{"ha":888,"x_min":85,"x_max":803,"o":"m 803 354 q 762 153 803 236 q 640 28 721 71 q 440 -14 560 -14 q 176 78 268 -14 q 85 349 85 169 l 85 992 l 331 992 l 331 363 q 359 236 331 274 q 443 199 388 199 q 509 215 483 199 q 546 267 535 231 q 557 364 557 303 l 557 992 l 803 992 l 803 354 m 699 1274 q 655 1229 682 1256 q 596 1174 628 1203 q 533 1117 564 1144 q 474 1065 501 1089 l 306 1065 l 306 1085 q 351 1154 328 1119 q 397 1223 375 1189 q 435 1288 418 1257 l 699 1288 l 699 1274 z "},"Û":{"ha":888,"x_min":85,"x_max":803,"o":"m 803 354 q 762 153 803 236 q 640 28 721 71 q 440 -14 560 -14 q 176 78 268 -14 q 85 349 85 169 l 85 992 l 331 992 l 331 363 q 359 236 331 274 q 443 199 388 199 q 509 215 483 199 q 546 267 535 231 q 557 364 557 303 l 557 992 l 803 992 l 803 354 m 556 1288 q 598 1222 575 1257 q 647 1153 621 1188 q 700 1085 674 1118 l 700 1065 l 553 1065 q 501 1108 528 1083 q 444 1167 474 1133 q 387 1108 413 1133 q 338 1065 361 1083 l 188 1065 l 188 1085 q 237 1147 208 1108 q 292 1223 265 1185 q 333 1288 319 1261 l 556 1288 z "},"Ü":{"ha":888,"x_min":85,"x_max":803,"o":"m 803 354 q 762 153 803 236 q 640 28 721 71 q 440 -14 560 -14 q 176 78 268 -14 q 85 349 85 169 l 85 992 l 331 992 l 331 363 q 359 236 331 274 q 443 199 388 199 q 509 215 483 199 q 546 267 535 231 q 557 364 557 303 l 557 992 l 803 992 l 803 354 m 194 1182 q 224 1262 194 1235 q 299 1289 253 1289 q 375 1260 346 1289 q 404 1182 404 1232 q 375 1105 404 1133 q 299 1076 346 1076 q 224 1103 253 1076 q 194 1182 194 1131 m 481 1182 q 510 1262 481 1235 q 585 1289 539 1289 q 663 1260 633 1289 q 692 1182 692 1232 q 663 1105 692 1133 q 585 1076 633 1076 q 509 1104 538 1076 q 481 1182 481 1132 z "},"Ý":{"ha":788,"x_min":0,"x_max":788,"o":"m 394 629 l 531 992 l 788 992 l 517 382 l 517 0 l 271 0 l 271 374 l 0 992 l 260 992 l 394 629 m 649 1274 q 605 1229 632 1256 q 546 1174 578 1203 q 483 1117 514 1144 q 424 1065 451 1089 l 256 1065 l 256 1085 q 301 1154 278 1119 q 347 1223 325 1189 q 385 1288 368 1257 l 649 1288 l 649 1274 z "},"Þ":{"ha":747,"x_min":89,"x_max":717,"o":"m 717 532 q 699 399 717 463 q 642 288 681 336 q 542 213 604 240 q 392 185 479 185 l 335 185 l 335 0 l 89 0 l 89 992 l 335 992 l 335 847 l 396 847 q 637 765 557 847 q 717 532 717 683 m 367 389 q 422 403 399 389 q 458 449 444 418 q 472 531 472 481 q 451 614 472 586 q 383 642 429 642 l 335 642 l 335 389 l 367 389 z "},"ß":{"ha":882,"x_min":76,"x_max":847,"o":"m 772 810 q 757 722 772 758 q 719 660 742 686 q 675 617 697 635 q 638 583 653 599 q 622 547 622 567 q 633 522 622 535 q 663 493 643 508 q 715 456 683 478 q 786 397 757 428 q 831 326 815 365 q 847 233 847 286 q 816 97 847 153 q 725 14 785 42 q 578 -14 665 -14 q 472 -5 521 -14 q 378 26 422 4 l 378 232 q 429 203 401 215 q 485 183 457 190 q 536 176 513 176 q 587 188 569 176 q 604 221 604 200 q 597 251 604 238 q 569 283 590 265 q 503 328 547 300 q 426 394 453 361 q 389 459 399 426 q 379 524 379 492 q 394 594 379 565 q 433 646 410 624 q 479 689 456 668 q 518 734 503 710 q 533 790 533 758 q 508 847 533 822 q 429 871 482 871 q 365 853 390 871 q 326 803 339 836 q 313 718 313 769 l 313 0 l 76 0 l 76 746 q 120 915 76 844 q 244 1024 164 986 q 429 1063 324 1063 q 606 1033 529 1063 q 728 948 683 1004 q 772 810 772 892 z "},"à":{"ha":740,"x_min":39,"x_max":665,"o":"m 399 782 q 594 713 524 782 q 665 504 665 643 l 665 0 l 497 0 l 456 101 l 450 101 q 394 37 424 63 q 328 -1 365 11 q 236 -14 290 -14 q 127 19 171 -14 q 61 109 83 53 q 39 235 39 165 q 111 419 39 358 q 319 485 183 479 l 428 489 l 428 506 q 408 577 428 554 q 349 600 388 600 q 267 585 313 600 q 169 543 222 571 l 106 713 q 239 764 165 746 q 399 782 313 782 m 382 340 q 303 315 328 339 q 278 246 278 290 q 294 188 278 207 q 339 168 310 168 q 403 199 376 168 q 429 278 429 229 l 429 343 l 382 340 m 428 1064 q 469 997 444 1036 q 517 919 493 957 q 557 861 542 882 l 557 842 l 389 842 q 338 885 369 858 q 274 944 307 913 q 210 1003 240 975 q 164 1050 181 1032 l 164 1064 l 428 1064 z "},"á":{"ha":740,"x_min":39,"x_max":665,"o":"m 399 782 q 594 713 524 782 q 665 504 665 643 l 665 0 l 497 0 l 456 101 l 450 101 q 394 37 424 63 q 328 -1 365 11 q 236 -14 290 -14 q 127 19 171 -14 q 61 109 83 53 q 39 235 39 165 q 111 419 39 358 q 319 485 183 479 l 428 489 l 428 506 q 408 577 428 554 q 349 600 388 600 q 267 585 313 600 q 169 543 222 571 l 106 713 q 239 764 165 746 q 399 782 313 782 m 382 340 q 303 315 328 339 q 278 246 278 290 q 294 188 278 207 q 339 168 310 168 q 403 199 376 168 q 429 278 429 229 l 429 343 l 382 340 m 635 1050 q 591 1006 618 1032 q 532 950 564 979 q 469 893 500 921 q 410 842 438 865 l 242 842 l 242 861 q 288 931 264 896 q 333 999 311 965 q 371 1064 354 1033 l 635 1064 l 635 1050 z "},"â":{"ha":740,"x_min":39,"x_max":665,"o":"m 399 782 q 594 713 524 782 q 665 504 665 643 l 665 0 l 497 0 l 456 101 l 450 101 q 394 37 424 63 q 328 -1 365 11 q 236 -14 290 -14 q 127 19 171 -14 q 61 109 83 53 q 39 235 39 165 q 111 419 39 358 q 319 485 183 479 l 428 489 l 428 506 q 408 577 428 554 q 349 600 388 600 q 267 585 313 600 q 169 543 222 571 l 106 713 q 239 764 165 746 q 399 782 313 782 m 382 340 q 303 315 328 339 q 278 246 278 290 q 294 188 278 207 q 339 168 310 168 q 403 199 376 168 q 429 278 429 229 l 429 343 l 382 340 m 492 1064 q 534 999 511 1033 q 583 929 557 964 q 636 861 610 894 l 636 842 l 489 842 q 437 885 464 860 q 381 943 410 910 q 323 885 349 910 q 274 842 297 860 l 124 842 l 124 861 q 173 923 144 885 q 228 999 201 961 q 269 1064 256 1038 l 492 1064 z "},"ã":{"ha":740,"x_min":39,"x_max":665,"o":"m 399 782 q 594 713 524 782 q 665 504 665 643 l 665 0 l 497 0 l 456 101 l 450 101 q 394 37 424 63 q 328 -1 365 11 q 236 -14 290 -14 q 127 19 171 -14 q 61 109 83 53 q 39 235 39 165 q 111 419 39 358 q 319 485 183 479 l 428 489 l 428 506 q 408 577 428 554 q 349 600 388 600 q 267 585 313 600 q 169 543 222 571 l 106 713 q 239 764 165 746 q 399 782 313 782 m 382 340 q 303 315 328 339 q 278 246 278 290 q 294 188 278 207 q 339 168 310 168 q 403 199 376 168 q 429 278 429 229 l 429 343 l 382 340 m 126 839 q 135 922 128 881 q 156 997 142 963 q 197 1051 171 1031 q 264 1071 224 1071 q 319 1061 293 1071 q 372 1038 346 1051 q 424 1015 399 1025 q 474 1006 449 1006 q 500 1022 490 1006 q 517 1072 510 1038 l 635 1072 q 592 898 632 956 q 496 840 553 840 q 440 850 469 840 q 383 873 411 860 q 331 896 356 886 q 288 906 307 906 q 263 892 276 906 q 244 839 249 878 l 126 839 z "},"ä":{"ha":740,"x_min":39,"x_max":665,"o":"m 399 782 q 594 713 524 782 q 665 504 665 643 l 665 0 l 497 0 l 456 101 l 450 101 q 394 37 424 63 q 328 -1 365 11 q 236 -14 290 -14 q 127 19 171 -14 q 61 109 83 53 q 39 235 39 165 q 111 419 39 358 q 319 485 183 479 l 428 489 l 428 506 q 408 577 428 554 q 349 600 388 600 q 267 585 313 600 q 169 543 222 571 l 106 713 q 239 764 165 746 q 399 782 313 782 m 382 340 q 303 315 328 339 q 278 246 278 290 q 294 188 278 207 q 339 168 310 168 q 403 199 376 168 q 429 278 429 229 l 429 343 l 382 340 m 132 958 q 161 1038 132 1011 q 236 1065 190 1065 q 313 1037 283 1065 q 342 958 342 1008 q 313 881 342 910 q 236 853 283 853 q 161 880 190 853 q 132 958 132 907 m 418 958 q 447 1038 418 1011 q 522 1065 476 1065 q 600 1037 571 1065 q 629 958 629 1008 q 600 881 629 910 q 522 853 571 853 q 447 881 475 853 q 418 958 418 908 z "},"å":{"ha":740,"x_min":39,"x_max":665,"o":"m 399 782 q 594 713 524 782 q 665 504 665 643 l 665 0 l 497 0 l 456 101 l 450 101 q 394 37 424 63 q 328 -1 365 11 q 236 -14 290 -14 q 127 19 171 -14 q 61 109 83 53 q 39 235 39 165 q 111 419 39 358 q 319 485 183 479 l 428 489 l 428 506 q 408 577 428 554 q 349 600 388 600 q 267 585 313 600 q 169 543 222 571 l 106 713 q 239 764 165 746 q 399 782 313 782 m 382 340 q 303 315 328 339 q 278 246 278 290 q 294 188 278 207 q 339 168 310 168 q 403 199 376 168 q 429 278 429 229 l 429 343 l 382 340 m 378 839 q 252 887 300 839 q 204 1010 204 935 q 252 1134 204 1086 q 378 1182 300 1182 q 504 1133 454 1182 q 554 1011 554 1085 q 505 888 554 936 q 378 839 456 839 m 378 954 q 418 970 401 954 q 435 1011 435 986 q 418 1052 435 1036 q 378 1068 401 1068 q 338 1052 354 1068 q 321 1011 321 1036 q 335 970 321 986 q 378 954 350 954 z "},"æ":{"ha":1094,"x_min":39,"x_max":1050,"o":"m 750 781 q 911 740 844 781 q 1014 622 978 700 q 1050 431 1050 544 l 1050 313 l 653 313 q 688 205 653 242 q 796 168 724 168 q 901 181 850 168 q 1008 228 953 194 l 1008 42 q 900 -1 957 13 q 767 -14 843 -14 q 665 -1 714 -14 q 574 39 615 13 q 506 108 533 65 q 434 39 471 67 q 354 -1 397 11 q 256 -14 311 -14 q 138 19 186 -14 q 64 110 89 53 q 39 236 39 167 q 73 373 39 319 q 169 454 107 426 q 321 485 232 482 l 428 489 l 428 507 q 407 578 428 556 q 350 600 386 600 q 267 586 313 600 q 169 544 222 572 l 107 713 q 233 765 164 747 q 371 782 301 782 q 478 765 432 782 q 557 717 525 749 q 640 765 594 749 q 750 781 686 781 m 382 340 q 303 314 328 339 q 278 243 278 289 q 294 187 278 206 q 339 168 310 168 q 384 182 364 168 q 417 221 404 196 q 429 278 429 246 l 429 343 l 382 340 m 746 606 q 681 576 707 606 q 654 474 656 546 l 833 474 q 823 547 833 518 q 793 591 813 576 q 746 606 774 606 z "},"ç":{"ha":646,"x_min":49,"x_max":613,"o":"m 379 -14 q 199 28 272 -14 q 87 157 125 69 q 49 381 49 244 q 88 592 49 501 q 201 732 126 682 q 389 782 276 782 q 509 767 454 782 q 613 724 564 753 l 547 539 q 474 574 510 563 q 399 585 438 585 q 341 562 365 585 q 303 494 317 539 q 289 381 289 449 q 302 270 289 314 q 341 205 315 226 q 404 183 367 183 q 499 201 451 183 q 592 251 547 218 l 592 54 q 495 3 547 21 q 379 -14 443 -14 m 529 -174 q 482 -290 529 -246 q 350 -333 435 -333 q 278 -329 311 -333 q 219 -318 246 -325 l 219 -190 q 263 -200 243 -197 q 300 -203 283 -203 q 340 -193 326 -203 q 353 -164 353 -183 q 329 -126 353 -140 q 260 -110 306 -112 l 306 0 l 418 0 l 401 -46 q 467 -67 438 -51 q 513 -110 496 -83 q 529 -174 529 -136 z "},"è":{"ha":726,"x_min":49,"x_max":682,"o":"m 371 781 q 538 740 468 781 q 645 622 608 700 q 682 431 682 544 l 682 313 l 283 313 q 319 205 285 242 q 425 168 354 168 q 533 182 483 168 q 640 228 583 196 l 640 42 q 529 -1 589 13 q 393 -14 469 -14 q 203 30 279 -14 q 88 162 126 74 q 49 381 49 250 q 86 601 49 513 q 196 735 124 690 q 371 781 268 781 m 378 606 q 313 575 339 606 q 285 474 288 544 l 464 474 q 453 547 464 518 q 424 591 443 576 q 378 606 404 606 m 415 1064 q 456 997 432 1036 q 505 919 481 957 q 544 861 529 882 l 544 842 l 376 842 q 326 885 357 858 q 261 944 294 913 q 198 1003 228 975 q 151 1050 168 1032 l 151 1064 l 415 1064 z "},"é":{"ha":726,"x_min":49,"x_max":682,"o":"m 371 781 q 538 740 468 781 q 645 622 608 700 q 682 431 682 544 l 682 313 l 283 313 q 319 205 285 242 q 425 168 354 168 q 533 182 483 168 q 640 228 583 196 l 640 42 q 529 -1 589 13 q 393 -14 469 -14 q 203 30 279 -14 q 88 162 126 74 q 49 381 49 250 q 86 601 49 513 q 196 735 124 690 q 371 781 268 781 m 378 606 q 313 575 339 606 q 285 474 288 544 l 464 474 q 453 547 464 518 q 424 591 443 576 q 378 606 404 606 m 622 1050 q 578 1006 606 1032 q 519 950 551 979 q 456 893 488 921 q 397 842 425 865 l 229 842 l 229 861 q 275 931 251 896 q 320 999 299 965 q 358 1064 342 1033 l 622 1064 l 622 1050 z "},"ê":{"ha":726,"x_min":49,"x_max":682,"o":"m 371 781 q 538 740 468 781 q 645 622 608 700 q 682 431 682 544 l 682 313 l 283 313 q 319 205 285 242 q 425 168 354 168 q 533 182 483 168 q 640 228 583 196 l 640 42 q 529 -1 589 13 q 393 -14 469 -14 q 203 30 279 -14 q 88 162 126 74 q 49 381 49 250 q 86 601 49 513 q 196 735 124 690 q 371 781 268 781 m 378 606 q 313 575 339 606 q 285 474 288 544 l 464 474 q 453 547 464 518 q 424 591 443 576 q 378 606 404 606 m 479 1064 q 522 999 499 1033 q 571 929 544 964 q 624 861 597 894 l 624 842 l 476 842 q 424 885 451 860 q 368 943 397 910 q 310 885 336 910 q 261 842 285 860 l 111 842 l 111 861 q 160 923 132 885 q 216 999 189 961 q 257 1064 243 1038 l 479 1064 z "},"ë":{"ha":726,"x_min":49,"x_max":682,"o":"m 371 781 q 538 740 468 781 q 645 622 608 700 q 682 431 682 544 l 682 313 l 283 313 q 319 205 285 242 q 425 168 354 168 q 533 182 483 168 q 640 228 583 196 l 640 42 q 529 -1 589 13 q 393 -14 469 -14 q 203 30 279 -14 q 88 162 126 74 q 49 381 49 250 q 86 601 49 513 q 196 735 124 690 q 371 781 268 781 m 378 606 q 313 575 339 606 q 285 474 288 544 l 464 474 q 453 547 464 518 q 424 591 443 576 q 378 606 404 606 m 119 958 q 149 1038 119 1011 q 224 1065 178 1065 q 300 1037 271 1065 q 329 958 329 1008 q 300 881 329 910 q 224 853 271 853 q 149 880 178 853 q 119 958 119 907 m 406 958 q 435 1038 406 1011 q 510 1065 464 1065 q 588 1037 558 1065 q 617 958 617 1008 q 588 881 617 910 q 510 853 558 853 q 434 881 463 853 q 406 958 406 908 z "},"ì":{"ha":393,"x_min":-19,"x_max":374,"o":"m 314 0 l 78 0 l 78 768 l 314 768 l 314 0 m 244 1064 q 285 997 261 1036 q 334 919 310 957 q 374 861 358 882 l 374 842 l 206 842 q 155 885 186 858 q 90 944 124 913 q 27 1003 57 975 q -19 1050 -3 1032 l -19 1064 l 244 1064 z "},"í":{"ha":393,"x_min":58,"x_max":451,"o":"m 314 0 l 78 0 l 78 768 l 314 768 l 314 0 m 451 1050 q 408 1006 435 1032 q 349 950 381 979 q 285 893 317 921 q 226 842 254 865 l 58 842 l 58 861 q 104 931 81 896 q 149 999 128 965 q 188 1064 171 1033 l 451 1064 l 451 1050 z "},"î":{"ha":393,"x_min":-60,"x_max":453,"o":"m 314 0 l 78 0 l 78 768 l 314 768 l 314 0 m 308 1064 q 351 999 328 1033 q 400 929 374 964 q 453 861 426 894 l 453 842 l 306 842 q 253 885 281 860 q 197 943 226 910 q 140 885 165 910 q 90 842 114 860 l -60 842 l -60 861 q -10 923 -39 885 q 45 999 18 961 q 86 1064 72 1038 l 308 1064 z "},"ï":{"ha":393,"x_min":-51,"x_max":444,"o":"m 314 0 l 78 0 l 78 768 l 314 768 l 314 0 m -53 958 q -24 1038 -53 1011 q 51 1065 6 1065 q 128 1037 99 1065 q 157 958 157 1008 q 128 881 157 910 q 51 853 99 853 q -24 880 6 853 q -53 958 -53 907 m 233 958 q 263 1038 233 1011 q 338 1065 292 1065 q 415 1037 386 1065 q 444 958 444 1008 q 415 881 444 910 q 338 853 386 853 q 262 881 290 853 q 233 958 233 908 z "},"ð":{"ha":768,"x_min":49,"x_max":717,"o":"m 300 1067 q 368 1031 335 1050 q 433 988 401 1011 l 539 1068 l 621 958 l 538 894 q 635 761 594 833 q 696 599 675 689 q 717 388 717 508 q 677 174 717 264 q 563 35 638 83 q 382 -14 488 -14 q 207 28 282 -14 q 90 150 132 71 q 49 339 49 229 q 89 529 49 451 q 196 647 129 607 q 340 688 263 688 q 385 685 365 688 q 420 676 404 682 q 447 661 436 671 l 450 664 q 424 719 440 692 q 383 775 407 747 l 290 704 l 208 813 l 294 881 q 253 913 275 896 q 210 943 232 929 l 300 1067 m 383 499 q 330 481 351 499 q 299 428 308 464 q 290 338 290 393 q 299 249 290 285 q 330 193 308 213 q 383 174 351 174 q 456 217 435 174 q 476 347 476 261 q 472 410 476 382 q 456 458 467 439 q 426 488 444 478 q 383 499 408 499 z "},"ñ":{"ha":793,"x_min":76,"x_max":719,"o":"m 490 782 q 658 710 596 782 q 719 500 719 639 l 719 0 l 482 0 l 482 425 q 467 540 482 501 q 407 579 451 579 q 332 526 351 579 q 313 347 313 472 l 313 0 l 76 0 l 76 768 l 260 768 l 288 672 l 300 672 q 347 733 319 708 q 410 769 374 757 q 490 782 446 782 m 153 839 q 161 922 154 881 q 183 997 168 963 q 224 1051 197 1031 q 290 1071 250 1071 q 346 1061 319 1071 q 399 1038 372 1051 q 450 1015 425 1025 q 500 1006 475 1006 q 526 1022 517 1006 q 543 1072 536 1038 l 661 1072 q 619 898 658 956 q 522 840 579 840 q 467 850 496 840 q 410 873 438 860 q 358 896 382 886 q 314 906 333 906 q 289 892 303 906 q 271 839 275 878 l 153 839 z "},"ò":{"ha":767,"x_min":49,"x_max":717,"o":"m 717 386 q 698 233 717 306 q 639 106 679 161 q 535 18 599 50 q 382 -14 471 -14 q 238 17 300 -14 q 133 103 175 49 q 69 231 90 158 q 49 386 49 304 q 85 592 49 503 q 195 731 121 681 q 385 782 269 782 q 558 735 483 782 q 675 601 633 689 q 717 386 717 513 m 289 385 q 299 270 289 317 q 330 200 308 224 q 383 176 351 176 q 438 200 418 176 q 467 270 458 224 q 476 386 476 317 q 467 501 476 456 q 438 569 458 546 q 383 592 418 592 q 312 541 335 592 q 289 385 289 490 m 432 1064 q 473 997 449 1036 q 522 919 497 957 q 561 861 546 882 l 561 842 l 393 842 q 342 885 374 858 q 278 944 311 913 q 215 1003 244 975 q 168 1050 185 1032 l 168 1064 l 432 1064 z "},"ó":{"ha":767,"x_min":49,"x_max":717,"o":"m 717 386 q 698 233 717 306 q 639 106 679 161 q 535 18 599 50 q 382 -14 471 -14 q 238 17 300 -14 q 133 103 175 49 q 69 231 90 158 q 49 386 49 304 q 85 592 49 503 q 195 731 121 681 q 385 782 269 782 q 558 735 483 782 q 675 601 633 689 q 717 386 717 513 m 289 385 q 299 270 289 317 q 330 200 308 224 q 383 176 351 176 q 438 200 418 176 q 467 270 458 224 q 476 386 476 317 q 467 501 476 456 q 438 569 458 546 q 383 592 418 592 q 312 541 335 592 q 289 385 289 490 m 639 1050 q 595 1006 622 1032 q 536 950 568 979 q 473 893 504 921 q 414 842 442 865 l 246 842 l 246 861 q 292 931 268 896 q 337 999 315 965 q 375 1064 358 1033 l 639 1064 l 639 1050 z "},"ô":{"ha":767,"x_min":49,"x_max":717,"o":"m 717 386 q 698 233 717 306 q 639 106 679 161 q 535 18 599 50 q 382 -14 471 -14 q 238 17 300 -14 q 133 103 175 49 q 69 231 90 158 q 49 386 49 304 q 85 592 49 503 q 195 731 121 681 q 385 782 269 782 q 558 735 483 782 q 675 601 633 689 q 717 386 717 513 m 289 385 q 299 270 289 317 q 330 200 308 224 q 383 176 351 176 q 438 200 418 176 q 467 270 458 224 q 476 386 476 317 q 467 501 476 456 q 438 569 458 546 q 383 592 418 592 q 312 541 335 592 q 289 385 289 490 m 496 1064 q 538 999 515 1033 q 588 929 561 964 q 640 861 614 894 l 640 842 l 493 842 q 441 885 468 860 q 385 943 414 910 q 327 885 353 910 q 278 842 301 860 l 128 842 l 128 861 q 177 923 149 885 q 233 999 206 961 q 274 1064 260 1038 l 496 1064 z "},"õ":{"ha":767,"x_min":49,"x_max":717,"o":"m 717 386 q 698 233 717 306 q 639 106 679 161 q 535 18 599 50 q 382 -14 471 -14 q 238 17 300 -14 q 133 103 175 49 q 69 231 90 158 q 49 386 49 304 q 85 592 49 503 q 195 731 121 681 q 385 782 269 782 q 558 735 483 782 q 675 601 633 689 q 717 386 717 513 m 289 385 q 299 270 289 317 q 330 200 308 224 q 383 176 351 176 q 438 200 418 176 q 467 270 458 224 q 476 386 476 317 q 467 501 476 456 q 438 569 458 546 q 383 592 418 592 q 312 541 335 592 q 289 385 289 490 m 131 839 q 139 922 132 881 q 160 997 146 963 q 201 1051 175 1031 q 268 1071 228 1071 q 324 1061 297 1071 q 376 1038 350 1051 q 428 1015 403 1025 q 478 1006 453 1006 q 504 1022 494 1006 q 521 1072 514 1038 l 639 1072 q 597 898 636 956 q 500 840 557 840 q 444 850 474 840 q 388 873 415 860 q 335 896 360 886 q 292 906 311 906 q 267 892 281 906 q 249 839 253 878 l 131 839 z "},"ö":{"ha":767,"x_min":49,"x_max":717,"o":"m 717 386 q 698 233 717 306 q 639 106 679 161 q 535 18 599 50 q 382 -14 471 -14 q 238 17 300 -14 q 133 103 175 49 q 69 231 90 158 q 49 386 49 304 q 85 592 49 503 q 195 731 121 681 q 385 782 269 782 q 558 735 483 782 q 675 601 633 689 q 717 386 717 513 m 289 385 q 299 270 289 317 q 330 200 308 224 q 383 176 351 176 q 438 200 418 176 q 467 270 458 224 q 476 386 476 317 q 467 501 476 456 q 438 569 458 546 q 383 592 418 592 q 312 541 335 592 q 289 385 289 490 m 135 958 q 164 1038 135 1011 q 239 1065 193 1065 q 315 1037 286 1065 q 344 958 344 1008 q 315 881 344 910 q 239 853 286 853 q 164 880 193 853 q 135 958 135 907 m 421 958 q 450 1038 421 1011 q 525 1065 479 1065 q 603 1037 574 1065 q 632 958 632 1008 q 603 881 632 910 q 525 853 574 853 q 449 881 478 853 q 421 958 421 908 z "},"÷":{"ha":731,"x_min":51,"x_max":678,"o":"m 51 399 l 51 581 l 678 581 l 678 399 l 51 399 m 365 100 q 286 130 317 100 q 256 219 256 160 q 285 307 256 278 q 365 336 314 336 q 444 307 415 336 q 474 219 474 278 q 444 131 474 161 q 365 100 414 100 m 365 643 q 286 673 317 643 q 256 761 256 703 q 285 850 256 821 q 365 879 314 879 q 444 850 415 879 q 474 761 474 821 q 444 674 474 704 q 365 643 414 643 z "},"ø":{"ha":779,"x_min":49,"x_max":729,"o":"m 729 386 q 689 171 729 261 q 572 33 649 81 q 388 -14 496 -14 q 319 -8 351 -14 q 257 10 286 -1 l 210 -79 l 100 -24 l 156 78 q 75 215 101 139 q 49 386 49 290 q 140 678 49 575 q 390 782 231 782 q 460 776 428 782 q 522 757 493 769 l 563 831 l 671 775 l 625 688 q 702 560 675 638 q 729 386 729 482 m 275 385 q 276 338 275 360 q 281 297 278 317 l 440 590 q 417 601 429 599 q 389 604 404 604 q 302 550 329 604 q 275 385 275 496 m 503 386 q 502 428 503 408 q 499 467 501 449 l 342 176 q 363 166 351 169 q 389 163 375 163 q 458 188 433 163 q 492 264 482 214 q 503 386 503 314 z "},"ù":{"ha":793,"x_min":75,"x_max":717,"o":"m 717 768 l 717 0 l 535 0 l 507 94 l 494 94 q 446 34 474 58 q 383 -2 418 10 q 304 -14 347 -14 q 183 18 235 -14 q 103 113 131 50 q 75 268 75 176 l 75 768 l 311 768 l 311 343 q 327 228 311 268 q 381 189 343 189 q 445 215 424 189 q 474 288 467 240 q 481 401 481 336 l 481 768 l 717 768 m 444 1064 q 485 997 461 1036 q 534 919 510 957 q 574 861 558 882 l 574 842 l 406 842 q 355 885 386 858 q 290 944 324 913 q 227 1003 257 975 q 181 1050 197 1032 l 181 1064 l 444 1064 z "},"ú":{"ha":793,"x_min":75,"x_max":717,"o":"m 717 768 l 717 0 l 535 0 l 507 94 l 494 94 q 446 34 474 58 q 383 -2 418 10 q 304 -14 347 -14 q 183 18 235 -14 q 103 113 131 50 q 75 268 75 176 l 75 768 l 311 768 l 311 343 q 327 228 311 268 q 381 189 343 189 q 445 215 424 189 q 474 288 467 240 q 481 401 481 336 l 481 768 l 717 768 m 651 1050 q 608 1006 635 1032 q 549 950 581 979 q 485 893 517 921 q 426 842 454 865 l 258 842 l 258 861 q 304 931 281 896 q 349 999 328 965 q 388 1064 371 1033 l 651 1064 l 651 1050 z "},"û":{"ha":793,"x_min":75,"x_max":717,"o":"m 717 768 l 717 0 l 535 0 l 507 94 l 494 94 q 446 34 474 58 q 383 -2 418 10 q 304 -14 347 -14 q 183 18 235 -14 q 103 113 131 50 q 75 268 75 176 l 75 768 l 311 768 l 311 343 q 327 228 311 268 q 381 189 343 189 q 445 215 424 189 q 474 288 467 240 q 481 401 481 336 l 481 768 l 717 768 m 508 1064 q 551 999 528 1033 q 600 929 574 964 q 653 861 626 894 l 653 842 l 506 842 q 453 885 481 860 q 397 943 426 910 q 340 885 365 910 q 290 842 314 860 l 140 842 l 140 861 q 190 923 161 885 q 245 999 218 961 q 286 1064 272 1038 l 508 1064 z "},"ü":{"ha":793,"x_min":75,"x_max":717,"o":"m 717 768 l 717 0 l 535 0 l 507 94 l 494 94 q 446 34 474 58 q 383 -2 418 10 q 304 -14 347 -14 q 183 18 235 -14 q 103 113 131 50 q 75 268 75 176 l 75 768 l 311 768 l 311 343 q 327 228 311 268 q 381 189 343 189 q 445 215 424 189 q 474 288 467 240 q 481 401 481 336 l 481 768 l 717 768 m 149 958 q 178 1038 149 1011 q 253 1065 207 1065 q 329 1037 300 1065 q 358 958 358 1008 q 329 881 358 910 q 253 853 300 853 q 178 880 207 853 q 149 958 149 907 m 435 958 q 464 1038 435 1011 q 539 1065 493 1065 q 617 1037 588 1065 q 646 958 646 1008 q 617 881 646 910 q 539 853 588 853 q 463 881 492 853 q 435 958 435 908 z "},"ý":{"ha":732,"x_min":1,"x_max":729,"o":"m 1 768 l 250 768 l 346 403 q 356 363 351 383 q 363 323 360 342 q 365 288 365 304 l 371 288 q 379 340 374 313 q 393 400 385 367 l 485 768 l 729 768 l 476 -49 q 403 -212 444 -150 q 306 -304 363 -275 q 171 -333 250 -333 q 117 -331 142 -333 q 71 -322 92 -328 l 71 -122 q 101 -128 85 -125 q 133 -131 117 -131 q 186 -119 167 -131 q 221 -78 206 -107 q 251 -1 236 -50 l 254 11 l 1 768 m 621 1050 q 577 1006 604 1032 q 518 950 550 979 q 455 893 486 921 q 396 842 424 865 l 228 842 l 228 861 q 274 931 250 896 q 319 999 297 965 q 357 1064 340 1033 l 621 1064 l 621 1050 z "},"þ":{"ha":778,"x_min":76,"x_max":728,"o":"m 728 383 q 698 169 728 258 q 614 33 668 81 q 488 -14 560 -14 q 418 -2 450 -14 q 360 33 386 10 q 313 92 333 57 l 306 92 q 310 38 308 63 q 312 -8 311 13 q 313 -43 313 -28 l 313 -333 l 76 -333 l 76 1056 l 313 1056 l 313 824 q 310 742 313 781 q 304 669 308 703 l 313 669 q 363 737 338 713 q 418 772 388 761 q 488 782 449 782 q 663 677 597 782 q 728 383 728 572 m 488 382 q 467 538 488 486 q 406 589 447 589 q 335 544 356 589 q 313 401 314 500 l 313 365 q 334 229 313 274 q 406 185 356 185 q 453 207 435 185 q 479 273 471 229 q 488 382 488 317 z "},"ÿ":{"ha":732,"x_min":1,"x_max":729,"o":"m 1 768 l 250 768 l 346 403 q 356 363 351 383 q 363 323 360 342 q 365 288 365 304 l 371 288 q 379 340 374 313 q 393 400 385 367 l 485 768 l 729 768 l 476 -49 q 403 -212 444 -150 q 306 -304 363 -275 q 171 -333 250 -333 q 117 -331 142 -333 q 71 -322 92 -328 l 71 -122 q 101 -128 85 -125 q 133 -131 117 -131 q 186 -119 167 -131 q 221 -78 206 -107 q 251 -1 236 -50 l 254 11 l 1 768 m 118 958 q 147 1038 118 1011 q 222 1065 176 1065 q 299 1037 269 1065 q 328 958 328 1008 q 299 881 328 910 q 222 853 269 853 q 147 880 176 853 q 118 958 118 907 m 404 958 q 433 1038 404 1011 q 508 1065 463 1065 q 586 1037 557 1065 q 615 958 615 1008 q 586 881 615 910 q 508 853 557 853 q 433 881 461 853 q 404 958 404 908 z "},"Ā":{"ha":861,"x_min":0,"x_max":861,"o":"m 596 0 l 554 192 l 308 192 l 267 0 l 0 0 l 267 993 l 592 993 l 861 0 l 596 0 m 472 603 q 458 676 465 638 q 443 754 450 715 q 431 822 436 793 q 422 756 428 793 q 407 681 415 719 q 392 606 399 642 l 350 399 l 513 399 l 472 603 m 650 1240 l 650 1081 l 214 1081 l 214 1240 l 650 1240 z "},"ā":{"ha":740,"x_min":39,"x_max":665,"o":"m 399 782 q 594 713 524 782 q 665 504 665 643 l 665 0 l 497 0 l 456 101 l 450 101 q 394 37 424 63 q 328 -1 365 11 q 236 -14 290 -14 q 127 19 171 -14 q 61 109 83 53 q 39 235 39 165 q 111 419 39 358 q 319 485 183 479 l 428 489 l 428 506 q 408 577 428 554 q 349 600 388 600 q 267 585 313 600 q 169 543 222 571 l 106 713 q 239 764 165 746 q 399 782 313 782 m 382 340 q 303 315 328 339 q 278 246 278 290 q 294 188 278 207 q 339 168 310 168 q 403 199 376 168 q 429 278 429 229 l 429 343 l 382 340 m 599 1017 l 599 857 l 163 857 l 163 1017 l 599 1017 z "},"Ă":{"ha":861,"x_min":0,"x_max":861,"o":"m 596 0 l 554 192 l 308 192 l 267 0 l 0 0 l 267 993 l 592 993 l 861 0 l 596 0 m 472 603 q 458 676 465 638 q 443 754 450 715 q 431 822 436 793 q 422 756 428 793 q 407 681 415 719 q 392 606 399 642 l 350 399 l 513 399 l 472 603 m 668 1317 q 635 1183 667 1240 q 551 1096 604 1126 q 429 1065 499 1065 q 260 1130 324 1065 q 194 1317 196 1194 l 329 1317 q 346 1262 335 1282 q 378 1232 357 1242 q 429 1222 399 1222 q 479 1231 458 1222 q 514 1261 500 1240 q 531 1317 528 1282 l 668 1317 z "},"ă":{"ha":740,"x_min":39,"x_max":665,"o":"m 399 782 q 594 713 524 782 q 665 504 665 643 l 665 0 l 497 0 l 456 101 l 450 101 q 394 37 424 63 q 328 -1 365 11 q 236 -14 290 -14 q 127 19 171 -14 q 61 109 83 53 q 39 235 39 165 q 111 419 39 358 q 319 485 183 479 l 428 489 l 428 506 q 408 577 428 554 q 349 600 388 600 q 267 585 313 600 q 169 543 222 571 l 106 713 q 239 764 165 746 q 399 782 313 782 m 382 340 q 303 315 328 339 q 278 246 278 290 q 294 188 278 207 q 339 168 310 168 q 403 199 376 168 q 429 278 429 229 l 429 343 l 382 340 m 617 1093 q 584 960 615 1017 q 500 872 553 903 q 378 842 447 842 q 208 906 272 842 q 143 1093 144 971 l 278 1093 q 294 1038 283 1058 q 326 1008 306 1018 q 378 999 347 999 q 428 1008 407 999 q 463 1038 449 1017 q 479 1093 476 1058 l 617 1093 z "},"Ą":{"ha":861,"x_min":0,"x_max":861,"o":"m 596 0 l 554 192 l 308 192 l 267 0 l 0 0 l 267 993 l 592 993 l 861 0 l 596 0 m 472 603 q 458 676 465 638 q 443 754 450 715 q 431 822 436 793 q 422 756 428 793 q 407 681 415 719 q 392 606 399 642 l 350 399 l 513 399 l 472 603 m 693 -131 q 708 -169 693 -154 q 749 -183 722 -183 q 783 -178 767 -183 q 810 -168 799 -174 l 810 -314 q 765 -327 792 -321 q 701 -333 738 -333 q 569 -292 615 -333 q 522 -178 522 -250 q 534 -112 522 -146 q 575 -44 546 -79 q 656 26 604 -8 l 768 0 q 708 -74 724 -46 q 693 -131 693 -101 z "},"ą":{"ha":740,"x_min":39,"x_max":685,"o":"m 399 782 q 594 713 524 782 q 665 504 665 643 l 665 0 l 497 0 l 456 101 l 450 101 q 394 37 424 63 q 328 -1 365 11 q 236 -14 290 -14 q 127 19 171 -14 q 61 109 83 53 q 39 235 39 165 q 111 419 39 358 q 319 485 183 479 l 428 489 l 428 506 q 408 577 428 554 q 349 600 388 600 q 267 585 313 600 q 169 543 222 571 l 106 713 q 239 764 165 746 q 399 782 313 782 m 382 340 q 303 315 328 339 q 278 246 278 290 q 294 188 278 207 q 339 168 310 168 q 403 199 376 168 q 429 278 429 229 l 429 343 l 382 340 m 567 -131 q 581 -169 567 -154 q 622 -183 596 -183 q 656 -178 640 -183 q 683 -168 672 -174 l 683 -314 q 638 -327 665 -321 q 575 -333 611 -333 q 442 -292 489 -333 q 396 -178 396 -250 q 408 -112 396 -146 q 449 -44 419 -79 q 529 26 478 -8 l 642 0 q 582 -74 597 -46 q 567 -131 567 -101 z "},"Ć":{"ha":764,"x_min":60,"x_max":726,"o":"m 475 797 q 407 776 438 797 q 356 716 376 756 q 325 619 336 676 q 314 492 314 563 q 333 327 314 393 q 392 228 353 261 q 488 194 431 194 q 591 213 542 194 q 690 257 640 231 l 690 42 q 578 0 638 14 q 453 -14 519 -14 q 235 46 322 -14 q 103 219 147 106 q 60 493 60 333 q 87 701 60 607 q 166 863 114 794 q 292 969 218 932 q 463 1006 367 1006 q 596 989 529 1006 q 726 936 663 972 l 658 736 q 570 781 615 764 q 475 797 525 797 m 692 1274 q 648 1229 675 1256 q 589 1174 621 1203 q 526 1117 557 1144 q 467 1065 494 1089 l 299 1065 l 299 1085 q 344 1154 321 1119 q 390 1223 368 1189 q 428 1288 411 1257 l 692 1288 l 692 1274 z "},"ć":{"ha":646,"x_min":49,"x_max":617,"o":"m 379 -14 q 199 28 272 -14 q 87 157 125 69 q 49 381 49 244 q 88 592 49 501 q 201 732 126 682 q 389 782 276 782 q 509 767 454 782 q 613 724 564 753 l 547 539 q 474 574 510 563 q 399 585 438 585 q 341 562 365 585 q 303 494 317 539 q 289 381 289 449 q 302 270 289 314 q 341 205 315 226 q 404 183 367 183 q 499 201 451 183 q 592 251 547 218 l 592 54 q 495 3 547 21 q 379 -14 443 -14 m 617 1050 q 573 1006 600 1032 q 514 950 546 979 q 451 893 482 921 q 392 842 419 865 l 224 842 l 224 861 q 269 931 246 896 q 315 999 293 965 q 353 1064 336 1033 l 617 1064 l 617 1050 z "},"Ĉ":{"ha":764,"x_min":60,"x_max":726,"o":"m 475 797 q 407 776 438 797 q 356 716 376 756 q 325 619 336 676 q 314 492 314 563 q 333 327 314 393 q 392 228 353 261 q 488 194 431 194 q 591 213 542 194 q 690 257 640 231 l 690 42 q 578 0 638 14 q 453 -14 519 -14 q 235 46 322 -14 q 103 219 147 106 q 60 493 60 333 q 87 701 60 607 q 166 863 114 794 q 292 969 218 932 q 463 1006 367 1006 q 596 989 529 1006 q 726 936 663 972 l 658 736 q 570 781 615 764 q 475 797 525 797 m 549 1288 q 591 1222 568 1257 q 640 1153 614 1188 q 693 1085 667 1118 l 693 1065 l 546 1065 q 494 1108 521 1083 q 438 1167 467 1133 q 380 1108 406 1133 q 331 1065 354 1083 l 181 1065 l 181 1085 q 230 1147 201 1108 q 285 1223 258 1185 q 326 1288 313 1261 l 549 1288 z "},"ĉ":{"ha":646,"x_min":49,"x_max":619,"o":"m 379 -14 q 199 28 272 -14 q 87 157 125 69 q 49 381 49 244 q 88 592 49 501 q 201 732 126 682 q 389 782 276 782 q 509 767 454 782 q 613 724 564 753 l 547 539 q 474 574 510 563 q 399 585 438 585 q 341 562 365 585 q 303 494 317 539 q 289 381 289 449 q 302 270 289 314 q 341 205 315 226 q 404 183 367 183 q 499 201 451 183 q 592 251 547 218 l 592 54 q 495 3 547 21 q 379 -14 443 -14 m 474 1064 q 516 999 493 1033 q 565 929 539 964 q 618 861 592 894 l 618 842 l 471 842 q 419 885 446 860 q 363 943 392 910 q 305 885 331 910 q 256 842 279 860 l 106 842 l 106 861 q 155 923 126 885 q 210 999 183 961 q 251 1064 238 1038 l 474 1064 z "},"Ċ":{"ha":764,"x_min":60,"x_max":726,"o":"m 475 797 q 407 776 438 797 q 356 716 376 756 q 325 619 336 676 q 314 492 314 563 q 333 327 314 393 q 392 228 353 261 q 488 194 431 194 q 591 213 542 194 q 690 257 640 231 l 690 42 q 578 0 638 14 q 453 -14 519 -14 q 235 46 322 -14 q 103 219 147 106 q 60 493 60 333 q 87 701 60 607 q 166 863 114 794 q 292 969 218 932 q 463 1006 367 1006 q 596 989 529 1006 q 726 936 663 972 l 658 736 q 570 781 615 764 q 475 797 525 797 m 436 1301 q 530 1274 497 1301 q 563 1183 563 1246 q 529 1094 563 1122 q 436 1067 496 1067 q 344 1094 378 1067 q 311 1183 311 1122 q 343 1274 311 1246 q 436 1301 375 1301 z "},"ċ":{"ha":646,"x_min":49,"x_max":613,"o":"m 379 -14 q 199 28 272 -14 q 87 157 125 69 q 49 381 49 244 q 88 592 49 501 q 201 732 126 682 q 389 782 276 782 q 509 767 454 782 q 613 724 564 753 l 547 539 q 474 574 510 563 q 399 585 438 585 q 341 562 365 585 q 303 494 317 539 q 289 381 289 449 q 302 270 289 314 q 341 205 315 226 q 404 183 367 183 q 499 201 451 183 q 592 251 547 218 l 592 54 q 495 3 547 21 q 379 -14 443 -14 m 361 1078 q 455 1050 422 1078 q 488 960 488 1022 q 454 871 488 899 q 361 843 421 843 q 269 871 303 843 q 236 960 236 899 q 268 1050 236 1022 q 361 1078 300 1078 z "},"Č":{"ha":764,"x_min":60,"x_max":726,"o":"m 475 797 q 407 776 438 797 q 356 716 376 756 q 325 619 336 676 q 314 492 314 563 q 333 327 314 393 q 392 228 353 261 q 488 194 431 194 q 591 213 542 194 q 690 257 640 231 l 690 42 q 578 0 638 14 q 453 -14 519 -14 q 235 46 322 -14 q 103 219 147 106 q 60 493 60 333 q 87 701 60 607 q 166 863 114 794 q 292 969 218 932 q 463 1006 367 1006 q 596 989 529 1006 q 726 936 663 972 l 658 736 q 570 781 615 764 q 475 797 525 797 m 326 1065 q 285 1131 313 1092 q 230 1207 258 1169 q 181 1268 201 1244 l 181 1288 l 331 1288 q 382 1244 357 1268 q 438 1186 407 1219 q 494 1244 467 1219 q 546 1288 521 1269 l 693 1288 l 693 1268 q 646 1206 674 1243 q 592 1131 618 1168 q 549 1065 567 1094 l 326 1065 z "},"č":{"ha":646,"x_min":49,"x_max":619,"o":"m 379 -14 q 199 28 272 -14 q 87 157 125 69 q 49 381 49 244 q 88 592 49 501 q 201 732 126 682 q 389 782 276 782 q 509 767 454 782 q 613 724 564 753 l 547 539 q 474 574 510 563 q 399 585 438 585 q 341 562 365 585 q 303 494 317 539 q 289 381 289 449 q 302 270 289 314 q 341 205 315 226 q 404 183 367 183 q 499 201 451 183 q 592 251 547 218 l 592 54 q 495 3 547 21 q 379 -14 443 -14 m 251 842 q 210 907 238 868 q 155 983 183 946 q 106 1044 126 1021 l 106 1064 l 256 1064 q 307 1020 282 1044 q 363 963 332 996 q 419 1021 392 996 q 471 1064 446 1046 l 618 1064 l 618 1044 q 571 982 599 1019 q 517 908 543 944 q 474 842 492 871 l 251 842 z "},"Ď":{"ha":876,"x_min":89,"x_max":817,"o":"m 817 517 q 763 235 817 350 q 608 60 708 119 q 364 0 507 0 l 89 0 l 89 992 l 383 992 q 619 937 522 992 q 766 776 715 882 q 817 517 817 671 m 563 507 q 542 666 563 606 q 482 755 522 726 q 381 783 442 783 l 335 783 l 335 210 l 365 210 q 515 282 468 210 q 563 507 563 354 m 324 1065 q 283 1131 310 1092 q 227 1207 256 1169 q 178 1268 199 1244 l 178 1288 l 328 1288 q 379 1244 354 1268 q 435 1186 404 1219 q 491 1244 464 1219 q 543 1288 518 1269 l 690 1288 l 690 1268 q 643 1206 671 1243 q 590 1131 615 1168 q 546 1065 564 1094 l 324 1065 z "},"ď":{"ha":778,"x_min":49,"x_max":996,"o":"m 996 1040 q 968 969 983 1004 q 936 901 953 935 q 897 833 919 868 l 744 833 l 744 853 q 753 898 749 872 q 763 952 758 924 q 769 1008 767 981 q 774 1056 772 1035 l 996 1056 l 996 1040 m 290 -14 q 113 92 178 -14 q 49 385 49 197 q 114 678 49 574 q 289 782 179 782 q 361 769 329 782 q 419 732 393 757 q 465 669 446 707 l 472 669 q 466 756 468 715 q 464 826 464 796 l 464 1056 l 701 1056 l 701 0 l 515 0 l 475 82 l 464 82 q 417 29 442 50 q 363 -3 393 8 q 290 -14 333 -14 m 375 181 q 448 224 426 181 q 471 365 469 268 l 471 403 q 449 539 471 494 q 375 583 426 583 q 312 534 335 583 q 289 386 289 485 q 312 231 289 281 q 375 181 335 181 z "},"Đ":{"ha":876,"x_min":6,"x_max":817,"o":"m 383 992 q 619 937 522 992 q 766 776 715 882 q 817 517 817 671 q 763 235 817 350 q 608 60 708 119 q 364 0 507 0 l 89 0 l 89 414 l 6 414 l 6 600 l 89 600 l 89 992 l 383 992 m 381 783 l 335 783 l 335 600 l 444 600 l 444 414 l 335 414 l 335 210 l 365 210 q 515 282 468 210 q 563 507 563 354 q 542 666 563 606 q 482 755 522 726 q 381 783 442 783 z "},"đ":{"ha":786,"x_min":49,"x_max":792,"o":"m 288 -14 q 113 88 176 -14 q 49 365 49 189 q 115 642 49 544 q 290 739 181 739 q 363 726 331 739 q 422 690 396 714 q 468 628 447 665 l 475 628 q 468 710 472 669 q 464 785 464 750 l 464 796 l 340 796 l 340 956 l 464 956 l 464 1056 l 701 1056 l 701 956 l 792 956 l 792 796 l 701 796 l 701 0 l 510 0 l 469 82 l 458 82 q 412 29 436 50 q 358 -3 388 8 q 288 -14 329 -14 m 379 181 q 449 220 428 181 q 471 346 469 260 l 471 381 q 447 501 471 461 q 379 540 424 540 q 318 498 340 540 q 296 364 296 456 q 317 228 296 276 q 379 181 339 181 z "},"Ē":{"ha":660,"x_min":89,"x_max":600,"o":"m 600 0 l 89 0 l 89 992 l 600 992 l 600 788 l 335 788 l 335 615 l 581 615 l 581 411 l 335 411 l 335 207 l 600 207 l 600 0 m 561 1240 l 561 1081 l 125 1081 l 125 1240 l 561 1240 z "},"ē":{"ha":726,"x_min":49,"x_max":682,"o":"m 371 781 q 538 740 468 781 q 645 622 608 700 q 682 431 682 544 l 682 313 l 283 313 q 319 205 285 242 q 425 168 354 168 q 533 182 483 168 q 640 228 583 196 l 640 42 q 529 -1 589 13 q 393 -14 469 -14 q 203 30 279 -14 q 88 162 126 74 q 49 381 49 250 q 86 601 49 513 q 196 735 124 690 q 371 781 268 781 m 378 606 q 313 575 339 606 q 285 474 288 544 l 464 474 q 453 547 464 518 q 424 591 443 576 q 378 606 404 606 m 586 1017 l 586 857 l 150 857 l 150 1017 l 586 1017 z "},"Ĕ":{"ha":660,"x_min":89,"x_max":600,"o":"m 600 0 l 89 0 l 89 992 l 600 992 l 600 788 l 335 788 l 335 615 l 581 615 l 581 411 l 335 411 l 335 207 l 600 207 l 600 0 m 579 1317 q 547 1183 578 1240 q 463 1096 515 1126 q 340 1065 410 1065 q 171 1130 235 1065 q 106 1317 107 1194 l 240 1317 q 257 1262 246 1282 q 289 1232 268 1242 q 340 1222 310 1222 q 390 1231 369 1222 q 425 1261 411 1240 q 442 1317 439 1282 l 579 1317 z "},"ĕ":{"ha":726,"x_min":49,"x_max":682,"o":"m 371 781 q 538 740 468 781 q 645 622 608 700 q 682 431 682 544 l 682 313 l 283 313 q 319 205 285 242 q 425 168 354 168 q 533 182 483 168 q 640 228 583 196 l 640 42 q 529 -1 589 13 q 393 -14 469 -14 q 203 30 279 -14 q 88 162 126 74 q 49 381 49 250 q 86 601 49 513 q 196 735 124 690 q 371 781 268 781 m 378 606 q 313 575 339 606 q 285 474 288 544 l 464 474 q 453 547 464 518 q 424 591 443 576 q 378 606 404 606 m 604 1093 q 572 960 603 1017 q 488 872 540 903 q 365 842 435 842 q 196 906 260 842 q 131 1093 132 971 l 265 1093 q 282 1038 271 1058 q 314 1008 293 1018 q 365 999 335 999 q 415 1008 394 999 q 450 1038 436 1017 q 467 1093 464 1058 l 604 1093 z "},"Ė":{"ha":660,"x_min":89,"x_max":600,"o":"m 600 0 l 89 0 l 89 992 l 600 992 l 600 788 l 335 788 l 335 615 l 581 615 l 581 411 l 335 411 l 335 207 l 600 207 l 600 0 m 342 1301 q 435 1274 403 1301 q 468 1183 468 1246 q 435 1094 468 1122 q 342 1067 401 1067 q 250 1094 283 1067 q 217 1183 217 1122 q 249 1274 217 1246 q 342 1301 281 1301 z "},"ė":{"ha":726,"x_min":49,"x_max":682,"o":"m 371 781 q 538 740 468 781 q 645 622 608 700 q 682 431 682 544 l 682 313 l 283 313 q 319 205 285 242 q 425 168 354 168 q 533 182 483 168 q 640 228 583 196 l 640 42 q 529 -1 589 13 q 393 -14 469 -14 q 203 30 279 -14 q 88 162 126 74 q 49 381 49 250 q 86 601 49 513 q 196 735 124 690 q 371 781 268 781 m 378 606 q 313 575 339 606 q 285 474 288 544 l 464 474 q 453 547 464 518 q 424 591 443 576 q 378 606 404 606 m 367 1078 q 460 1050 428 1078 q 493 960 493 1022 q 460 871 493 899 q 367 843 426 843 q 275 871 308 843 q 242 960 242 899 q 274 1050 242 1022 q 367 1078 306 1078 z "},"Ę":{"ha":660,"x_min":89,"x_max":608,"o":"m 600 0 l 89 0 l 89 992 l 600 992 l 600 788 l 335 788 l 335 615 l 581 615 l 581 411 l 335 411 l 335 207 l 600 207 l 600 0 m 490 -131 q 505 -169 490 -154 q 546 -183 519 -183 q 580 -178 564 -183 q 607 -168 596 -174 l 607 -314 q 562 -327 589 -321 q 499 -333 535 -333 q 366 -292 413 -333 q 319 -178 319 -250 q 331 -112 319 -146 q 372 -44 343 -79 q 453 26 401 -8 l 565 0 q 506 -74 521 -46 q 490 -131 490 -101 z "},"ę":{"ha":726,"x_min":49,"x_max":682,"o":"m 528 -132 q 543 -168 528 -156 q 579 -181 558 -181 q 616 -176 594 -181 q 649 -165 638 -171 l 649 -315 q 593 -328 625 -324 q 531 -333 561 -333 q 401 -291 444 -333 q 357 -176 357 -249 q 369 -115 357 -144 q 407 -53 381 -85 q 479 10 433 -22 l 640 42 q 569 -35 593 -3 q 537 -90 546 -67 q 528 -132 528 -112 m 371 781 q 538 740 468 781 q 645 622 608 700 q 682 431 682 544 l 682 313 l 283 313 q 319 205 285 242 q 425 168 354 168 q 533 182 483 168 q 640 228 583 196 l 640 42 q 529 -1 589 13 q 393 -14 469 -14 q 203 30 279 -14 q 88 162 126 74 q 49 381 49 250 q 86 601 49 513 q 196 735 124 690 q 371 781 268 781 m 378 606 q 313 575 339 606 q 285 474 288 544 l 464 474 q 453 547 464 518 q 424 591 443 576 q 378 606 404 606 z "},"Ě":{"ha":660,"x_min":86,"x_max":600,"o":"m 600 0 l 89 0 l 89 992 l 600 992 l 600 788 l 335 788 l 335 615 l 581 615 l 581 411 l 335 411 l 335 207 l 600 207 l 600 0 m 232 1065 q 191 1131 218 1092 q 135 1207 164 1169 q 86 1268 107 1244 l 86 1288 l 236 1288 q 288 1244 263 1268 q 343 1186 313 1219 q 399 1244 372 1219 q 451 1288 426 1269 l 599 1288 l 599 1268 q 551 1206 579 1243 q 498 1131 524 1168 q 454 1065 472 1094 l 232 1065 z "},"ě":{"ha":726,"x_min":49,"x_max":682,"o":"m 371 781 q 538 740 468 781 q 645 622 608 700 q 682 431 682 544 l 682 313 l 283 313 q 319 205 285 242 q 425 168 354 168 q 533 182 483 168 q 640 228 583 196 l 640 42 q 529 -1 589 13 q 393 -14 469 -14 q 203 30 279 -14 q 88 162 126 74 q 49 381 49 250 q 86 601 49 513 q 196 735 124 690 q 371 781 268 781 m 378 606 q 313 575 339 606 q 285 474 288 544 l 464 474 q 453 547 464 518 q 424 591 443 576 q 378 606 404 606 m 257 842 q 216 907 243 868 q 160 983 189 946 q 111 1044 132 1021 l 111 1064 l 261 1064 q 313 1020 288 1044 q 368 963 338 996 q 424 1021 397 996 q 476 1064 451 1046 l 624 1064 l 624 1044 q 576 982 604 1019 q 523 908 549 944 q 479 842 497 871 l 257 842 z "},"Ĝ":{"ha":885,"x_min":60,"x_max":808,"o":"m 439 581 l 808 581 l 808 46 q 647 1 732 17 q 471 -14 561 -14 q 249 44 342 -14 q 108 217 157 103 q 60 499 60 332 q 113 770 60 657 q 267 944 165 883 q 515 1006 369 1006 q 668 988 597 1006 q 792 943 739 971 l 721 744 q 626 784 676 771 q 521 797 576 797 q 404 760 450 797 q 336 655 358 724 q 314 492 314 586 q 333 330 314 396 q 392 230 353 264 q 486 196 431 196 q 530 199 507 196 q 571 207 553 201 l 571 381 l 439 381 l 439 581 m 599 1288 q 641 1222 618 1257 q 690 1153 664 1188 q 743 1085 717 1118 l 743 1065 l 596 1065 q 544 1108 571 1083 q 488 1167 517 1133 q 430 1108 456 1133 q 381 1065 404 1083 l 231 1065 l 231 1085 q 280 1147 251 1108 q 335 1223 308 1185 q 376 1288 363 1261 l 599 1288 z "},"ĝ":{"ha":778,"x_min":49,"x_max":701,"o":"m 293 782 q 395 756 354 782 q 468 672 436 731 l 478 672 l 496 768 l 701 768 l 701 47 q 663 -160 701 -75 q 542 -290 624 -246 q 331 -333 460 -333 q 195 -320 254 -333 q 82 -279 136 -307 l 82 -78 q 202 -123 146 -108 q 321 -137 258 -137 q 426 -108 388 -137 q 464 -14 464 -79 l 464 -4 q 466 47 464 18 q 471 99 468 75 l 464 99 q 394 15 435 43 q 286 -14 353 -14 q 113 90 178 -14 q 49 379 49 194 q 114 676 49 569 q 293 782 179 782 m 374 585 q 328 563 347 585 q 299 494 308 540 q 289 376 289 447 q 311 231 289 278 q 376 183 333 183 q 419 194 401 183 q 449 225 438 204 q 465 278 460 246 q 471 356 471 311 l 471 393 q 461 502 471 460 q 431 565 451 544 q 374 585 410 585 m 506 1064 q 548 999 525 1033 q 597 929 571 964 q 650 861 624 894 l 650 842 l 503 842 q 451 885 478 860 q 394 943 424 910 q 337 885 363 910 q 288 842 311 860 l 138 842 l 138 861 q 187 923 158 885 q 242 999 215 961 q 283 1064 269 1038 l 506 1064 z "},"Ğ":{"ha":885,"x_min":60,"x_max":808,"o":"m 439 581 l 808 581 l 808 46 q 647 1 732 17 q 471 -14 561 -14 q 249 44 342 -14 q 108 217 157 103 q 60 499 60 332 q 113 770 60 657 q 267 944 165 883 q 515 1006 369 1006 q 668 988 597 1006 q 792 943 739 971 l 721 744 q 626 784 676 771 q 521 797 576 797 q 404 760 450 797 q 336 655 358 724 q 314 492 314 586 q 333 330 314 396 q 392 230 353 264 q 486 196 431 196 q 530 199 507 196 q 571 207 553 201 l 571 381 l 439 381 l 439 581 m 724 1317 q 691 1183 722 1240 q 607 1096 660 1126 q 485 1065 554 1065 q 315 1130 379 1065 q 250 1317 251 1194 l 385 1317 q 401 1262 390 1282 q 433 1232 413 1242 q 485 1222 454 1222 q 535 1231 514 1222 q 569 1261 556 1240 q 586 1317 583 1282 l 724 1317 z "},"ğ":{"ha":778,"x_min":49,"x_max":701,"o":"m 293 782 q 395 756 354 782 q 468 672 436 731 l 478 672 l 496 768 l 701 768 l 701 47 q 663 -160 701 -75 q 542 -290 624 -246 q 331 -333 460 -333 q 195 -320 254 -333 q 82 -279 136 -307 l 82 -78 q 202 -123 146 -108 q 321 -137 258 -137 q 426 -108 388 -137 q 464 -14 464 -79 l 464 -4 q 466 47 464 18 q 471 99 468 75 l 464 99 q 394 15 435 43 q 286 -14 353 -14 q 113 90 178 -14 q 49 379 49 194 q 114 676 49 569 q 293 782 179 782 m 374 585 q 328 563 347 585 q 299 494 308 540 q 289 376 289 447 q 311 231 289 278 q 376 183 333 183 q 419 194 401 183 q 449 225 438 204 q 465 278 460 246 q 471 356 471 311 l 471 393 q 461 502 471 460 q 431 565 451 544 q 374 585 410 585 m 631 1093 q 598 960 629 1017 q 514 872 567 903 q 392 842 461 842 q 222 906 286 842 q 157 1093 158 971 l 292 1093 q 308 1038 297 1058 q 340 1008 319 1018 q 392 999 361 999 q 442 1008 421 999 q 476 1038 463 1017 q 493 1093 490 1058 l 631 1093 z "},"Ġ":{"ha":885,"x_min":60,"x_max":808,"o":"m 439 581 l 808 581 l 808 46 q 647 1 732 17 q 471 -14 561 -14 q 249 44 342 -14 q 108 217 157 103 q 60 499 60 332 q 113 770 60 657 q 267 944 165 883 q 515 1006 369 1006 q 668 988 597 1006 q 792 943 739 971 l 721 744 q 626 784 676 771 q 521 797 576 797 q 404 760 450 797 q 336 655 358 724 q 314 492 314 586 q 333 330 314 396 q 392 230 353 264 q 486 196 431 196 q 530 199 507 196 q 571 207 553 201 l 571 381 l 439 381 l 439 581 m 486 1301 q 580 1274 547 1301 q 613 1183 613 1246 q 579 1094 613 1122 q 486 1067 546 1067 q 394 1094 428 1067 q 361 1183 361 1122 q 393 1274 361 1246 q 486 1301 425 1301 z "},"ġ":{"ha":778,"x_min":49,"x_max":701,"o":"m 293 782 q 395 756 354 782 q 468 672 436 731 l 478 672 l 496 768 l 701 768 l 701 47 q 663 -160 701 -75 q 542 -290 624 -246 q 331 -333 460 -333 q 195 -320 254 -333 q 82 -279 136 -307 l 82 -78 q 202 -123 146 -108 q 321 -137 258 -137 q 426 -108 388 -137 q 464 -14 464 -79 l 464 -4 q 466 47 464 18 q 471 99 468 75 l 464 99 q 394 15 435 43 q 286 -14 353 -14 q 113 90 178 -14 q 49 379 49 194 q 114 676 49 569 q 293 782 179 782 m 374 585 q 328 563 347 585 q 299 494 308 540 q 289 376 289 447 q 311 231 289 278 q 376 183 333 183 q 419 194 401 183 q 449 225 438 204 q 465 278 460 246 q 471 356 471 311 l 471 393 q 461 502 471 460 q 431 565 451 544 q 374 585 410 585 m 393 1078 q 487 1050 454 1078 q 519 960 519 1022 q 486 871 519 899 q 393 843 453 843 q 301 871 335 843 q 268 960 268 899 q 300 1050 268 1022 q 393 1078 332 1078 z "},"Ģ":{"ha":885,"x_min":60,"x_max":808,"o":"m 439 581 l 808 581 l 808 46 q 647 1 732 17 q 471 -14 561 -14 q 249 44 342 -14 q 108 217 157 103 q 60 499 60 332 q 113 770 60 657 q 267 944 165 883 q 515 1006 369 1006 q 668 988 597 1006 q 792 943 739 971 l 721 744 q 626 784 676 771 q 521 797 576 797 q 404 760 450 797 q 336 655 358 724 q 314 492 314 586 q 333 330 314 396 q 392 230 353 264 q 486 196 431 196 q 530 199 507 196 q 571 207 553 201 l 571 381 l 439 381 l 439 581 m 600 -100 q 574 -171 589 -136 q 543 -240 560 -206 q 504 -307 526 -274 l 351 -307 l 351 -287 q 363 -225 357 -262 q 374 -150 369 -187 q 378 -85 378 -112 l 600 -85 l 600 -100 z "},"ģ":{"ha":778,"x_min":49,"x_max":701,"o":"m 501 1044 q 490 971 496 1007 q 481 902 485 935 q 476 842 478 869 l 254 842 l 254 857 q 281 926 267 892 q 313 994 296 960 q 350 1064 329 1029 l 501 1064 l 501 1044 m 293 782 q 395 756 354 782 q 468 672 436 731 l 478 672 l 496 768 l 701 768 l 701 47 q 663 -160 701 -75 q 542 -290 624 -246 q 331 -333 460 -333 q 195 -320 254 -333 q 82 -279 136 -307 l 82 -78 q 202 -123 146 -108 q 321 -137 258 -137 q 426 -108 388 -137 q 464 -14 464 -79 l 464 -4 q 466 47 464 18 q 471 99 468 75 l 464 99 q 394 15 435 43 q 286 -14 353 -14 q 113 90 178 -14 q 49 379 49 194 q 114 676 49 569 q 293 782 179 782 m 374 585 q 328 563 347 585 q 299 494 308 540 q 289 376 289 447 q 311 231 289 278 q 376 183 333 183 q 419 194 401 183 q 449 225 438 204 q 465 278 460 246 q 471 356 471 311 l 471 393 q 461 502 471 460 q 431 565 451 544 q 374 585 410 585 z "},"Ĥ":{"ha":911,"x_min":89,"x_max":822,"o":"m 822 0 l 575 0 l 575 411 l 336 411 l 336 0 l 89 0 l 89 992 l 336 992 l 336 618 l 575 618 l 575 992 l 822 992 l 822 0 m 567 1288 q 609 1222 586 1257 q 658 1153 632 1188 q 711 1085 685 1118 l 711 1065 l 564 1065 q 512 1108 539 1083 q 456 1167 485 1133 q 398 1108 424 1133 q 349 1065 372 1083 l 199 1065 l 199 1085 q 248 1147 219 1108 q 303 1223 276 1185 q 344 1288 331 1261 l 567 1288 z "},"ĥ":{"ha":793,"x_min":-61,"x_max":719,"o":"m 313 875 q 308 766 313 817 q 297 674 304 715 l 310 674 q 353 735 328 711 q 413 771 379 760 q 490 782 447 782 q 611 750 560 782 q 691 656 663 718 q 719 500 719 593 l 719 0 l 482 0 l 482 425 q 465 541 482 503 q 413 579 447 579 q 351 554 372 579 q 321 477 329 529 q 313 347 313 425 l 313 0 l 76 0 l 76 1056 l 313 1056 l 313 875 m 307 1351 q 349 1286 326 1321 q 399 1217 372 1251 q 451 1149 425 1182 l 451 1129 l 304 1129 q 252 1172 279 1147 q 196 1231 225 1197 q 138 1172 164 1197 q 89 1129 113 1147 l -61 1129 l -61 1149 q -12 1210 -40 1172 q 44 1287 17 1249 q 85 1351 71 1325 l 307 1351 z "},"Ħ":{"ha":918,"x_min":-6,"x_max":922,"o":"m 93 0 l 93 724 l -6 724 l -6 882 l 93 882 l 93 992 l 339 992 l 339 882 l 579 882 l 579 992 l 825 992 l 825 882 l 922 882 l 922 724 l 825 724 l 825 0 l 579 0 l 579 411 l 339 411 l 339 0 l 93 0 m 339 618 l 579 618 l 579 724 l 339 724 l 339 618 z "},"ħ":{"ha":797,"x_min":-7,"x_max":724,"o":"m 318 1056 l 318 956 l 451 956 l 451 796 l 318 796 l 318 781 q 313 713 318 753 q 301 631 308 672 l 315 631 q 359 692 333 668 q 419 728 385 717 q 494 739 453 739 q 615 707 564 739 q 695 613 667 675 q 724 458 724 550 l 724 0 l 486 0 l 486 382 q 469 498 486 460 q 417 536 451 536 q 357 513 379 536 q 326 440 335 490 q 317 304 317 389 l 317 0 l 81 0 l 81 796 l -7 796 l -7 956 l 81 956 l 81 1056 l 318 1056 z "},"Ĩ":{"ha":528,"x_min":10,"x_max":518,"o":"m 489 0 l 39 0 l 39 135 l 140 182 l 140 810 l 39 857 l 39 992 l 489 992 l 489 857 l 386 810 l 386 182 l 489 135 l 489 0 m 10 1063 q 18 1145 11 1104 q 40 1220 25 1186 q 81 1274 54 1254 q 147 1294 107 1294 q 203 1285 176 1294 q 256 1262 229 1275 q 307 1239 282 1249 q 357 1229 332 1229 q 383 1245 374 1229 q 400 1296 393 1261 l 518 1296 q 476 1122 515 1179 q 379 1064 436 1064 q 324 1074 353 1064 q 267 1097 294 1083 q 215 1119 239 1110 q 171 1129 190 1129 q 146 1115 160 1129 q 128 1063 132 1101 l 10 1063 z "},"ĩ":{"ha":393,"x_min":-57,"x_max":451,"o":"m 314 0 l 78 0 l 78 768 l 314 768 l 314 0 m -57 839 q -49 922 -56 881 q -27 997 -42 963 q 14 1051 -12 1031 q 81 1071 40 1071 q 136 1061 110 1071 q 189 1038 163 1051 q 240 1015 215 1025 q 290 1006 265 1006 q 317 1022 307 1006 q 333 1072 326 1038 l 451 1072 q 409 898 449 956 q 313 840 369 840 q 257 850 286 840 q 200 873 228 860 q 148 896 172 886 q 104 906 124 906 q 79 892 93 906 q 61 839 65 878 l -57 839 z "},"Ī":{"ha":528,"x_min":39,"x_max":489,"o":"m 489 0 l 39 0 l 39 135 l 140 182 l 140 810 l 39 857 l 39 992 l 489 992 l 489 857 l 386 810 l 386 182 l 489 135 l 489 0 m 482 1240 l 482 1081 l 46 1081 l 46 1240 l 482 1240 z "},"ī":{"ha":393,"x_min":-21,"x_max":415,"o":"m 314 0 l 78 0 l 78 768 l 314 768 l 314 0 m 415 1017 l 415 857 l -21 857 l -21 1017 l 415 1017 z "},"Ĭ":{"ha":528,"x_min":26,"x_max":500,"o":"m 489 0 l 39 0 l 39 135 l 140 182 l 140 810 l 39 857 l 39 992 l 489 992 l 489 857 l 386 810 l 386 182 l 489 135 l 489 0 m 500 1317 q 467 1183 499 1240 q 383 1096 436 1126 q 261 1065 331 1065 q 92 1130 156 1065 q 26 1317 28 1194 l 161 1317 q 178 1262 167 1282 q 210 1232 189 1242 q 261 1222 231 1222 q 311 1231 290 1222 q 346 1261 332 1240 q 363 1317 360 1282 l 500 1317 z "},"ĭ":{"ha":393,"x_min":-40,"x_max":433,"o":"m 314 0 l 78 0 l 78 768 l 314 768 l 314 0 m 433 1093 q 401 960 432 1017 q 317 872 369 903 q 194 842 264 842 q 25 906 89 842 q -40 1093 -39 971 l 94 1093 q 111 1038 100 1058 q 143 1008 122 1018 q 194 999 164 999 q 244 1008 224 999 q 279 1038 265 1017 q 296 1093 293 1058 l 433 1093 z "},"Į":{"ha":528,"x_min":39,"x_max":492,"o":"m 489 0 l 39 0 l 39 135 l 140 182 l 140 810 l 39 857 l 39 992 l 489 992 l 489 857 l 386 810 l 386 182 l 489 135 l 489 0 m 374 -131 q 388 -169 374 -154 q 429 -183 403 -183 q 463 -178 447 -183 q 490 -168 479 -174 l 490 -314 q 445 -327 472 -321 q 382 -333 418 -333 q 249 -292 296 -333 q 203 -178 203 -250 q 215 -112 203 -146 q 256 -44 226 -79 q 336 26 285 -8 l 449 0 q 389 -74 404 -46 q 374 -131 374 -101 z "},"į":{"ha":393,"x_min":39,"x_max":326,"o":"m 314 768 l 314 0 l 78 0 l 78 768 l 314 768 m 196 1078 q 290 1050 257 1078 q 322 960 322 1022 q 289 871 322 899 q 196 843 256 843 q 104 871 138 843 q 71 960 71 899 q 103 1050 71 1022 q 196 1078 135 1078 m 210 -131 q 224 -169 210 -154 q 265 -183 239 -183 q 299 -178 283 -183 q 326 -168 315 -174 l 326 -314 q 281 -327 308 -321 q 218 -333 254 -333 q 85 -292 132 -333 q 39 -178 39 -250 q 51 -112 39 -146 q 92 -44 63 -79 q 172 26 121 -8 l 285 0 q 225 -74 240 -46 q 210 -131 210 -101 z "},"İ":{"ha":528,"x_min":39,"x_max":489,"o":"m 489 0 l 39 0 l 39 135 l 140 182 l 140 810 l 39 857 l 39 992 l 489 992 l 489 857 l 386 810 l 386 182 l 489 135 l 489 0 m 263 1301 q 356 1274 324 1301 q 389 1183 389 1246 q 356 1094 389 1122 q 263 1067 322 1067 q 171 1094 204 1067 q 138 1183 138 1122 q 169 1274 138 1246 q 263 1301 201 1301 z "},"Ĳ":{"ha":956,"x_min":39,"x_max":867,"o":"m 489 0 l 39 0 l 39 135 l 140 182 l 140 810 l 39 857 l 39 992 l 489 992 l 489 857 l 386 810 l 386 182 l 489 135 l 489 0 m 558 -311 q 492 -308 522 -311 q 436 -297 463 -304 l 436 -94 q 474 -104 454 -100 q 518 -108 494 -108 q 581 -92 558 -108 q 613 -36 603 -75 q 622 68 622 3 l 622 992 l 867 992 l 867 82 q 829 -153 867 -67 q 723 -275 792 -239 q 558 -311 654 -311 z "},"ĳ":{"ha":786,"x_min":71,"x_max":715,"o":"m 314 768 l 314 0 l 78 0 l 78 768 l 314 768 m 196 1078 q 290 1050 257 1078 q 322 960 322 1022 q 289 871 322 899 q 196 843 256 843 q 104 871 138 843 q 71 960 71 899 q 103 1050 71 1022 q 196 1078 135 1078 m 460 -333 q 397 -329 431 -333 q 335 -317 363 -325 l 335 -121 q 370 -130 353 -126 q 403 -133 388 -133 q 452 -110 435 -133 q 469 -33 469 -87 l 469 768 l 707 768 l 707 -62 q 679 -209 707 -149 q 597 -301 651 -269 q 460 -333 542 -332 m 463 960 q 495 1050 463 1022 q 589 1078 528 1078 q 683 1050 650 1078 q 715 960 715 1022 q 681 871 715 899 q 589 843 647 843 q 496 871 529 843 q 463 960 463 899 z "},"Ĵ":{"ha":429,"x_min":-92,"x_max":474,"o":"m 31 -311 q -35 -308 -6 -311 q -92 -297 -65 -304 l -92 -94 q -53 -104 -74 -100 q -10 -108 -33 -108 q 53 -92 31 -108 q 85 -36 75 -75 q 94 68 94 3 l 94 992 l 339 992 l 339 82 q 301 -153 339 -67 q 195 -275 264 -239 q 31 -311 126 -311 m 328 1288 q 370 1222 347 1257 q 419 1153 393 1188 q 472 1085 446 1118 l 472 1065 l 325 1065 q 273 1108 300 1083 q 217 1167 246 1133 q 159 1108 185 1133 q 110 1065 133 1083 l -40 1065 l -40 1085 q 9 1147 -19 1108 q 65 1223 38 1185 q 106 1288 92 1261 l 328 1288 z "},"ĵ":{"ha":393,"x_min":-61,"x_max":453,"o":"m 67 -333 q 1 -328 39 -333 q -58 -317 -36 -322 l -58 -121 q -23 -130 -40 -126 q 10 -133 -6 -133 q 59 -111 42 -133 q 76 -37 76 -89 l 76 768 l 314 768 l 314 -62 q 287 -203 314 -142 q 205 -299 260 -264 q 67 -333 150 -333 m 307 1064 q 349 999 326 1033 q 399 929 372 964 q 451 861 425 894 l 451 842 l 304 842 q 252 885 279 860 q 196 943 225 910 q 138 885 164 910 q 89 842 113 860 l -61 842 l -61 861 q -12 923 -40 885 q 44 999 17 961 q 85 1064 71 1038 l 307 1064 z "},"Ķ":{"ha":822,"x_min":89,"x_max":836,"o":"m 832 0 l 558 0 l 399 372 l 336 332 l 336 0 l 89 0 l 89 992 l 336 992 l 336 561 q 362 623 346 592 q 396 688 378 654 l 571 992 l 836 992 l 575 547 l 832 0 m 564 -100 q 538 -171 553 -136 q 507 -240 524 -206 q 468 -307 490 -274 l 315 -307 l 315 -287 q 327 -225 321 -262 q 338 -150 333 -187 q 342 -85 342 -112 l 564 -85 l 564 -100 z "},"ķ":{"ha":781,"x_min":76,"x_max":786,"o":"m 314 638 q 311 533 314 586 q 303 431 308 479 l 307 431 q 328 471 317 450 q 351 511 340 492 q 372 544 363 531 l 517 768 l 775 768 l 550 442 l 786 0 l 522 0 l 385 278 l 314 219 l 314 0 l 76 0 l 76 1056 l 314 1056 l 314 638 m 528 -100 q 502 -171 517 -136 q 471 -240 488 -206 q 432 -307 454 -274 l 279 -307 l 279 -287 q 291 -225 285 -262 q 301 -150 297 -187 q 306 -85 306 -112 l 528 -85 l 528 -100 z "},"ĸ":{"ha":781,"x_min":76,"x_max":786,"o":"m 776 768 l 549 439 l 786 0 l 524 0 l 386 276 l 314 218 l 314 0 l 76 0 l 76 768 l 314 768 l 314 626 q 312 523 314 572 q 304 431 310 474 l 310 431 q 340 490 324 460 q 375 546 357 519 l 518 768 l 776 768 z "},"Ĺ":{"ha":658,"x_min":74,"x_max":631,"o":"m 89 0 l 89 992 l 335 992 l 335 207 l 631 207 l 631 0 l 89 0 m 467 1274 q 423 1229 450 1256 q 364 1174 396 1203 q 301 1117 332 1144 q 242 1065 269 1089 l 74 1065 l 74 1085 q 119 1154 96 1119 q 165 1223 143 1189 q 203 1288 186 1257 l 467 1288 l 467 1274 z "},"ĺ":{"ha":390,"x_min":57,"x_max":451,"o":"m 313 0 l 76 0 l 76 1056 l 313 1056 l 313 0 m 450 1338 q 406 1293 433 1319 q 347 1238 379 1267 q 284 1181 315 1208 q 225 1129 253 1153 l 57 1129 l 57 1149 q 103 1218 79 1183 q 148 1287 126 1253 q 186 1351 169 1321 l 450 1351 l 450 1338 z "},"Ļ":{"ha":658,"x_min":89,"x_max":631,"o":"m 89 0 l 89 992 l 335 992 l 335 207 l 631 207 l 631 0 l 89 0 m 485 -100 q 459 -171 474 -136 q 428 -240 444 -206 q 389 -307 411 -274 l 236 -307 l 236 -287 q 248 -225 242 -262 q 258 -150 254 -187 q 263 -85 263 -112 l 485 -85 l 485 -100 z "},"ļ":{"ha":390,"x_min":71,"x_max":321,"o":"m 313 0 l 76 0 l 76 1056 l 313 1056 l 313 0 m 321 -100 q 295 -171 310 -136 q 264 -240 281 -206 q 225 -307 247 -274 l 72 -307 l 72 -287 q 84 -225 78 -262 q 94 -150 90 -187 q 99 -85 99 -112 l 321 -85 l 321 -100 z "},"Ľ":{"ha":658,"x_min":89,"x_max":696,"o":"m 696 976 q 669 906 683 940 q 638 838 654 871 q 599 769 621 804 l 446 769 l 446 789 q 455 834 450 808 q 464 888 460 860 q 471 944 468 917 q 475 992 474 971 l 696 992 l 696 976 m 89 0 l 89 992 l 335 992 l 335 207 l 631 207 l 631 0 l 89 0 z "},"ľ":{"ha":390,"x_min":76,"x_max":608,"o":"m 608 1040 q 581 969 596 1004 q 549 901 567 935 q 511 833 532 868 l 357 833 l 357 853 q 366 898 361 872 q 375 952 371 924 q 383 1008 379 981 q 386 1056 386 1035 l 608 1056 l 608 1040 m 313 0 l 76 0 l 76 1056 l 313 1056 l 313 0 z "},"Ŀ":{"ha":658,"x_min":89,"x_max":661,"o":"m 89 0 l 89 992 l 335 992 l 335 207 l 631 207 l 631 0 l 89 0 m 535 663 q 628 635 596 663 q 661 544 661 607 q 628 456 661 483 q 535 428 594 428 q 443 456 476 428 q 410 544 410 483 q 442 635 410 607 q 535 663 474 663 z "},"ŀ":{"ha":554,"x_min":76,"x_max":599,"o":"m 313 0 l 76 0 l 76 1056 l 313 1056 l 313 0 m 472 646 q 566 618 533 646 q 599 528 599 590 q 565 439 599 467 q 472 411 532 411 q 381 439 414 411 q 347 528 347 467 q 379 618 347 590 q 472 646 411 646 z "},"Ł":{"ha":694,"x_min":-32,"x_max":665,"o":"m 124 0 l 124 329 l 74 296 l -32 440 l 124 556 l 124 992 l 369 992 l 369 729 l 475 807 l 582 661 l 369 503 l 369 207 l 665 207 l 665 0 l 124 0 z "},"ł":{"ha":486,"x_min":-33,"x_max":521,"o":"m 125 0 l 125 311 l 72 275 l -33 421 l 125 538 l 125 1056 l 363 1056 l 363 703 l 414 740 l 521 594 l 363 478 l 363 0 l 125 0 z "},"Ń":{"ha":985,"x_min":89,"x_max":896,"o":"m 896 0 l 597 0 l 308 642 l 303 642 q 310 547 307 593 q 313 461 313 501 q 314 390 314 421 l 314 0 l 89 0 l 89 992 l 386 992 l 675 365 l 679 365 q 674 453 676 410 q 671 536 672 497 q 669 606 669 575 l 669 992 l 896 992 l 896 0 m 747 1274 q 703 1229 731 1256 q 644 1174 676 1203 q 581 1117 613 1144 q 522 1065 550 1089 l 354 1065 l 354 1085 q 400 1154 376 1119 q 445 1223 424 1189 q 483 1288 467 1257 l 747 1288 l 747 1274 z "},"ń":{"ha":793,"x_min":76,"x_max":719,"o":"m 490 782 q 658 710 596 782 q 719 500 719 639 l 719 0 l 482 0 l 482 425 q 467 540 482 501 q 407 579 451 579 q 332 526 351 579 q 313 347 313 472 l 313 0 l 76 0 l 76 768 l 260 768 l 288 672 l 300 672 q 347 733 319 708 q 410 769 374 757 q 490 782 446 782 m 661 1050 q 617 1006 644 1032 q 558 950 590 979 q 495 893 526 921 q 436 842 464 865 l 268 842 l 268 861 q 314 931 290 896 q 359 999 338 965 q 397 1064 381 1033 l 661 1064 l 661 1050 z "},"Ņ":{"ha":985,"x_min":89,"x_max":896,"o":"m 896 0 l 597 0 l 308 642 l 303 642 q 310 547 307 593 q 313 461 313 501 q 314 390 314 421 l 314 0 l 89 0 l 89 992 l 386 992 l 675 365 l 679 365 q 674 453 676 410 q 671 536 672 497 q 669 606 669 575 l 669 992 l 896 992 l 896 0 m 617 -100 q 591 -171 606 -136 q 560 -240 576 -206 q 521 -307 543 -274 l 368 -307 l 368 -287 q 380 -225 374 -262 q 390 -150 386 -187 q 394 -85 394 -112 l 617 -85 l 617 -100 z "},"ņ":{"ha":793,"x_min":76,"x_max":719,"o":"m 490 782 q 658 710 596 782 q 719 500 719 639 l 719 0 l 482 0 l 482 425 q 467 540 482 501 q 407 579 451 579 q 332 526 351 579 q 313 347 313 472 l 313 0 l 76 0 l 76 768 l 260 768 l 288 672 l 300 672 q 347 733 319 708 q 410 769 374 757 q 490 782 446 782 m 522 -100 q 497 -171 511 -136 q 465 -240 482 -206 q 426 -307 449 -274 l 274 -307 l 274 -287 q 285 -225 279 -262 q 296 -150 292 -187 q 300 -85 300 -112 l 522 -85 l 522 -100 z "},"Ň":{"ha":985,"x_min":89,"x_max":896,"o":"m 896 0 l 597 0 l 308 642 l 303 642 q 310 547 307 593 q 313 461 313 501 q 314 390 314 421 l 314 0 l 89 0 l 89 992 l 386 992 l 675 365 l 679 365 q 674 453 676 410 q 671 536 672 497 q 669 606 669 575 l 669 992 l 896 992 l 896 0 m 382 1065 q 341 1131 368 1092 q 285 1207 314 1169 q 236 1268 257 1244 l 236 1288 l 386 1288 q 438 1244 413 1268 q 493 1186 463 1219 q 549 1244 522 1219 q 601 1288 576 1269 l 749 1288 l 749 1268 q 701 1206 729 1243 q 648 1131 674 1168 q 604 1065 622 1094 l 382 1065 z "},"ň":{"ha":793,"x_min":76,"x_max":719,"o":"m 490 782 q 658 710 596 782 q 719 500 719 639 l 719 0 l 482 0 l 482 425 q 467 540 482 501 q 407 579 451 579 q 332 526 351 579 q 313 347 313 472 l 313 0 l 76 0 l 76 768 l 260 768 l 288 672 l 300 672 q 347 733 319 708 q 410 769 374 757 q 490 782 446 782 m 296 842 q 255 907 282 868 q 199 983 228 946 q 150 1044 171 1021 l 150 1064 l 300 1064 q 351 1020 326 1044 q 407 963 376 996 q 463 1021 436 996 q 515 1064 490 1046 l 663 1064 l 663 1044 q 615 982 643 1019 q 562 908 588 944 q 518 842 536 871 l 296 842 z "},"ŉ":{"ha":1006,"x_min":1,"x_max":931,"o":"m 701 782 q 869 710 807 782 q 931 500 931 639 l 931 0 l 693 0 l 693 425 q 678 540 693 501 q 618 579 663 579 q 543 526 563 579 q 524 347 524 472 l 524 0 l 288 0 l 288 768 l 471 768 l 499 672 l 511 672 q 558 733 531 708 q 621 769 585 757 q 701 782 657 782 m 288 976 q 263 839 278 907 q 229 709 247 771 q 189 596 211 647 l 3 596 q 19 688 10 635 q 35 796 28 740 q 49 903 43 851 q 57 992 56 954 l 281 992 l 288 976 z "},"Ŋ":{"ha":985,"x_min":89,"x_max":896,"o":"m 597 -317 q 530 -313 561 -317 q 471 -303 499 -310 l 471 -100 q 512 -110 490 -106 q 560 -115 533 -115 q 624 -101 599 -115 q 660 -61 649 -87 q 672 6 672 -35 l 307 664 l 303 664 q 309 572 307 618 q 313 483 311 525 q 314 404 314 440 l 314 0 l 89 0 l 89 992 l 378 992 l 674 458 l 679 458 q 674 547 676 501 q 671 635 672 593 q 669 714 669 678 l 669 992 l 896 992 l 896 36 q 863 -160 896 -82 q 763 -278 829 -239 q 597 -317 696 -317 z "},"ŋ":{"ha":793,"x_min":76,"x_max":719,"o":"m 474 -333 q 410 -329 444 -333 q 349 -317 376 -325 l 349 -121 q 383 -130 367 -126 q 415 -133 400 -133 q 465 -110 447 -133 q 482 -33 482 -87 l 482 433 q 466 542 482 506 q 413 579 450 579 q 355 559 376 579 q 323 489 333 539 q 313 347 313 439 l 313 0 l 76 0 l 76 768 l 260 768 l 288 674 l 301 674 q 349 735 321 711 q 413 770 376 758 q 490 782 449 782 q 611 750 560 782 q 691 656 663 718 q 719 500 719 593 l 719 -62 q 694 -195 719 -133 q 615 -295 669 -257 q 474 -333 561 -333 z "},"Ō":{"ha":936,"x_min":60,"x_max":876,"o":"m 876 497 q 851 281 876 375 q 775 119 825 186 q 648 19 725 53 q 468 -14 571 -14 q 290 20 367 -14 q 162 120 214 54 q 85 281 110 186 q 60 499 60 376 q 105 774 60 661 q 242 947 150 888 q 468 1007 333 1007 q 697 948 606 1007 q 832 775 788 889 q 876 497 876 661 m 315 497 q 332 333 315 400 q 383 233 349 267 q 468 199 417 199 q 555 231 521 199 q 604 331 589 264 q 619 497 619 397 q 583 723 619 647 q 468 799 547 799 q 383 765 417 799 q 332 663 349 731 q 315 497 315 596 m 688 1240 l 688 1081 l 251 1081 l 251 1240 l 688 1240 z "},"ō":{"ha":767,"x_min":49,"x_max":717,"o":"m 717 386 q 698 233 717 306 q 639 106 679 161 q 535 18 599 50 q 382 -14 471 -14 q 238 17 300 -14 q 133 103 175 49 q 69 231 90 158 q 49 386 49 304 q 85 592 49 503 q 195 731 121 681 q 385 782 269 782 q 558 735 483 782 q 675 601 633 689 q 717 386 717 513 m 289 385 q 299 270 289 317 q 330 200 308 224 q 383 176 351 176 q 438 200 418 176 q 467 270 458 224 q 476 386 476 317 q 467 501 476 456 q 438 569 458 546 q 383 592 418 592 q 312 541 335 592 q 289 385 289 490 m 603 1017 l 603 857 l 167 857 l 167 1017 l 603 1017 z "},"Ŏ":{"ha":936,"x_min":60,"x_max":876,"o":"m 876 497 q 851 281 876 375 q 775 119 825 186 q 648 19 725 53 q 468 -14 571 -14 q 290 20 367 -14 q 162 120 214 54 q 85 281 110 186 q 60 499 60 376 q 105 774 60 661 q 242 947 150 888 q 468 1007 333 1007 q 697 948 606 1007 q 832 775 788 889 q 876 497 876 661 m 315 497 q 332 333 315 400 q 383 233 349 267 q 468 199 417 199 q 555 231 521 199 q 604 331 589 264 q 619 497 619 397 q 583 723 619 647 q 468 799 547 799 q 383 765 417 799 q 332 663 349 731 q 315 497 315 596 m 706 1317 q 673 1183 704 1240 q 589 1096 642 1126 q 467 1065 536 1065 q 297 1130 361 1065 q 232 1317 233 1194 l 367 1317 q 383 1262 372 1282 q 415 1232 394 1242 q 467 1222 436 1222 q 517 1231 496 1222 q 551 1261 538 1240 q 568 1317 565 1282 l 706 1317 z "},"ŏ":{"ha":767,"x_min":49,"x_max":717,"o":"m 717 386 q 698 233 717 306 q 639 106 679 161 q 535 18 599 50 q 382 -14 471 -14 q 238 17 300 -14 q 133 103 175 49 q 69 231 90 158 q 49 386 49 304 q 85 592 49 503 q 195 731 121 681 q 385 782 269 782 q 558 735 483 782 q 675 601 633 689 q 717 386 717 513 m 289 385 q 299 270 289 317 q 330 200 308 224 q 383 176 351 176 q 438 200 418 176 q 467 270 458 224 q 476 386 476 317 q 467 501 476 456 q 438 569 458 546 q 383 592 418 592 q 312 541 335 592 q 289 385 289 490 m 621 1093 q 588 960 619 1017 q 504 872 557 903 q 382 842 451 842 q 213 906 276 842 q 147 1093 149 971 l 282 1093 q 299 1038 288 1058 q 331 1008 310 1018 q 382 999 351 999 q 432 1008 411 999 q 467 1038 453 1017 q 483 1093 481 1058 l 621 1093 z "},"Ő":{"ha":936,"x_min":60,"x_max":876,"o":"m 876 497 q 851 281 876 375 q 775 119 825 186 q 648 19 725 53 q 468 -14 571 -14 q 290 20 367 -14 q 162 120 214 54 q 85 281 110 186 q 60 499 60 376 q 105 774 60 661 q 242 947 150 888 q 468 1007 333 1007 q 697 948 606 1007 q 832 775 788 889 q 876 497 876 661 m 315 497 q 332 333 315 400 q 383 233 349 267 q 468 199 417 199 q 555 231 521 199 q 604 331 589 264 q 619 497 619 397 q 583 723 619 647 q 468 799 547 799 q 383 765 417 799 q 332 663 349 731 q 315 497 315 596 m 765 1274 q 732 1227 756 1254 q 678 1170 708 1200 q 615 1113 647 1140 q 558 1065 583 1085 l 438 1065 l 438 1085 q 482 1166 460 1128 q 521 1235 504 1204 q 547 1288 538 1267 l 765 1288 l 765 1274 m 497 1274 q 464 1227 488 1254 q 410 1171 440 1200 q 347 1115 381 1142 q 286 1065 314 1088 l 171 1065 l 171 1085 q 215 1167 194 1129 q 253 1235 236 1204 q 281 1288 271 1267 l 497 1288 l 497 1274 z "},"ő":{"ha":767,"x_min":49,"x_max":717,"o":"m 717 386 q 698 233 717 306 q 639 106 679 161 q 535 18 599 50 q 382 -14 471 -14 q 238 17 300 -14 q 133 103 175 49 q 69 231 90 158 q 49 386 49 304 q 85 592 49 503 q 195 731 121 681 q 385 782 269 782 q 558 735 483 782 q 675 601 633 689 q 717 386 717 513 m 289 385 q 299 270 289 317 q 330 200 308 224 q 383 176 351 176 q 438 200 418 176 q 467 270 458 224 q 476 386 476 317 q 467 501 476 456 q 438 569 458 546 q 383 592 418 592 q 312 541 335 592 q 289 385 289 490 m 681 1050 q 647 1003 671 1031 q 593 947 624 976 q 531 889 563 917 q 474 842 499 861 l 353 842 l 353 861 q 397 942 375 904 q 436 1012 419 981 q 463 1064 453 1043 l 681 1064 l 681 1050 m 413 1050 q 379 1003 403 1031 q 326 947 356 976 q 263 891 296 918 q 201 842 229 864 l 86 842 l 86 861 q 131 943 110 906 q 169 1012 151 981 q 196 1064 186 1043 l 413 1064 l 413 1050 z "},"Œ":{"ha":1128,"x_min":60,"x_max":1069,"o":"m 449 1007 q 514 1003 481 1007 q 569 992 547 999 l 1069 992 l 1069 788 l 804 788 l 804 615 l 1049 615 l 1049 411 l 804 411 l 804 207 l 1069 207 l 1069 0 l 568 0 q 514 -10 546 -6 q 450 -14 482 -14 q 229 53 315 -14 q 101 235 143 119 q 60 499 60 350 q 101 763 60 649 q 229 942 143 878 q 449 1007 315 1007 m 461 799 q 397 779 424 799 q 351 722 369 760 q 324 627 333 683 q 315 497 315 571 q 331 333 315 400 q 380 233 347 267 q 460 199 413 199 q 518 203 492 199 q 563 214 544 207 l 563 775 q 519 793 546 788 q 461 799 492 799 z "},"œ":{"ha":1151,"x_min":49,"x_max":1107,"o":"m 808 781 q 969 740 903 781 q 1072 622 1036 700 q 1107 431 1107 544 l 1107 313 l 710 313 q 746 205 711 242 q 853 168 781 168 q 958 181 907 168 q 1065 228 1010 194 l 1065 42 q 958 -1 1015 13 q 825 -14 900 -14 q 697 8 753 -14 q 600 74 642 29 q 507 8 561 29 q 382 -14 453 -14 q 202 37 276 -14 q 88 178 128 88 q 49 386 49 268 q 86 594 49 506 q 199 733 124 683 q 385 782 274 782 q 503 761 450 782 q 594 700 556 740 q 652 744 621 726 q 722 772 683 763 q 808 781 761 781 m 383 592 q 312 541 335 592 q 289 385 289 490 q 299 270 289 317 q 330 200 308 224 q 383 176 351 176 q 438 200 418 176 q 467 270 458 224 q 476 386 476 317 q 467 501 476 456 q 438 569 458 546 q 383 592 418 592 m 803 606 q 738 576 764 606 q 711 474 713 546 l 892 474 q 881 547 892 518 q 850 591 869 576 q 803 606 831 606 z "},"Ŕ":{"ha":813,"x_min":89,"x_max":822,"o":"m 372 992 q 574 959 493 992 q 694 862 654 926 q 735 699 735 797 q 719 591 735 640 q 670 502 703 542 q 590 432 638 463 l 822 0 l 549 0 l 376 369 l 335 369 l 335 0 l 89 0 l 89 992 l 372 992 m 369 793 l 335 793 l 335 557 l 368 557 q 453 588 422 557 q 483 686 483 619 q 471 745 483 721 q 433 781 458 769 q 369 793 408 793 m 668 1274 q 624 1229 651 1256 q 565 1174 597 1203 q 502 1117 533 1144 q 443 1065 471 1089 l 275 1065 l 275 1085 q 321 1154 297 1119 q 366 1223 344 1189 q 404 1288 388 1257 l 668 1288 l 668 1274 z "},"ŕ":{"ha":560,"x_min":76,"x_max":558,"o":"m 479 782 q 513 780 496 782 q 547 774 529 778 l 528 529 q 497 535 514 533 q 453 538 479 538 q 396 529 421 538 q 352 502 371 521 q 324 454 333 483 q 314 383 314 425 l 314 0 l 76 0 l 76 768 l 257 768 l 292 646 l 303 646 q 345 710 319 679 q 406 762 371 742 q 479 782 440 782 m 558 1050 q 515 1006 542 1032 q 456 950 488 979 q 392 893 424 921 q 333 842 361 865 l 165 842 l 165 861 q 211 931 188 896 q 256 999 235 965 q 294 1064 278 1033 l 558 1064 l 558 1050 z "},"Ŗ":{"ha":813,"x_min":89,"x_max":822,"o":"m 372 992 q 574 959 493 992 q 694 862 654 926 q 735 699 735 797 q 719 591 735 640 q 670 502 703 542 q 590 432 638 463 l 822 0 l 549 0 l 376 369 l 335 369 l 335 0 l 89 0 l 89 992 l 372 992 m 369 793 l 335 793 l 335 557 l 368 557 q 453 588 422 557 q 483 686 483 619 q 471 745 483 721 q 433 781 458 769 q 369 793 408 793 m 547 -100 q 522 -171 536 -136 q 490 -240 507 -206 q 451 -307 474 -274 l 299 -307 l 299 -287 q 310 -225 304 -262 q 321 -150 317 -187 q 325 -85 325 -112 l 547 -85 l 547 -100 z "},"ŗ":{"ha":560,"x_min":76,"x_max":547,"o":"m 479 782 q 513 780 496 782 q 547 774 529 778 l 528 529 q 497 535 514 533 q 453 538 479 538 q 396 529 421 538 q 352 502 371 521 q 324 454 333 483 q 314 383 314 425 l 314 0 l 76 0 l 76 768 l 257 768 l 292 646 l 303 646 q 345 710 319 679 q 406 762 371 742 q 479 782 440 782 m 328 -100 q 302 -171 317 -136 q 271 -240 288 -206 q 232 -307 254 -274 l 79 -307 l 79 -287 q 91 -225 85 -262 q 101 -150 97 -187 q 106 -85 106 -112 l 328 -85 l 328 -100 z "},"Ř":{"ha":813,"x_min":89,"x_max":822,"o":"m 372 992 q 574 959 493 992 q 694 862 654 926 q 735 699 735 797 q 719 591 735 640 q 670 502 703 542 q 590 432 638 463 l 822 0 l 549 0 l 376 369 l 335 369 l 335 0 l 89 0 l 89 992 l 372 992 m 369 793 l 335 793 l 335 557 l 368 557 q 453 588 422 557 q 483 686 483 619 q 471 745 483 721 q 433 781 458 769 q 369 793 408 793 m 303 1065 q 262 1131 289 1092 q 206 1207 235 1169 q 157 1268 178 1244 l 157 1288 l 307 1288 q 358 1244 333 1268 q 414 1186 383 1219 q 470 1244 443 1219 q 522 1288 497 1269 l 669 1288 l 669 1268 q 622 1206 650 1243 q 569 1131 594 1168 q 525 1065 543 1094 l 303 1065 z "},"ř":{"ha":560,"x_min":47,"x_max":561,"o":"m 479 782 q 513 780 496 782 q 547 774 529 778 l 528 529 q 497 535 514 533 q 453 538 479 538 q 396 529 421 538 q 352 502 371 521 q 324 454 333 483 q 314 383 314 425 l 314 0 l 76 0 l 76 768 l 257 768 l 292 646 l 303 646 q 345 710 319 679 q 406 762 371 742 q 479 782 440 782 m 193 842 q 152 907 179 868 q 97 983 125 946 q 47 1044 68 1021 l 47 1064 l 197 1064 q 249 1020 224 1044 q 304 963 274 996 q 360 1021 333 996 q 413 1064 388 1046 l 560 1064 l 560 1044 q 513 982 540 1019 q 459 908 485 944 q 415 842 433 871 l 193 842 z "},"Ś":{"ha":682,"x_min":46,"x_max":643,"o":"m 643 301 q 604 141 643 213 q 491 28 565 69 q 310 -14 417 -14 q 215 -8 258 -14 q 131 11 172 -3 q 46 49 90 25 l 46 288 q 178 226 111 249 q 301 204 246 204 q 354 214 333 204 q 385 240 375 224 q 394 278 394 257 q 384 320 394 301 q 344 360 374 339 q 257 414 314 382 q 172 469 210 442 q 107 531 133 497 q 66 610 81 565 q 51 715 51 654 q 90 870 51 806 q 201 970 128 935 q 375 1006 274 1006 q 513 987 446 1006 q 643 935 581 968 l 575 728 q 471 775 521 758 q 379 792 421 792 q 333 783 351 792 q 307 760 315 775 q 299 728 299 746 q 310 684 299 703 q 354 644 322 665 q 447 588 386 622 q 555 513 511 553 q 621 422 599 472 q 643 301 643 371 m 610 1274 q 566 1229 593 1256 q 507 1174 539 1203 q 444 1117 475 1144 q 385 1065 413 1089 l 217 1065 l 217 1085 q 263 1154 239 1119 q 308 1223 286 1189 q 346 1288 329 1257 l 610 1288 l 610 1274 z "},"ś":{"ha":600,"x_min":42,"x_max":560,"o":"m 560 236 q 528 101 560 157 q 435 15 497 44 q 279 -14 372 -14 q 158 -4 215 -14 q 43 29 100 6 l 43 242 q 152 197 94 214 q 260 179 210 179 q 312 190 294 179 q 329 222 329 200 q 320 249 329 236 q 284 277 311 261 q 199 319 257 293 q 112 378 147 344 q 59 455 76 411 q 42 556 42 499 q 113 723 42 664 q 311 782 185 782 q 433 765 376 782 q 551 717 490 749 l 490 546 q 405 587 449 571 q 322 603 361 603 q 283 594 296 603 q 269 568 269 586 q 277 545 269 556 q 311 520 285 535 q 392 476 338 506 q 482 418 444 450 q 540 342 519 386 q 560 236 560 299 m 557 1050 q 513 1006 540 1032 q 454 950 486 979 q 391 893 422 921 q 332 842 360 865 l 164 842 l 164 861 q 210 931 186 896 q 255 999 233 965 q 293 1064 276 1033 l 557 1064 l 557 1050 z "},"Ŝ":{"ha":682,"x_min":46,"x_max":643,"o":"m 643 301 q 604 141 643 213 q 491 28 565 69 q 310 -14 417 -14 q 215 -8 258 -14 q 131 11 172 -3 q 46 49 90 25 l 46 288 q 178 226 111 249 q 301 204 246 204 q 354 214 333 204 q 385 240 375 224 q 394 278 394 257 q 384 320 394 301 q 344 360 374 339 q 257 414 314 382 q 172 469 210 442 q 107 531 133 497 q 66 610 81 565 q 51 715 51 654 q 90 870 51 806 q 201 970 128 935 q 375 1006 274 1006 q 513 987 446 1006 q 643 935 581 968 l 575 728 q 471 775 521 758 q 379 792 421 792 q 333 783 351 792 q 307 760 315 775 q 299 728 299 746 q 310 684 299 703 q 354 644 322 665 q 447 588 386 622 q 555 513 511 553 q 621 422 599 472 q 643 301 643 371 m 468 1288 q 510 1222 488 1257 q 560 1153 533 1188 q 613 1085 586 1118 l 613 1065 l 465 1065 q 413 1108 440 1083 q 357 1167 386 1133 q 299 1108 325 1133 q 250 1065 274 1083 l 100 1065 l 100 1085 q 149 1147 121 1108 q 205 1223 178 1185 q 246 1288 232 1261 l 468 1288 z "},"ŝ":{"ha":600,"x_min":42,"x_max":560,"o":"m 560 236 q 528 101 560 157 q 435 15 497 44 q 279 -14 372 -14 q 158 -4 215 -14 q 43 29 100 6 l 43 242 q 152 197 94 214 q 260 179 210 179 q 312 190 294 179 q 329 222 329 200 q 320 249 329 236 q 284 277 311 261 q 199 319 257 293 q 112 378 147 344 q 59 455 76 411 q 42 556 42 499 q 113 723 42 664 q 311 782 185 782 q 433 765 376 782 q 551 717 490 749 l 490 546 q 405 587 449 571 q 322 603 361 603 q 283 594 296 603 q 269 568 269 586 q 277 545 269 556 q 311 520 285 535 q 392 476 338 506 q 482 418 444 450 q 540 342 519 386 q 560 236 560 299 m 415 1064 q 458 999 435 1033 q 507 929 481 964 q 560 861 533 894 l 560 842 l 413 842 q 360 885 388 860 q 304 943 333 910 q 247 885 272 910 q 197 842 221 860 l 47 842 l 47 861 q 97 923 68 885 q 152 999 125 961 q 193 1064 179 1038 l 415 1064 z "},"Ş":{"ha":682,"x_min":46,"x_max":643,"o":"m 643 301 q 604 141 643 213 q 491 28 565 69 q 310 -14 417 -14 q 215 -8 258 -14 q 131 11 172 -3 q 46 49 90 25 l 46 288 q 178 226 111 249 q 301 204 246 204 q 354 214 333 204 q 385 240 375 224 q 394 278 394 257 q 384 320 394 301 q 344 360 374 339 q 257 414 314 382 q 172 469 210 442 q 107 531 133 497 q 66 610 81 565 q 51 715 51 654 q 90 870 51 806 q 201 970 128 935 q 375 1006 274 1006 q 513 987 446 1006 q 643 935 581 968 l 575 728 q 471 775 521 758 q 379 792 421 792 q 333 783 351 792 q 307 760 315 775 q 299 728 299 746 q 310 684 299 703 q 354 644 322 665 q 447 588 386 622 q 555 513 511 553 q 621 422 599 472 q 643 301 643 371 m 481 -174 q 433 -290 481 -246 q 301 -333 386 -333 q 230 -329 263 -333 q 171 -318 197 -325 l 171 -190 q 215 -200 194 -197 q 251 -203 235 -203 q 291 -193 278 -203 q 304 -164 304 -183 q 281 -126 304 -140 q 211 -110 257 -112 l 257 0 l 369 0 l 353 -46 q 418 -67 389 -51 q 464 -110 447 -83 q 481 -174 481 -136 z "},"ş":{"ha":600,"x_min":42,"x_max":560,"o":"m 560 236 q 528 101 560 157 q 435 15 497 44 q 279 -14 372 -14 q 158 -4 215 -14 q 43 29 100 6 l 43 242 q 152 197 94 214 q 260 179 210 179 q 312 190 294 179 q 329 222 329 200 q 320 249 329 236 q 284 277 311 261 q 199 319 257 293 q 112 378 147 344 q 59 455 76 411 q 42 556 42 499 q 113 723 42 664 q 311 782 185 782 q 433 765 376 782 q 551 717 490 749 l 490 546 q 405 587 449 571 q 322 603 361 603 q 283 594 296 603 q 269 568 269 586 q 277 545 269 556 q 311 520 285 535 q 392 476 338 506 q 482 418 444 450 q 540 342 519 386 q 560 236 560 299 m 438 -174 q 390 -290 438 -246 q 258 -333 343 -333 q 187 -329 219 -333 q 128 -318 154 -325 l 128 -190 q 172 -200 151 -197 q 208 -203 192 -203 q 248 -193 235 -203 q 261 -164 261 -183 q 238 -126 261 -140 q 168 -110 214 -112 l 214 0 l 326 0 l 310 -46 q 375 -67 346 -51 q 421 -110 404 -83 q 438 -174 438 -136 z "},"Š":{"ha":682,"x_min":46,"x_max":643,"o":"m 643 301 q 604 141 643 213 q 491 28 565 69 q 310 -14 417 -14 q 215 -8 258 -14 q 131 11 172 -3 q 46 49 90 25 l 46 288 q 178 226 111 249 q 301 204 246 204 q 354 214 333 204 q 385 240 375 224 q 394 278 394 257 q 384 320 394 301 q 344 360 374 339 q 257 414 314 382 q 172 469 210 442 q 107 531 133 497 q 66 610 81 565 q 51 715 51 654 q 90 870 51 806 q 201 970 128 935 q 375 1006 274 1006 q 513 987 446 1006 q 643 935 581 968 l 575 728 q 471 775 521 758 q 379 792 421 792 q 333 783 351 792 q 307 760 315 775 q 299 728 299 746 q 310 684 299 703 q 354 644 322 665 q 447 588 386 622 q 555 513 511 553 q 621 422 599 472 q 643 301 643 371 m 246 1065 q 205 1131 232 1092 q 149 1207 178 1169 q 100 1268 121 1244 l 100 1288 l 250 1288 q 301 1244 276 1268 q 357 1186 326 1219 q 413 1244 386 1219 q 465 1288 440 1269 l 613 1288 l 613 1268 q 565 1206 593 1243 q 512 1131 538 1168 q 468 1065 486 1094 l 246 1065 z "},"š":{"ha":600,"x_min":42,"x_max":560,"o":"m 560 236 q 528 101 560 157 q 435 15 497 44 q 279 -14 372 -14 q 158 -4 215 -14 q 43 29 100 6 l 43 242 q 152 197 94 214 q 260 179 210 179 q 312 190 294 179 q 329 222 329 200 q 320 249 329 236 q 284 277 311 261 q 199 319 257 293 q 112 378 147 344 q 59 455 76 411 q 42 556 42 499 q 113 723 42 664 q 311 782 185 782 q 433 765 376 782 q 551 717 490 749 l 490 546 q 405 587 449 571 q 322 603 361 603 q 283 594 296 603 q 269 568 269 586 q 277 545 269 556 q 311 520 285 535 q 392 476 338 506 q 482 418 444 450 q 540 342 519 386 q 560 236 560 299 m 193 842 q 152 907 179 868 q 97 983 125 946 q 47 1044 68 1021 l 47 1064 l 197 1064 q 249 1020 224 1044 q 304 963 274 996 q 360 1021 333 996 q 413 1064 388 1046 l 560 1064 l 560 1044 q 513 982 540 1019 q 459 908 485 944 q 415 842 433 871 l 193 842 z "},"Ț":{"ha":693,"x_min":26,"x_max":667,"o":"m 469 0 l 225 0 l 225 783 l 26 783 l 26 992 l 667 992 l 667 783 l 469 783 l 469 0 m 471 -100 q 445 -171 460 -136 q 414 -240 431 -206 q 375 -307 397 -274 l 222 -307 l 222 -287 q 234 -225 228 -262 q 244 -150 240 -187 q 249 -85 249 -112 l 471 -85 l 471 -100 z "},"ț":{"ha":536,"x_min":18,"x_max":506,"o":"m 399 185 q 450 192 424 185 q 506 211 476 200 l 506 29 q 423 -2 467 10 q 324 -14 379 -14 q 199 14 249 -14 q 124 100 149 42 q 100 253 100 158 l 100 579 l 18 579 l 18 696 l 121 761 l 178 922 l 338 922 l 338 768 l 496 768 l 496 579 l 338 579 l 338 260 q 353 203 338 222 q 399 185 368 185 m 436 -100 q 410 -171 425 -136 q 379 -240 396 -206 q 340 -307 363 -274 l 188 -307 l 188 -287 q 199 -225 193 -262 q 210 -150 206 -187 q 214 -85 214 -112 l 436 -85 l 436 -100 z "},"Ť":{"ha":693,"x_min":26,"x_max":667,"o":"m 469 0 l 225 0 l 225 783 l 26 783 l 26 992 l 667 992 l 667 783 l 469 783 l 469 0 m 236 1065 q 195 1131 222 1092 q 140 1207 168 1169 q 90 1268 111 1244 l 90 1288 l 240 1288 q 292 1244 267 1268 q 347 1186 317 1219 q 403 1244 376 1219 q 456 1288 431 1269 l 603 1288 l 603 1268 q 556 1206 583 1243 q 502 1131 528 1168 q 458 1065 476 1094 l 236 1065 z "},"ť":{"ha":536,"x_min":18,"x_max":760,"o":"m 760 1040 q 733 969 747 1004 q 701 901 718 935 q 663 833 685 868 l 510 833 l 510 853 q 518 898 514 872 q 526 952 522 924 q 534 1008 531 981 q 539 1056 538 1035 l 760 1056 l 760 1040 m 399 185 q 450 192 424 185 q 506 211 476 200 l 506 29 q 423 -2 467 10 q 324 -14 379 -14 q 199 14 249 -14 q 124 100 149 42 q 100 253 100 158 l 100 579 l 18 579 l 18 696 l 121 761 l 178 922 l 338 922 l 338 768 l 496 768 l 496 579 l 338 579 l 338 260 q 353 203 338 222 q 399 185 368 185 z "},"Ŧ":{"ha":693,"x_min":26,"x_max":667,"o":"m 225 0 l 225 388 l 104 388 l 104 575 l 225 575 l 225 783 l 26 783 l 26 992 l 667 992 l 667 783 l 469 783 l 469 575 l 592 575 l 592 388 l 469 388 l 469 0 l 225 0 z "},"ŧ":{"ha":544,"x_min":18,"x_max":506,"o":"m 26 304 l 26 464 l 478 464 l 478 304 l 26 304 m 399 185 q 450 192 424 185 q 506 211 476 200 l 506 29 q 423 -2 467 10 q 324 -14 379 -14 q 199 14 249 -14 q 124 100 149 42 q 100 253 100 158 l 100 579 l 18 579 l 18 696 l 121 761 l 178 922 l 338 922 l 338 768 l 496 768 l 496 579 l 338 579 l 338 260 q 353 203 338 222 q 399 185 368 185 z "},"Ũ":{"ha":888,"x_min":85,"x_max":803,"o":"m 803 354 q 762 153 803 236 q 640 28 721 71 q 440 -14 560 -14 q 176 78 268 -14 q 85 349 85 169 l 85 992 l 331 992 l 331 363 q 359 236 331 274 q 443 199 388 199 q 509 215 483 199 q 546 267 535 231 q 557 364 557 303 l 557 992 l 803 992 l 803 354 m 190 1063 q 199 1145 192 1104 q 220 1220 206 1186 q 261 1274 235 1254 q 328 1294 288 1294 q 383 1285 357 1294 q 436 1262 410 1275 q 488 1239 463 1249 q 538 1229 513 1229 q 564 1245 554 1229 q 581 1296 574 1261 l 699 1296 q 656 1122 696 1179 q 560 1064 617 1064 q 504 1074 533 1064 q 447 1097 475 1083 q 395 1119 419 1110 q 351 1129 371 1129 q 326 1115 340 1129 q 308 1063 313 1101 l 190 1063 z "},"ũ":{"ha":793,"x_min":75,"x_max":717,"o":"m 717 768 l 717 0 l 535 0 l 507 94 l 494 94 q 446 34 474 58 q 383 -2 418 10 q 304 -14 347 -14 q 183 18 235 -14 q 103 113 131 50 q 75 268 75 176 l 75 768 l 311 768 l 311 343 q 327 228 311 268 q 381 189 343 189 q 445 215 424 189 q 474 288 467 240 q 481 401 481 336 l 481 768 l 717 768 m 143 839 q 151 922 144 881 q 173 997 158 963 q 214 1051 188 1031 q 281 1071 240 1071 q 336 1061 310 1071 q 389 1038 363 1051 q 440 1015 415 1025 q 490 1006 465 1006 q 517 1022 507 1006 q 533 1072 526 1038 l 651 1072 q 609 898 649 956 q 513 840 569 840 q 457 850 486 840 q 400 873 428 860 q 348 896 372 886 q 304 906 324 906 q 279 892 293 906 q 261 839 265 878 l 143 839 z "},"Ū":{"ha":888,"x_min":85,"x_max":803,"o":"m 803 354 q 762 153 803 236 q 640 28 721 71 q 440 -14 560 -14 q 176 78 268 -14 q 85 349 85 169 l 85 992 l 331 992 l 331 363 q 359 236 331 274 q 443 199 388 199 q 509 215 483 199 q 546 267 535 231 q 557 364 557 303 l 557 992 l 803 992 l 803 354 m 663 1240 l 663 1081 l 226 1081 l 226 1240 l 663 1240 z "},"ū":{"ha":793,"x_min":75,"x_max":717,"o":"m 717 768 l 717 0 l 535 0 l 507 94 l 494 94 q 446 34 474 58 q 383 -2 418 10 q 304 -14 347 -14 q 183 18 235 -14 q 103 113 131 50 q 75 268 75 176 l 75 768 l 311 768 l 311 343 q 327 228 311 268 q 381 189 343 189 q 445 215 424 189 q 474 288 467 240 q 481 401 481 336 l 481 768 l 717 768 m 615 1017 l 615 857 l 179 857 l 179 1017 l 615 1017 z "},"Ŭ":{"ha":888,"x_min":85,"x_max":803,"o":"m 803 354 q 762 153 803 236 q 640 28 721 71 q 440 -14 560 -14 q 176 78 268 -14 q 85 349 85 169 l 85 992 l 331 992 l 331 363 q 359 236 331 274 q 443 199 388 199 q 509 215 483 199 q 546 267 535 231 q 557 364 557 303 l 557 992 l 803 992 l 803 354 m 681 1317 q 648 1183 679 1240 q 564 1096 617 1126 q 442 1065 511 1065 q 272 1130 336 1065 q 207 1317 208 1194 l 342 1317 q 358 1262 347 1282 q 390 1232 369 1242 q 442 1222 411 1222 q 492 1231 471 1222 q 526 1261 513 1240 q 543 1317 540 1282 l 681 1317 z "},"ŭ":{"ha":793,"x_min":75,"x_max":717,"o":"m 717 768 l 717 0 l 535 0 l 507 94 l 494 94 q 446 34 474 58 q 383 -2 418 10 q 304 -14 347 -14 q 183 18 235 -14 q 103 113 131 50 q 75 268 75 176 l 75 768 l 311 768 l 311 343 q 327 228 311 268 q 381 189 343 189 q 445 215 424 189 q 474 288 467 240 q 481 401 481 336 l 481 768 l 717 768 m 633 1093 q 601 960 632 1017 q 517 872 569 903 q 394 842 464 842 q 225 906 289 842 q 160 1093 161 971 l 294 1093 q 311 1038 300 1058 q 343 1008 322 1018 q 394 999 364 999 q 444 1008 424 999 q 479 1038 465 1017 q 496 1093 493 1058 l 633 1093 z "},"Ů":{"ha":888,"x_min":85,"x_max":803,"o":"m 803 354 q 762 153 803 236 q 640 28 721 71 q 440 -14 560 -14 q 176 78 268 -14 q 85 349 85 169 l 85 992 l 331 992 l 331 363 q 359 236 331 274 q 443 199 388 199 q 509 215 483 199 q 546 267 535 231 q 557 364 557 303 l 557 992 l 803 992 l 803 354 m 442 1063 q 316 1110 364 1063 q 268 1233 268 1158 q 316 1358 268 1310 q 442 1406 364 1406 q 568 1357 518 1406 q 618 1235 618 1308 q 569 1111 618 1160 q 442 1063 519 1063 m 442 1178 q 482 1194 465 1178 q 499 1235 499 1210 q 482 1276 499 1260 q 442 1292 465 1292 q 401 1276 418 1292 q 385 1235 385 1260 q 399 1194 385 1210 q 442 1178 414 1178 z "},"ů":{"ha":793,"x_min":75,"x_max":717,"o":"m 717 768 l 717 0 l 535 0 l 507 94 l 494 94 q 446 34 474 58 q 383 -2 418 10 q 304 -14 347 -14 q 183 18 235 -14 q 103 113 131 50 q 75 268 75 176 l 75 768 l 311 768 l 311 343 q 327 228 311 268 q 381 189 343 189 q 445 215 424 189 q 474 288 467 240 q 481 401 481 336 l 481 768 l 717 768 m 396 839 q 270 887 318 839 q 222 1010 222 935 q 270 1134 222 1086 q 396 1182 318 1182 q 522 1133 472 1182 q 572 1011 572 1085 q 523 888 572 936 q 396 839 474 839 m 396 954 q 436 970 419 954 q 453 1011 453 986 q 436 1052 453 1036 q 396 1068 419 1068 q 356 1052 372 1068 q 339 1011 339 1036 q 353 970 339 986 q 396 954 368 954 z "},"Ű":{"ha":888,"x_min":85,"x_max":803,"o":"m 803 354 q 762 153 803 236 q 640 28 721 71 q 440 -14 560 -14 q 176 78 268 -14 q 85 349 85 169 l 85 992 l 331 992 l 331 363 q 359 236 331 274 q 443 199 388 199 q 509 215 483 199 q 546 267 535 231 q 557 364 557 303 l 557 992 l 803 992 l 803 354 m 740 1274 q 707 1227 731 1254 q 653 1170 683 1200 q 590 1113 622 1140 q 533 1065 558 1085 l 413 1065 l 413 1085 q 457 1166 435 1128 q 496 1235 479 1204 q 522 1288 513 1267 l 740 1288 l 740 1274 m 472 1274 q 439 1227 463 1254 q 385 1171 415 1200 q 322 1115 356 1142 q 261 1065 289 1088 l 146 1065 l 146 1085 q 190 1167 169 1129 q 228 1235 211 1204 q 256 1288 246 1267 l 472 1288 l 472 1274 z "},"ű":{"ha":793,"x_min":75,"x_max":717,"o":"m 717 768 l 717 0 l 535 0 l 507 94 l 494 94 q 446 34 474 58 q 383 -2 418 10 q 304 -14 347 -14 q 183 18 235 -14 q 103 113 131 50 q 75 268 75 176 l 75 768 l 311 768 l 311 343 q 327 228 311 268 q 381 189 343 189 q 445 215 424 189 q 474 288 467 240 q 481 401 481 336 l 481 768 l 717 768 m 694 1050 q 661 1003 685 1031 q 607 947 638 976 q 544 889 576 917 q 488 842 513 861 l 367 842 l 367 861 q 411 942 389 904 q 450 1012 433 981 q 476 1064 467 1043 l 694 1064 l 694 1050 m 426 1050 q 393 1003 417 1031 q 340 947 369 976 q 276 891 310 918 q 215 842 243 864 l 100 842 l 100 861 q 144 943 124 906 q 183 1012 165 981 q 210 1064 200 1043 l 426 1064 l 426 1050 z "},"Ų":{"ha":888,"x_min":85,"x_max":803,"o":"m 571 -131 q 585 -169 571 -157 q 619 -181 599 -181 q 658 -176 635 -181 q 692 -165 681 -171 l 692 -315 q 636 -328 668 -324 q 574 -333 604 -333 q 444 -290 488 -333 q 400 -172 400 -247 q 411 -108 400 -140 q 449 -43 422 -76 q 522 25 476 -10 l 707 81 q 630 -5 660 32 q 585 -72 600 -42 q 571 -131 571 -103 m 803 354 q 762 153 803 236 q 640 28 721 71 q 440 -14 560 -14 q 176 78 268 -14 q 85 349 85 169 l 85 992 l 331 992 l 331 363 q 359 236 331 274 q 443 199 388 199 q 509 215 483 199 q 546 267 535 231 q 557 364 557 303 l 557 992 l 803 992 l 803 354 z "},"ų":{"ha":793,"x_min":75,"x_max":718,"o":"m 717 768 l 717 0 l 535 0 l 507 94 l 494 94 q 446 34 474 58 q 383 -2 418 10 q 304 -14 347 -14 q 183 18 235 -14 q 103 113 131 50 q 75 268 75 176 l 75 768 l 311 768 l 311 343 q 327 228 311 268 q 381 189 343 189 q 445 215 424 189 q 474 288 467 240 q 481 401 481 336 l 481 768 l 717 768 m 601 -131 q 616 -169 601 -154 q 657 -183 631 -183 q 691 -178 675 -183 q 718 -168 707 -174 l 718 -314 q 673 -327 700 -321 q 610 -333 646 -333 q 477 -292 524 -333 q 431 -178 431 -250 q 442 -112 431 -146 q 483 -44 454 -79 q 564 26 513 -8 l 676 0 q 617 -74 632 -46 q 601 -131 601 -101 z "},"Ŵ":{"ha":1221,"x_min":6,"x_max":1214,"o":"m 1214 992 l 1010 0 l 725 0 l 649 389 q 639 447 644 415 q 628 515 633 479 q 618 585 622 550 q 611 651 614 619 q 604 590 608 625 q 594 519 600 556 q 583 449 589 482 q 574 390 578 415 l 496 0 l 213 0 l 6 992 l 244 992 l 328 540 q 337 483 332 517 q 348 410 342 449 q 359 334 354 372 q 368 263 364 296 q 378 346 372 301 q 392 433 385 390 q 408 512 400 475 q 419 575 415 549 l 507 992 l 715 992 l 796 575 q 809 509 801 547 q 824 427 817 471 q 837 341 831 383 q 847 263 843 299 q 857 349 850 301 q 872 448 864 397 q 888 539 881 499 l 971 992 l 1214 992 m 722 1288 q 765 1222 742 1257 q 814 1153 788 1188 q 867 1085 840 1118 l 867 1065 l 719 1065 q 667 1108 694 1083 q 611 1167 640 1133 q 553 1108 579 1133 q 504 1065 528 1083 l 354 1065 l 354 1085 q 403 1147 375 1108 q 459 1223 432 1185 q 500 1288 486 1261 l 722 1288 z "},"ŵ":{"ha":1094,"x_min":10,"x_max":1085,"o":"m 579 338 q 570 393 575 364 q 561 453 565 422 q 554 511 557 483 q 549 560 551 539 l 543 560 q 536 507 540 536 q 528 447 532 478 q 520 388 525 417 q 510 336 515 360 l 446 0 l 185 0 l 10 768 l 246 768 l 292 511 q 305 431 299 476 q 315 339 311 386 q 321 249 319 292 l 326 249 q 332 308 329 276 q 340 372 335 339 q 350 435 344 404 q 361 496 356 467 l 414 768 l 683 768 l 733 492 q 747 405 740 449 q 760 321 754 361 q 767 249 765 281 l 772 249 q 780 337 775 290 q 791 428 785 383 q 804 511 797 474 l 854 768 l 1085 768 l 908 0 l 643 0 l 579 338 m 658 1064 q 701 999 678 1033 q 750 929 724 964 q 803 861 776 894 l 803 842 l 656 842 q 603 885 631 860 q 547 943 576 910 q 490 885 515 910 q 440 842 464 860 l 290 842 l 290 861 q 340 923 311 885 q 395 999 368 961 q 436 1064 422 1038 l 658 1064 z "},"Ŷ":{"ha":788,"x_min":0,"x_max":788,"o":"m 394 629 l 531 992 l 788 992 l 517 382 l 517 0 l 271 0 l 271 374 l 0 992 l 260 992 l 394 629 m 506 1288 q 548 1222 525 1257 q 597 1153 571 1188 q 650 1085 624 1118 l 650 1065 l 503 1065 q 451 1108 478 1083 q 394 1167 424 1133 q 337 1108 363 1133 q 288 1065 311 1083 l 138 1065 l 138 1085 q 187 1147 158 1108 q 242 1223 215 1185 q 283 1288 269 1261 l 506 1288 z "},"ŷ":{"ha":732,"x_min":1,"x_max":729,"o":"m 1 768 l 250 768 l 346 403 q 356 363 351 383 q 363 323 360 342 q 365 288 365 304 l 371 288 q 379 340 374 313 q 393 400 385 367 l 485 768 l 729 768 l 476 -49 q 403 -212 444 -150 q 306 -304 363 -275 q 171 -333 250 -333 q 117 -331 142 -333 q 71 -322 92 -328 l 71 -122 q 101 -128 85 -125 q 133 -131 117 -131 q 186 -119 167 -131 q 221 -78 206 -107 q 251 -1 236 -50 l 254 11 l 1 768 m 478 1064 q 520 999 497 1033 q 569 929 543 964 q 622 861 596 894 l 622 842 l 475 842 q 423 885 450 860 q 367 943 396 910 q 309 885 335 910 q 260 842 283 860 l 110 842 l 110 861 q 159 923 131 885 q 215 999 188 961 q 256 1064 242 1038 l 478 1064 z "},"Ÿ":{"ha":788,"x_min":0,"x_max":788,"o":"m 394 629 l 531 992 l 788 992 l 517 382 l 517 0 l 271 0 l 271 374 l 0 992 l 260 992 l 394 629 m 146 1182 q 175 1262 146 1235 q 250 1289 204 1289 q 326 1260 297 1289 q 356 1182 356 1232 q 326 1105 356 1133 q 250 1076 297 1076 q 175 1103 204 1076 q 146 1182 146 1131 m 432 1182 q 461 1262 432 1235 q 536 1289 490 1289 q 614 1260 585 1289 q 643 1182 643 1232 q 614 1105 643 1133 q 536 1076 585 1076 q 460 1104 489 1076 q 432 1182 432 1132 z "},"Ź":{"ha":713,"x_min":33,"x_max":682,"o":"m 682 0 l 33 0 l 33 165 l 394 786 l 40 786 l 40 992 l 672 992 l 672 826 l 313 207 l 682 207 l 682 0 m 615 1274 q 572 1229 599 1256 q 513 1174 544 1203 q 449 1117 481 1144 q 390 1065 418 1089 l 222 1065 l 222 1085 q 268 1154 244 1119 q 313 1223 292 1189 q 351 1288 335 1257 l 615 1288 l 615 1274 z "},"ź":{"ha":597,"x_min":25,"x_max":571,"o":"m 571 0 l 25 0 l 25 140 l 292 576 l 40 576 l 40 768 l 558 768 l 558 615 l 304 192 l 571 192 l 571 0 m 558 1050 q 515 1006 542 1032 q 456 950 488 979 q 392 893 424 921 q 333 842 361 865 l 165 842 l 165 861 q 211 931 188 896 q 256 999 235 965 q 294 1064 278 1033 l 558 1064 l 558 1050 z "},"Ż":{"ha":713,"x_min":33,"x_max":682,"o":"m 682 0 l 33 0 l 33 165 l 394 786 l 40 786 l 40 992 l 672 992 l 672 826 l 313 207 l 682 207 l 682 0 m 360 1301 q 453 1274 421 1301 q 486 1183 486 1246 q 453 1094 486 1122 q 360 1067 419 1067 q 268 1094 301 1067 q 235 1183 235 1122 q 267 1274 235 1246 q 360 1301 299 1301 z "},"ż":{"ha":597,"x_min":25,"x_max":571,"o":"m 571 0 l 25 0 l 25 140 l 292 576 l 40 576 l 40 768 l 558 768 l 558 615 l 304 192 l 571 192 l 571 0 m 303 1078 q 397 1050 364 1078 q 429 960 429 1022 q 396 871 429 899 q 303 843 363 843 q 211 871 244 843 q 178 960 178 899 q 210 1050 178 1022 q 303 1078 242 1078 z "},"Ž":{"ha":713,"x_min":33,"x_max":682,"o":"m 682 0 l 33 0 l 33 165 l 394 786 l 40 786 l 40 992 l 672 992 l 672 826 l 313 207 l 682 207 l 682 0 m 250 1065 q 209 1131 236 1092 q 153 1207 182 1169 q 104 1268 125 1244 l 104 1288 l 254 1288 q 306 1244 281 1268 q 361 1186 331 1219 q 417 1244 390 1219 q 469 1288 444 1269 l 617 1288 l 617 1268 q 569 1206 597 1243 q 516 1131 542 1168 q 472 1065 490 1094 l 250 1065 z "},"ž":{"ha":597,"x_min":25,"x_max":571,"o":"m 571 0 l 25 0 l 25 140 l 292 576 l 40 576 l 40 768 l 558 768 l 558 615 l 304 192 l 571 192 l 571 0 m 193 842 q 152 907 179 868 q 97 983 125 946 q 47 1044 68 1021 l 47 1064 l 197 1064 q 249 1020 224 1044 q 304 963 274 996 q 360 1021 333 996 q 413 1064 388 1046 l 560 1064 l 560 1044 q 513 982 540 1019 q 459 908 485 944 q 415 842 433 871 l 193 842 z "},"ſ":{"ha":474,"x_min":92,"x_max":511,"o":"m 382 874 q 341 853 353 874 q 329 789 329 833 l 329 0 l 92 0 l 92 778 q 119 948 92 886 q 198 1036 146 1010 q 328 1063 250 1063 q 423 1053 381 1063 q 511 1026 465 1044 l 465 858 q 424 869 444 865 q 382 874 404 874 z "},"ƒ":{"ha":675,"x_min":-12,"x_max":704,"o":"m 260 -337 q 56 -272 125 -337 q -12 -101 -12 -207 q -3 -33 -12 -68 q 15 19 6 1 l 193 -39 q 185 -62 188 -51 q 183 -87 183 -74 q 199 -135 183 -121 q 238 -149 214 -149 q 277 -128 263 -149 q 292 -68 292 -108 l 292 579 l 201 579 l 201 701 l 293 765 l 293 778 q 317 942 293 879 q 392 1033 340 1004 q 522 1063 443 1063 q 613 1054 572 1063 q 704 1026 653 1046 l 657 860 q 618 869 638 865 q 576 874 599 874 q 540 855 553 874 q 528 794 528 836 l 528 768 l 665 768 l 665 579 l 528 579 l 528 -50 q 496 -205 528 -140 q 404 -303 464 -269 q 260 -337 344 -337 z "},"Ǻ":{"ha":860,"x_min":0,"x_max":861,"o":"m 264 935 q 258 964 260 949 q 256 996 256 979 q 303 1121 256 1074 q 429 1168 351 1168 q 556 1120 506 1168 q 606 997 606 1072 q 603 965 606 981 q 594 935 600 949 l 861 0 l 596 0 l 554 192 l 308 192 l 267 0 l 0 0 l 264 935 m 350 400 l 511 400 l 471 588 q 456 660 464 619 q 441 739 447 700 q 431 803 435 778 q 424 757 428 783 q 414 701 419 731 q 403 644 408 672 q 392 590 397 615 l 350 400 m 429 940 q 469 956 453 940 q 486 997 486 972 q 469 1038 486 1022 q 429 1054 453 1054 q 389 1038 406 1054 q 372 997 372 1022 q 387 956 372 972 q 429 940 401 940 m 317 1226 q 366 1281 349 1263 q 394 1310 383 1299 q 415 1336 406 1322 l 692 1336 l 692 1326 q 653 1299 678 1315 q 599 1267 628 1283 q 544 1235 569 1250 q 501 1214 518 1221 l 317 1214 l 317 1226 z "},"ǻ":{"ha":740,"x_min":39,"x_max":665,"o":"m 399 782 q 594 713 524 782 q 665 504 665 643 l 665 0 l 497 0 l 456 101 l 450 101 q 394 37 424 63 q 328 -1 365 11 q 236 -14 290 -14 q 127 19 171 -14 q 61 110 83 53 q 39 236 39 167 q 110 420 39 361 q 319 485 181 479 l 428 489 l 428 506 q 408 577 428 554 q 349 600 388 600 q 267 585 313 600 q 169 543 222 571 l 106 713 q 239 764 165 746 q 399 782 313 782 m 382 340 q 303 314 328 339 q 278 244 278 289 q 294 187 278 206 q 339 168 310 168 q 403 199 376 168 q 429 278 429 229 l 429 343 l 382 340 m 376 1046 q 337 1031 354 1046 q 319 989 319 1015 q 334 948 319 964 q 376 932 349 932 q 417 948 400 932 q 433 989 433 964 q 417 1031 433 1015 q 376 1046 400 1046 m 376 1160 q 468 1138 428 1160 q 533 1078 508 1117 q 557 990 557 1040 q 506 867 557 915 q 376 818 454 818 q 251 866 299 818 q 203 989 203 914 q 251 1113 203 1065 q 376 1160 299 1160 m 635 1331 q 582 1287 618 1314 q 509 1234 546 1260 q 451 1196 472 1208 l 267 1196 l 267 1208 q 317 1271 299 1249 q 346 1308 335 1293 q 365 1339 357 1324 l 635 1339 l 635 1331 z "},"Ǽ":{"ha":1114,"x_min":-7,"x_max":1056,"o":"m 1056 0 l 546 0 l 546 192 l 322 192 l 264 0 l -7 0 l 336 992 l 1056 992 l 1056 788 l 789 788 l 789 615 l 1035 615 l 1035 411 l 789 411 l 789 207 l 1056 207 l 1056 0 m 385 400 l 546 400 l 546 783 l 499 783 l 385 400 m 833 1274 q 790 1229 817 1256 q 731 1174 763 1203 q 667 1117 699 1144 q 608 1065 636 1089 l 440 1065 l 440 1085 q 486 1154 463 1119 q 531 1223 510 1189 q 569 1288 553 1257 l 833 1288 l 833 1274 z "},"ǽ":{"ha":1094,"x_min":39,"x_max":1050,"o":"m 750 781 q 911 740 844 781 q 1014 622 978 700 q 1050 431 1050 544 l 1050 313 l 653 313 q 688 205 653 242 q 796 168 724 168 q 901 181 850 168 q 1008 228 953 194 l 1008 42 q 900 -1 957 13 q 767 -14 843 -14 q 665 -1 714 -14 q 574 39 615 13 q 506 108 533 65 q 434 39 471 67 q 354 -1 397 11 q 256 -14 311 -14 q 138 19 186 -14 q 64 110 89 53 q 39 236 39 167 q 73 373 39 319 q 169 454 107 426 q 321 485 232 482 l 428 489 l 428 507 q 407 578 428 556 q 350 600 386 600 q 267 586 313 600 q 169 544 222 572 l 107 713 q 233 765 164 747 q 371 782 301 782 q 478 765 432 782 q 557 717 525 749 q 640 765 594 749 q 750 781 686 781 m 382 340 q 303 314 328 339 q 278 243 278 289 q 294 187 278 206 q 339 168 310 168 q 384 182 364 168 q 417 221 404 196 q 429 278 429 246 l 429 343 l 382 340 m 746 606 q 681 576 707 606 q 654 474 656 546 l 833 474 q 823 547 833 518 q 793 591 813 576 q 746 606 774 606 m 814 1050 q 770 1006 797 1032 q 711 950 743 979 q 648 893 679 921 q 589 842 617 865 l 421 842 l 421 861 q 467 931 443 896 q 512 999 490 965 q 550 1064 533 1033 l 814 1064 l 814 1050 z "},"Ǿ":{"ha":936,"x_min":60,"x_max":876,"o":"m 876 497 q 851 281 876 375 q 775 119 825 186 q 648 19 725 53 q 468 -14 571 -14 q 373 -6 417 -14 q 290 18 329 3 l 243 -74 l 126 -12 l 183 94 q 88 272 115 172 q 60 499 60 372 q 105 774 60 661 q 242 947 150 888 q 468 1007 333 1007 q 569 998 522 1007 q 654 971 615 989 l 697 1050 l 813 990 l 760 893 q 848 728 819 828 q 876 497 876 628 m 625 497 q 615 632 625 574 l 392 215 q 426 198 407 204 q 468 192 446 192 q 557 226 522 192 q 608 329 592 261 q 625 497 625 397 m 311 497 q 314 415 311 453 q 324 346 317 378 l 551 771 q 514 795 535 788 q 468 803 493 803 q 380 768 415 803 q 328 665 344 733 q 311 497 311 597 m 725 1274 q 681 1229 708 1256 q 622 1174 654 1203 q 559 1117 590 1144 q 500 1065 528 1089 l 332 1065 l 332 1085 q 378 1154 354 1119 q 423 1223 401 1189 q 461 1288 444 1257 l 725 1288 l 725 1274 z "},"ǿ":{"ha":779,"x_min":49,"x_max":729,"o":"m 729 386 q 689 171 729 261 q 572 33 649 81 q 388 -14 496 -14 q 319 -8 351 -14 q 257 10 286 -1 l 210 -79 l 100 -24 l 156 78 q 75 215 101 139 q 49 386 49 290 q 140 678 49 575 q 390 782 231 782 q 460 776 428 782 q 522 757 493 769 l 563 831 l 671 775 l 625 688 q 702 560 675 638 q 729 386 729 482 m 275 385 q 276 338 275 360 q 281 297 278 317 l 440 590 q 417 601 429 599 q 389 604 404 604 q 302 550 329 604 q 275 385 275 496 m 503 386 q 502 428 503 408 q 499 467 501 449 l 342 176 q 363 166 351 169 q 389 163 375 163 q 458 188 433 163 q 492 264 482 214 q 503 386 503 314 m 646 1050 q 602 1006 629 1032 q 543 950 575 979 q 480 893 511 921 q 421 842 449 865 l 253 842 l 253 861 q 299 931 275 896 q 344 999 322 965 q 382 1064 365 1033 l 646 1064 l 646 1050 z "},"Ș":{"ha":682,"x_min":46,"x_max":643,"o":"m 643 301 q 604 141 643 213 q 491 28 565 69 q 310 -14 417 -14 q 215 -8 258 -14 q 131 11 172 -3 q 46 49 90 25 l 46 288 q 178 226 111 249 q 301 204 246 204 q 354 214 333 204 q 385 240 375 224 q 394 278 394 257 q 384 320 394 301 q 344 360 374 339 q 257 414 314 382 q 172 469 210 442 q 107 531 133 497 q 66 610 81 565 q 51 715 51 654 q 90 870 51 806 q 201 970 128 935 q 375 1006 274 1006 q 513 987 446 1006 q 643 935 581 968 l 575 728 q 471 775 521 758 q 379 792 421 792 q 333 783 351 792 q 307 760 315 775 q 299 728 299 746 q 310 684 299 703 q 354 644 322 665 q 447 588 386 622 q 555 513 511 553 q 621 422 599 472 q 643 301 643 371 m 451 -100 q 426 -171 440 -136 q 394 -240 411 -206 q 356 -307 378 -274 l 203 -307 l 203 -287 q 215 -225 208 -262 q 225 -150 221 -187 q 229 -85 229 -112 l 451 -85 l 451 -100 z "},"ș":{"ha":600,"x_min":42,"x_max":560,"o":"m 560 236 q 528 101 560 157 q 435 15 497 44 q 279 -14 372 -14 q 158 -4 215 -14 q 43 29 100 6 l 43 242 q 152 197 94 214 q 260 179 210 179 q 312 190 294 179 q 329 222 329 200 q 320 249 329 236 q 284 277 311 261 q 199 319 257 293 q 112 378 147 344 q 59 455 76 411 q 42 556 42 499 q 113 723 42 664 q 311 782 185 782 q 433 765 376 782 q 551 717 490 749 l 490 546 q 405 587 449 571 q 322 603 361 603 q 283 594 296 603 q 269 568 269 586 q 277 545 269 556 q 311 520 285 535 q 392 476 338 506 q 482 418 444 450 q 540 342 519 386 q 560 236 560 299 m 408 -100 q 383 -171 397 -136 q 351 -240 368 -206 q 313 -307 335 -274 l 160 -307 l 160 -287 q 172 -225 165 -262 q 182 -150 178 -187 q 186 -85 186 -112 l 408 -85 l 408 -100 z "},"ˆ":{"ha":624,"x_min":56,"x_max":568,"o":"m 424 1064 q 466 999 443 1033 q 515 929 489 964 q 568 861 542 894 l 568 842 l 421 842 q 369 885 396 860 q 313 943 342 910 q 255 885 281 910 q 206 842 229 860 l 56 842 l 56 861 q 105 923 76 885 q 160 999 133 961 q 201 1064 188 1038 l 424 1064 z "},"ˇ":{"ha":624,"x_min":56,"x_max":568,"o":"m 201 842 q 160 907 188 868 q 105 983 133 946 q 56 1044 76 1021 l 56 1064 l 206 1064 q 257 1020 232 1044 q 313 963 282 996 q 369 1021 342 996 q 421 1064 396 1046 l 568 1064 l 568 1044 q 521 982 549 1019 q 467 908 493 944 q 424 842 442 871 l 201 842 z "},"ˉ":{"ha":547,"x_min":56,"x_max":492,"o":"m 492 1017 l 492 857 l 56 857 l 56 1017 l 492 1017 z "},"˘":{"ha":585,"x_min":56,"x_max":529,"o":"m 529 1093 q 497 960 528 1017 q 413 872 465 903 q 290 842 360 842 q 121 906 185 842 q 56 1093 57 971 l 190 1093 q 207 1038 196 1058 q 239 1008 218 1018 q 290 999 260 999 q 340 1008 319 999 q 375 1038 361 1017 q 392 1093 389 1058 l 529 1093 z "},"˙":{"ha":363,"x_min":56,"x_max":307,"o":"m 181 1078 q 274 1050 242 1078 q 307 960 307 1022 q 274 871 307 899 q 181 843 240 843 q 89 871 122 843 q 56 960 56 899 q 88 1050 56 1022 q 181 1078 119 1078 z "},"˚":{"ha":461,"x_min":56,"x_max":406,"o":"m 229 839 q 103 887 151 839 q 56 1010 56 935 q 103 1134 56 1086 q 229 1182 151 1182 q 356 1133 306 1182 q 406 1011 406 1085 q 356 888 406 936 q 229 839 307 839 m 229 954 q 269 970 253 954 q 286 1011 286 986 q 269 1052 286 1036 q 229 1068 253 1068 q 189 1052 206 1068 q 172 1011 172 1036 q 187 970 172 986 q 229 954 201 954 z "},"˛":{"ha":399,"x_min":56,"x_max":343,"o":"m 226 -131 q 241 -169 226 -154 q 282 -183 256 -183 q 316 -178 300 -183 q 343 -168 332 -174 l 343 -314 q 298 -327 325 -321 q 235 -333 271 -333 q 102 -292 149 -333 q 56 -178 56 -250 q 67 -112 56 -146 q 108 -44 79 -79 q 189 26 138 -8 l 301 0 q 242 -74 257 -46 q 226 -131 226 -101 z "},"˜":{"ha":619,"x_min":56,"x_max":564,"o":"m 56 839 q 64 922 57 881 q 85 997 71 963 q 126 1051 100 1031 q 193 1071 153 1071 q 249 1061 222 1071 q 301 1038 275 1051 q 353 1015 328 1025 q 403 1006 378 1006 q 429 1022 419 1006 q 446 1072 439 1038 l 564 1072 q 522 898 561 956 q 425 840 482 840 q 369 850 399 840 q 313 873 340 860 q 260 896 285 886 q 217 906 236 906 q 192 892 206 906 q 174 839 178 878 l 56 839 z "},"˝":{"ha":706,"x_min":56,"x_max":650,"o":"m 650 1050 q 617 1003 640 1031 q 563 947 593 976 q 500 889 532 917 q 443 842 468 861 l 322 842 l 322 861 q 367 942 344 904 q 406 1012 389 981 q 432 1064 422 1043 l 650 1064 l 650 1050 m 382 1050 q 349 1003 372 1031 q 295 947 325 976 q 232 891 265 918 q 171 842 199 864 l 56 842 l 56 861 q 100 943 79 906 q 138 1012 121 981 q 165 1064 156 1043 l 382 1064 l 382 1050 z "},"΄":{"ha":426,"x_min":56,"x_max":371,"o":"m 56 842 l 56 861 l 121 1078 l 371 1078 l 371 1064 l 210 842 l 56 842 z "},"΅":{"ha":967,"x_min":104,"x_max":869,"o":"m 347 842 l 347 861 l 399 1078 l 649 1078 l 649 1064 l 503 842 l 347 842 m 208 853 q 133 880 163 853 q 104 957 104 907 q 133 1038 104 1011 q 207 1065 163 1065 q 285 1037 256 1065 q 314 958 314 1008 q 285 881 314 910 q 208 853 256 853 m 763 853 q 687 881 715 853 q 658 957 658 908 q 688 1038 658 1011 q 764 1065 717 1065 q 840 1037 811 1065 q 869 958 869 1008 q 840 881 869 910 q 763 853 811 853 z "},"Ά":{"ha":1029,"x_min":14,"x_max":1029,"o":"m 764 0 l 722 192 l 476 192 l 435 0 l 168 0 l 435 993 l 760 993 l 1029 0 l 764 0 m 640 603 q 626 676 633 638 q 611 754 618 715 q 599 822 604 793 q 590 756 596 793 q 575 681 583 719 q 560 606 567 642 l 518 399 l 681 399 l 640 603 m 14 756 l 14 775 l 79 992 l 329 992 l 329 978 l 168 756 l 14 756 z "},"·":{"ha":386,"x_min":61,"x_max":324,"o":"m 61 649 q 97 747 61 714 q 194 779 133 779 q 290 747 256 779 q 324 649 324 714 q 289 552 324 585 q 194 519 254 519 q 99 552 136 519 q 61 649 61 585 z "},"Έ":{"ha":988,"x_min":14,"x_max":929,"o":"m 928 0 l 417 0 l 417 992 l 928 992 l 928 788 l 663 788 l 663 615 l 908 615 l 908 411 l 663 411 l 663 207 l 928 207 l 928 0 m 14 756 l 14 775 l 79 992 l 329 992 l 329 978 l 168 756 l 14 756 z "},"Ή":{"ha":1239,"x_min":14,"x_max":1150,"o":"m 1150 0 l 903 0 l 903 411 l 664 411 l 664 0 l 417 0 l 417 992 l 664 992 l 664 618 l 903 618 l 903 992 l 1150 992 l 1150 0 m 14 756 l 14 775 l 79 992 l 329 992 l 329 978 l 168 756 l 14 756 z "},"Ί":{"ha":883,"x_min":14,"x_max":844,"o":"m 844 0 l 394 0 l 394 135 l 496 182 l 496 810 l 394 857 l 394 992 l 844 992 l 844 857 l 742 810 l 742 182 l 844 135 l 844 0 m 14 756 l 14 775 l 79 992 l 329 992 l 329 978 l 168 756 l 14 756 z "},"Ό":{"ha":1194,"x_min":14,"x_max":1135,"o":"m 1135 497 q 1109 281 1135 375 q 1033 119 1083 186 q 906 19 983 53 q 726 -14 829 -14 q 549 20 625 -14 q 420 120 472 54 q 343 281 368 186 q 318 499 318 376 q 363 774 318 661 q 500 947 408 888 q 726 1007 592 1007 q 955 948 864 1007 q 1090 775 1046 889 q 1135 497 1135 661 m 574 497 q 590 333 574 400 q 641 233 607 267 q 726 199 675 199 q 813 231 779 199 q 863 331 847 264 q 878 497 878 397 q 842 723 878 647 q 726 799 806 799 q 641 765 675 799 q 590 663 607 731 q 574 497 574 596 m 14 756 l 14 775 l 79 992 l 329 992 l 329 978 l 168 756 l 14 756 z "},"Ύ":{"ha":1186,"x_min":14,"x_max":1186,"o":"m 792 629 l 928 992 l 1185 992 l 914 382 l 914 0 l 668 0 l 668 374 l 397 992 l 657 992 l 792 629 m 14 756 l 14 775 l 79 992 l 329 992 l 329 978 l 168 756 l 14 756 z "},"Ώ":{"ha":1154,"x_min":14,"x_max":1125,"o":"m 300 0 l 300 208 l 475 208 q 377 294 415 242 q 321 415 339 346 q 303 568 303 485 q 353 801 303 703 q 494 953 403 900 q 713 1007 586 1007 q 926 954 835 1007 q 1070 803 1018 901 q 1122 569 1122 706 q 1104 418 1122 486 q 1048 297 1086 350 q 944 208 1010 244 l 1125 208 l 1125 0 l 760 0 l 760 236 q 826 313 801 268 q 862 418 851 358 q 872 550 872 478 q 853 690 872 635 q 799 772 835 744 q 713 799 764 799 q 626 771 663 799 q 572 688 590 743 q 553 547 553 632 q 563 417 553 476 q 597 312 572 357 q 663 236 622 267 l 663 0 l 300 0 m 14 756 l 14 775 l 79 992 l 329 992 l 329 978 l 168 756 l 14 756 z "},"ΐ":{"ha":478,"x_min":-122,"x_max":642,"o":"m 324 -14 q 186 19 242 -12 q 103 110 131 50 q 75 257 75 171 l 75 768 l 313 768 l 313 286 q 331 209 313 232 q 379 186 349 186 q 413 190 397 186 q 449 199 429 193 l 449 3 q 387 -10 421 -6 q 324 -14 353 -14 m 119 842 l 119 861 l 171 1078 l 421 1078 l 421 1064 l 275 842 l 119 842 m -19 853 q -94 880 -65 853 q -124 957 -124 907 q -94 1038 -124 1011 q -21 1065 -65 1065 q 57 1037 28 1065 q 86 958 86 1008 q 57 881 86 910 q -19 853 28 853 m 535 853 q 459 881 488 853 q 431 957 431 908 q 460 1038 431 1011 q 536 1065 489 1065 q 613 1037 583 1065 q 642 958 642 1008 q 613 881 642 910 q 535 853 583 853 z "},"Α":{"ha":861,"x_min":0,"x_max":861,"o":"m 596 0 l 554 192 l 308 192 l 267 0 l 0 0 l 267 993 l 592 993 l 861 0 l 596 0 m 472 603 q 458 676 465 638 q 443 754 450 715 q 431 822 436 793 q 422 756 428 793 q 407 681 415 719 q 392 606 399 642 l 350 399 l 513 399 l 472 603 z "},"Β":{"ha":824,"x_min":89,"x_max":763,"o":"m 394 992 q 661 931 576 992 q 746 744 746 869 q 727 642 746 688 q 678 567 708 597 q 608 526 647 538 l 608 519 q 691 476 657 506 q 744 402 725 447 q 763 290 763 357 q 722 136 763 201 q 606 35 681 71 q 426 0 531 0 l 89 0 l 89 992 l 394 992 m 396 607 q 471 633 446 607 q 496 707 496 660 q 470 774 496 751 q 390 797 444 797 l 335 797 l 335 607 l 396 607 m 335 419 l 335 199 l 406 199 q 486 228 461 199 q 511 311 511 257 q 499 368 511 344 q 464 406 488 392 q 403 419 440 419 l 335 419 z "},"Γ":{"ha":631,"x_min":89,"x_max":579,"o":"m 89 0 l 89 992 l 579 992 l 579 788 l 333 788 l 333 0 l 89 0 z "},"Δ":{"ha":853,"x_min":14,"x_max":839,"o":"m 14 0 l 14 113 l 263 993 l 588 993 l 839 111 l 839 0 l 14 0 m 296 208 l 558 208 l 471 603 q 455 676 464 638 q 439 754 446 715 q 426 822 432 793 q 416 756 424 793 q 400 681 408 719 q 383 606 392 642 l 296 208 z "},"Ε":{"ha":660,"x_min":89,"x_max":600,"o":"m 600 0 l 89 0 l 89 992 l 600 992 l 600 788 l 335 788 l 335 615 l 581 615 l 581 411 l 335 411 l 335 207 l 600 207 l 600 0 z "},"Ζ":{"ha":713,"x_min":33,"x_max":682,"o":"m 682 0 l 33 0 l 33 165 l 394 786 l 40 786 l 40 992 l 672 992 l 672 826 l 313 207 l 682 207 l 682 0 z "},"Η":{"ha":911,"x_min":89,"x_max":822,"o":"m 822 0 l 575 0 l 575 411 l 336 411 l 336 0 l 89 0 l 89 992 l 336 992 l 336 618 l 575 618 l 575 992 l 822 992 l 822 0 z "},"Θ":{"ha":936,"x_min":60,"x_max":876,"o":"m 361 408 l 361 600 l 574 600 l 574 408 l 361 408 m 876 497 q 851 281 876 375 q 775 119 825 186 q 648 19 725 53 q 468 -14 571 -14 q 290 20 367 -14 q 162 120 214 54 q 85 281 110 186 q 60 499 60 376 q 105 774 60 661 q 242 947 150 888 q 468 1007 333 1007 q 697 948 606 1007 q 832 775 788 889 q 876 497 876 661 m 315 497 q 332 333 315 400 q 383 233 349 267 q 468 199 417 199 q 555 231 521 199 q 604 331 589 264 q 619 497 619 397 q 583 723 619 647 q 468 799 547 799 q 383 765 417 799 q 332 663 349 731 q 315 497 315 596 z "},"Ι":{"ha":528,"x_min":39,"x_max":489,"o":"m 489 0 l 39 0 l 39 135 l 140 182 l 140 810 l 39 857 l 39 992 l 489 992 l 489 857 l 386 810 l 386 182 l 489 135 l 489 0 z "},"Κ":{"ha":822,"x_min":89,"x_max":836,"o":"m 832 0 l 558 0 l 399 372 l 336 332 l 336 0 l 89 0 l 89 992 l 336 992 l 336 561 q 362 623 346 592 q 396 688 378 654 l 571 992 l 836 992 l 575 547 l 832 0 z "},"Λ":{"ha":853,"x_min":0,"x_max":853,"o":"m 0 0 l 263 993 l 588 993 l 853 0 l 588 0 l 467 603 q 452 676 460 638 q 438 754 444 715 q 426 822 432 793 q 417 756 424 793 q 403 681 411 719 q 389 606 396 642 l 267 0 l 0 0 z "},"Μ":{"ha":1188,"x_min":89,"x_max":1099,"o":"m 489 0 l 308 681 l 303 681 q 309 598 307 642 q 313 512 311 554 q 315 431 315 469 l 315 0 l 89 0 l 89 992 l 424 992 l 593 364 l 597 364 l 767 992 l 1099 992 l 1099 0 l 865 0 l 865 435 q 867 517 865 475 q 871 601 868 558 q 875 681 874 643 l 869 681 l 689 0 l 489 0 z "},"Ν":{"ha":985,"x_min":89,"x_max":896,"o":"m 896 0 l 597 0 l 308 642 l 303 642 q 310 547 307 593 q 313 461 313 501 q 314 390 314 421 l 314 0 l 89 0 l 89 992 l 386 992 l 675 365 l 679 365 q 674 453 676 410 q 671 536 672 497 q 669 606 669 575 l 669 992 l 896 992 l 896 0 z "},"Ξ":{"ha":743,"x_min":58,"x_max":683,"o":"m 58 0 l 58 207 l 683 207 l 683 0 l 58 0 m 129 414 l 129 621 l 614 621 l 614 414 l 129 414 m 82 785 l 82 992 l 661 992 l 661 785 l 82 785 z "},"Ο":{"ha":936,"x_min":60,"x_max":876,"o":"m 876 497 q 851 281 876 375 q 775 119 825 186 q 648 19 725 53 q 468 -14 571 -14 q 290 20 367 -14 q 162 120 214 54 q 85 281 110 186 q 60 499 60 376 q 105 774 60 661 q 242 947 150 888 q 468 1007 333 1007 q 697 948 606 1007 q 832 775 788 889 q 876 497 876 661 m 315 497 q 332 333 315 400 q 383 233 349 267 q 468 199 417 199 q 555 231 521 199 q 604 331 589 264 q 619 497 619 397 q 583 723 619 647 q 468 799 547 799 q 383 765 417 799 q 332 663 349 731 q 315 497 315 596 z "},"Π":{"ha":907,"x_min":89,"x_max":818,"o":"m 89 0 l 89 992 l 818 992 l 818 0 l 571 0 l 571 783 l 336 783 l 336 0 l 89 0 z "},"Ρ":{"ha":769,"x_min":89,"x_max":726,"o":"m 399 992 q 644 910 563 992 q 726 676 726 828 q 707 540 726 603 q 647 431 688 478 q 543 356 607 383 q 390 329 479 329 l 335 329 l 335 0 l 89 0 l 89 992 l 399 992 m 381 786 l 335 786 l 335 535 l 365 535 q 425 549 399 535 q 466 593 451 563 q 481 674 481 624 q 456 757 481 728 q 381 786 432 786 z "},"Σ":{"ha":713,"x_min":33,"x_max":681,"o":"m 33 0 l 33 193 l 269 518 l 42 801 l 42 992 l 674 992 l 674 786 l 457 788 q 383 788 421 788 q 318 794 344 789 l 513 551 l 513 507 l 293 199 q 376 206 332 204 q 457 207 421 207 l 681 207 l 681 0 l 33 0 z "},"Τ":{"ha":693,"x_min":26,"x_max":667,"o":"m 469 0 l 225 0 l 225 783 l 26 783 l 26 992 l 667 992 l 667 783 l 469 783 l 469 0 z "},"Υ":{"ha":788,"x_min":0,"x_max":788,"o":"m 394 629 l 531 992 l 788 992 l 517 382 l 517 0 l 271 0 l 271 374 l 0 992 l 260 992 l 394 629 z "},"Φ":{"ha":1151,"x_min":46,"x_max":1106,"o":"m 457 -14 l 457 125 q 267 153 346 125 q 140 235 189 182 q 68 358 90 288 q 46 514 46 429 q 67 656 46 588 q 135 779 88 725 q 261 865 182 833 q 457 897 340 897 l 457 1006 l 694 1006 l 694 897 q 879 867 801 897 q 1007 783 957 836 q 1081 660 1057 729 q 1106 513 1106 590 q 1082 360 1106 431 q 1008 237 1058 290 q 880 154 958 183 q 694 125 801 125 l 694 -14 l 457 -14 m 457 322 l 457 700 q 353 677 390 700 q 301 613 315 654 q 286 515 286 572 q 301 410 286 453 q 353 344 317 367 q 457 322 390 322 m 694 322 q 798 346 761 322 q 850 413 835 369 q 865 515 865 457 q 849 608 865 567 q 796 675 833 650 q 694 700 758 700 l 694 322 z "},"Χ":{"ha":807,"x_min":-1,"x_max":807,"o":"m 807 0 l 536 0 l 401 293 l 264 0 l -1 0 l 256 499 l 14 992 l 275 992 l 396 707 l 511 992 l 778 992 l 540 499 l 807 0 z "},"Ψ":{"ha":1106,"x_min":85,"x_max":1022,"o":"m 435 0 l 435 228 q 287 248 351 229 q 177 309 222 267 q 108 419 132 351 q 85 588 85 488 l 85 992 l 329 992 l 329 583 q 342 487 329 518 q 378 446 354 456 q 435 436 401 436 l 435 992 l 672 992 l 672 436 q 725 448 701 436 q 763 491 749 460 q 778 579 778 522 l 778 992 l 1022 992 l 1022 606 q 980 388 1022 471 q 859 267 938 304 q 672 228 781 229 l 672 0 l 435 0 z "},"Ω":{"ha":881,"x_min":28,"x_max":853,"o":"m 28 0 l 28 208 l 203 208 q 105 294 143 242 q 49 415 67 346 q 31 568 31 485 q 81 801 31 703 q 222 953 131 900 q 440 1007 314 1007 q 654 954 563 1007 q 798 803 746 901 q 850 569 850 706 q 832 418 850 486 q 776 297 814 350 q 672 208 738 244 l 853 208 l 853 0 l 488 0 l 488 236 q 554 313 529 268 q 590 418 579 358 q 600 550 600 478 q 581 690 600 635 q 527 772 563 744 q 440 799 492 799 q 354 771 390 799 q 299 688 318 743 q 281 547 281 632 q 290 417 281 476 q 325 312 300 357 q 390 236 350 267 l 390 0 l 28 0 z "},"Ϊ":{"ha":528,"x_min":15,"x_max":511,"o":"m 489 0 l 39 0 l 39 135 l 140 182 l 140 810 l 39 857 l 39 992 l 489 992 l 489 857 l 386 810 l 386 182 l 489 135 l 489 0 m 15 1182 q 44 1262 15 1235 q 119 1289 74 1289 q 196 1260 167 1289 q 225 1182 225 1232 q 196 1105 225 1133 q 119 1076 167 1076 q 44 1103 74 1076 q 15 1182 15 1131 m 301 1182 q 331 1262 301 1235 q 406 1289 360 1289 q 483 1260 454 1289 q 513 1182 513 1232 q 483 1105 513 1133 q 406 1076 454 1076 q 330 1104 358 1076 q 301 1182 301 1132 z "},"Ϋ":{"ha":788,"x_min":0,"x_max":788,"o":"m 394 629 l 531 992 l 788 992 l 517 382 l 517 0 l 271 0 l 271 374 l 0 992 l 260 992 l 394 629 m 146 1182 q 175 1262 146 1235 q 250 1289 204 1289 q 326 1260 297 1289 q 356 1182 356 1232 q 326 1105 356 1133 q 250 1076 297 1076 q 175 1103 204 1076 q 146 1182 146 1131 m 432 1182 q 461 1262 432 1235 q 536 1289 490 1289 q 614 1260 585 1289 q 643 1182 643 1232 q 614 1105 643 1133 q 536 1076 585 1076 q 460 1104 489 1076 q 432 1182 432 1132 z "},"ά":{"ha":818,"x_min":49,"x_max":788,"o":"m 288 -14 q 159 35 213 -14 q 77 173 106 85 q 49 381 49 261 q 113 674 49 568 q 294 781 176 781 q 375 766 343 781 q 428 726 407 751 q 468 672 450 701 l 478 672 l 496 768 l 701 768 l 701 267 q 715 204 701 224 q 751 185 729 185 q 771 187 761 185 q 788 192 781 189 l 788 4 q 764 -4 782 0 q 725 -11 746 -8 q 693 -14 704 -14 q 563 12 611 -14 q 488 99 515 38 l 472 99 q 425 38 453 64 q 363 -1 397 13 q 288 -14 329 -14 m 375 183 q 431 201 410 183 q 461 257 451 218 q 471 364 471 296 l 471 392 q 449 540 471 494 q 375 585 426 585 q 310 532 331 585 q 289 379 289 479 q 310 231 289 279 q 375 183 332 183 m 304 842 l 304 861 l 369 1078 l 619 1078 l 619 1064 l 458 842 l 304 842 z "},"έ":{"ha":617,"x_min":35,"x_max":582,"o":"m 338 -14 q 113 48 190 -14 q 35 218 35 110 q 54 304 35 267 q 108 367 74 342 q 186 399 142 392 l 186 406 q 102 466 132 422 q 72 571 72 510 q 106 689 72 642 q 202 759 140 736 q 342 782 264 782 q 465 769 408 782 q 581 722 522 757 l 518 549 q 447 585 481 574 q 375 596 413 596 q 312 581 332 596 q 292 540 292 565 q 314 497 292 511 q 378 482 336 482 l 457 482 l 457 308 l 374 308 q 309 300 332 308 q 276 277 286 292 q 267 242 267 263 q 293 190 267 208 q 372 172 319 172 q 486 190 442 172 q 576 239 531 208 l 576 46 q 466 0 522 14 q 338 -14 410 -14 m 265 842 l 265 861 l 331 1078 l 581 1078 l 581 1064 l 419 842 l 265 842 z "},"ή":{"ha":786,"x_min":76,"x_max":711,"o":"m 474 -333 l 474 431 q 458 541 474 503 q 401 579 443 579 q 349 556 368 579 q 321 482 329 533 q 313 347 313 431 l 313 0 l 76 0 l 76 768 l 260 768 l 288 674 l 300 674 q 349 735 321 711 q 413 770 376 758 q 488 782 449 782 q 606 750 556 782 q 683 656 656 718 q 711 500 711 593 l 711 -333 l 474 -333 m 279 842 l 279 861 l 344 1078 l 594 1078 l 594 1064 l 433 842 l 279 842 z "},"ί":{"ha":478,"x_min":75,"x_max":449,"o":"m 324 -14 q 186 19 242 -12 q 103 110 131 50 q 75 257 75 171 l 75 768 l 313 768 l 313 286 q 331 209 313 232 q 379 186 349 186 q 413 190 397 186 q 449 199 429 193 l 449 3 q 387 -10 421 -6 q 324 -14 353 -14 m 128 842 l 128 861 l 193 1078 l 443 1078 l 443 1064 l 282 842 l 128 842 z "},"ΰ":{"ha":776,"x_min":50,"x_max":815,"o":"m 369 -11 q 228 11 285 -11 q 138 76 171 33 q 90 179 104 118 q 75 318 75 240 l 75 768 l 311 768 l 311 325 q 316 247 311 276 q 335 203 321 217 q 376 189 349 189 q 431 210 410 189 q 460 281 451 232 q 469 414 469 331 q 458 583 469 496 q 425 768 446 669 l 661 768 q 688 640 679 699 q 701 528 697 582 q 706 414 706 475 q 621 94 706 199 q 369 -11 536 -11 m 293 842 l 293 861 l 344 1078 l 594 1078 l 594 1064 l 449 842 l 293 842 m 154 853 q 79 880 108 853 q 50 957 50 907 q 79 1038 50 1011 q 153 1065 108 1065 q 231 1037 201 1065 q 260 958 260 1008 q 231 881 260 910 q 154 853 201 853 m 708 853 q 633 881 661 853 q 604 957 604 908 q 633 1038 604 1011 q 710 1065 663 1065 q 786 1037 757 1065 q 815 958 815 1008 q 786 881 815 910 q 708 853 757 853 z "},"α":{"ha":818,"x_min":49,"x_max":788,"o":"m 288 -14 q 159 35 213 -14 q 77 173 106 85 q 49 381 49 261 q 113 674 49 568 q 294 781 176 781 q 375 766 343 781 q 428 726 407 751 q 468 672 450 701 l 478 672 l 496 768 l 701 768 l 701 267 q 715 204 701 224 q 751 185 729 185 q 771 187 761 185 q 788 192 781 189 l 788 4 q 764 -4 782 0 q 725 -11 746 -8 q 693 -14 704 -14 q 563 12 611 -14 q 488 99 515 38 l 472 99 q 425 38 453 64 q 363 -1 397 13 q 288 -14 329 -14 m 375 183 q 431 201 410 183 q 461 257 451 218 q 471 364 471 296 l 471 392 q 449 540 471 494 q 375 585 426 585 q 310 532 331 585 q 289 379 289 479 q 310 231 289 279 q 375 183 332 183 z "},"β":{"ha":778,"x_min":76,"x_max":728,"o":"m 76 -333 l 76 739 q 112 917 76 846 q 217 1026 147 989 q 389 1063 288 1063 q 538 1032 472 1063 q 640 942 603 1001 q 678 794 678 883 q 656 679 678 728 q 599 602 635 631 q 519 564 564 574 l 519 558 q 634 514 588 544 q 704 431 681 483 q 728 301 728 379 q 695 134 728 206 q 602 24 663 63 q 460 -14 542 -14 q 400 -9 425 -14 q 355 6 375 -4 q 313 26 335 15 l 313 -333 l 76 -333 m 394 185 q 463 219 439 185 q 488 324 488 254 q 475 392 488 364 q 440 435 463 419 q 388 450 418 450 l 353 450 l 353 638 l 376 638 q 414 653 400 638 q 435 695 428 668 q 442 757 442 722 q 428 843 442 814 q 378 872 414 872 q 341 860 356 872 q 319 824 326 849 q 313 763 313 800 l 313 222 q 350 194 329 204 q 394 185 371 185 z "},"γ":{"ha":732,"x_min":1,"x_max":689,"o":"m 219 -296 l 219 -6 l 1 768 l 247 768 l 347 306 q 353 276 350 292 q 358 243 356 260 q 364 210 361 226 l 368 210 q 415 386 397 300 q 442 565 433 472 q 450 768 450 658 l 689 768 q 665 499 689 625 q 590 251 640 372 q 457 3 539 131 l 457 -296 l 219 -296 z "},"δ":{"ha":746,"x_min":35,"x_max":696,"o":"m 361 -14 q 184 23 257 -14 q 73 131 111 60 q 35 301 35 203 q 57 439 35 378 q 126 545 79 500 q 244 618 172 590 q 173 679 201 646 q 131 751 144 713 q 117 832 117 789 q 149 956 117 906 q 247 1034 182 1007 q 406 1061 311 1061 q 503 1052 457 1061 q 591 1026 549 1043 q 668 979 633 1008 l 586 801 q 497 860 539 843 q 417 878 456 878 q 376 872 392 878 q 353 853 361 865 q 346 826 346 842 q 356 797 346 811 q 390 763 365 782 q 461 713 415 743 q 596 600 544 657 q 672 474 647 543 q 696 314 696 406 q 656 143 696 217 q 542 28 617 69 q 361 -14 467 -14 m 364 176 q 414 194 393 176 q 446 243 435 211 q 457 321 457 275 q 447 400 457 365 q 417 463 436 435 q 368 510 397 490 q 330 482 347 500 q 299 439 313 464 q 279 383 286 414 q 272 318 272 353 q 284 240 272 271 q 316 192 296 208 q 364 176 336 176 z "},"ε":{"ha":617,"x_min":35,"x_max":581,"o":"m 338 -14 q 113 48 190 -14 q 35 218 35 110 q 54 304 35 267 q 108 367 74 342 q 186 399 142 392 l 186 406 q 102 466 132 422 q 72 571 72 510 q 106 689 72 642 q 202 759 140 736 q 342 782 264 782 q 465 769 408 782 q 581 722 522 757 l 518 549 q 447 585 481 574 q 375 596 413 596 q 312 581 332 596 q 292 540 292 565 q 314 497 292 511 q 378 482 336 482 l 457 482 l 457 308 l 374 308 q 309 300 332 308 q 276 277 286 292 q 267 242 267 263 q 293 190 267 208 q 372 172 319 172 q 486 190 442 172 q 576 239 531 208 l 576 46 q 466 0 522 14 q 338 -14 410 -14 z "},"ζ":{"ha":600,"x_min":49,"x_max":607,"o":"m 308 -281 q 359 -190 342 -228 q 376 -121 376 -151 q 369 -76 376 -93 q 339 -44 361 -58 q 268 -14 317 -31 q 151 45 201 11 q 75 132 101 79 q 49 263 49 185 q 69 400 49 331 q 135 553 89 469 q 260 749 182 636 l 354 883 q 322 876 340 879 q 284 870 304 872 q 243 868 264 868 l 75 868 l 75 1056 l 600 1056 l 600 911 l 444 664 q 365 538 401 597 q 308 424 329 478 q 286 319 286 371 q 297 259 286 286 q 340 210 308 232 q 433 169 371 189 q 540 116 503 149 q 592 43 578 83 q 607 -46 607 3 q 596 -129 607 -85 q 567 -212 585 -174 q 528 -281 549 -251 l 308 -281 z "},"η":{"ha":786,"x_min":76,"x_max":711,"o":"m 474 -333 l 474 431 q 458 541 474 503 q 401 579 443 579 q 349 556 368 579 q 321 482 329 533 q 313 347 313 431 l 313 0 l 76 0 l 76 768 l 260 768 l 288 674 l 300 674 q 349 735 321 711 q 413 770 376 758 q 488 782 449 782 q 606 750 556 782 q 683 656 656 718 q 711 500 711 593 l 711 -333 l 474 -333 z "},"θ":{"ha":763,"x_min":49,"x_max":713,"o":"m 379 -14 q 194 44 268 -14 q 85 223 121 103 q 49 529 49 343 q 83 828 49 711 q 192 1004 118 946 q 379 1063 265 1063 q 565 1004 490 1063 q 676 828 639 946 q 713 529 713 711 q 677 224 713 344 q 567 45 642 104 q 379 -14 493 -14 m 379 167 q 434 191 413 167 q 466 273 456 215 q 478 433 476 331 l 283 433 q 295 274 285 332 q 326 191 306 215 q 379 167 347 167 m 286 621 l 479 621 q 465 779 476 722 q 434 859 454 836 q 382 882 414 882 q 330 859 350 882 q 299 779 310 836 q 286 621 288 722 z "},"ι":{"ha":478,"x_min":75,"x_max":449,"o":"m 324 -14 q 186 19 242 -12 q 103 110 131 50 q 75 257 75 171 l 75 768 l 313 768 l 313 286 q 331 209 313 232 q 379 186 349 186 q 413 190 397 186 q 449 199 429 193 l 449 3 q 387 -10 421 -6 q 324 -14 353 -14 z "},"κ":{"ha":781,"x_min":76,"x_max":786,"o":"m 776 768 l 549 439 l 786 0 l 524 0 l 386 276 l 314 218 l 314 0 l 76 0 l 76 768 l 314 768 l 314 626 q 312 523 314 572 q 304 431 310 474 l 310 431 q 340 490 324 460 q 375 546 357 519 l 518 768 l 776 768 z "},"λ":{"ha":764,"x_min":1,"x_max":761,"o":"m 653 -14 q 540 10 586 -14 q 465 85 494 35 q 411 214 436 135 l 376 329 q 369 353 372 342 q 363 378 365 365 q 360 402 361 390 q 357 425 358 414 l 353 425 q 344 373 350 399 q 333 329 339 347 l 250 0 l 1 0 l 249 718 l 231 774 q 189 842 214 824 q 126 860 164 860 q 97 858 114 860 q 64 851 81 856 l 64 1051 q 95 1058 78 1056 q 132 1061 113 1060 q 168 1063 151 1063 q 304 1039 250 1063 q 394 963 358 1015 q 456 825 429 911 l 619 282 q 646 222 633 243 q 674 195 658 201 q 711 189 690 189 q 738 190 725 189 q 761 196 750 192 l 761 1 q 731 -6 750 -3 q 691 -12 711 -10 q 653 -14 671 -14 z "},"μ":{"ha":833,"x_min":76,"x_max":803,"o":"m 76 -333 l 76 768 l 313 768 l 313 344 q 329 228 313 268 q 385 189 346 189 q 463 246 446 189 q 479 421 479 303 l 479 768 l 717 768 l 717 267 q 731 204 717 224 q 767 185 744 185 q 788 187 778 185 q 803 192 797 189 l 803 4 q 780 -4 799 0 q 741 -11 761 -8 q 708 -14 721 -14 q 582 11 626 -14 q 508 97 538 36 l 497 97 q 469 36 486 61 q 433 -1 453 11 q 388 -14 413 -14 q 340 0 357 -14 q 310 43 324 14 l 307 43 q 310 -3 308 24 q 312 -58 311 -29 q 313 -117 313 -87 l 313 -333 l 76 -333 z "},"ν":{"ha":732,"x_min":1,"x_max":689,"o":"m 219 0 l 1 768 l 247 768 l 346 306 q 352 276 349 292 q 358 243 356 260 q 364 210 361 226 l 368 210 q 415 383 397 297 q 442 564 433 469 q 450 768 450 658 l 689 768 q 664 492 689 619 q 587 244 639 364 q 451 0 535 125 l 219 0 z "},"ξ":{"ha":647,"x_min":49,"x_max":614,"o":"m 313 -281 q 363 -190 346 -228 q 381 -121 381 -151 q 373 -76 381 -93 q 343 -45 365 -58 q 275 -15 321 -32 q 163 41 215 7 q 80 131 111 75 q 49 276 49 188 q 69 398 49 343 q 131 492 89 453 q 232 549 172 532 l 232 554 q 148 592 181 568 q 100 650 115 617 q 85 724 85 683 q 101 793 85 763 q 146 844 117 824 q 215 875 175 865 q 178 871 194 872 q 144 869 161 869 q 108 868 128 868 l 75 868 l 75 1056 l 614 1056 l 614 868 l 513 868 q 431 862 467 868 q 370 842 396 856 q 333 806 344 829 q 321 750 321 783 q 335 692 321 717 q 382 652 350 667 q 464 638 414 638 l 572 638 l 572 450 l 456 450 q 358 435 396 450 q 303 392 321 421 q 286 321 286 364 q 299 257 286 283 q 344 210 311 231 q 439 169 378 189 q 544 117 507 149 q 597 44 582 85 q 611 -44 611 4 q 600 -128 611 -85 q 571 -211 589 -172 q 532 -281 553 -250 l 313 -281 z "},"ο":{"ha":767,"x_min":49,"x_max":717,"o":"m 717 386 q 698 233 717 306 q 639 106 679 161 q 535 18 599 50 q 382 -14 471 -14 q 238 17 300 -14 q 133 103 175 49 q 69 231 90 158 q 49 386 49 304 q 85 592 49 503 q 195 731 121 681 q 385 782 269 782 q 558 735 483 782 q 675 601 633 689 q 717 386 717 513 m 289 385 q 299 270 289 317 q 330 200 308 224 q 383 176 351 176 q 438 200 418 176 q 467 270 458 224 q 476 386 476 317 q 467 501 476 456 q 438 569 458 546 q 383 592 418 592 q 312 541 335 592 q 289 385 289 490 z "},"π":{"ha":931,"x_min":18,"x_max":900,"o":"m 728 -14 q 576 49 625 -14 q 528 239 528 113 l 528 579 l 386 579 l 386 0 l 150 0 l 150 579 l 18 579 l 18 768 l 900 768 l 900 579 l 765 579 l 765 251 q 778 202 765 218 q 811 186 792 186 q 856 193 832 186 q 900 210 881 200 l 900 35 q 822 -1 868 11 q 728 -14 775 -14 z "},"ρ":{"ha":757,"x_min":56,"x_max":708,"o":"m 56 -333 l 56 379 q 89 588 56 497 q 194 731 122 679 q 382 782 267 782 q 552 740 479 782 q 667 608 625 697 q 708 378 708 519 q 678 179 708 268 q 588 38 649 90 q 433 -14 526 -14 q 354 1 389 -14 q 294 36 319 15 l 282 36 q 290 -60 288 -11 q 292 -149 292 -110 l 292 -333 l 56 -333 m 374 176 q 425 194 404 176 q 457 256 446 213 q 468 376 468 300 q 444 547 468 501 q 376 592 419 592 q 313 558 335 592 q 292 436 292 524 l 292 217 q 329 188 310 200 q 374 176 349 176 z "},"σ":{"ha":814,"x_min":49,"x_max":769,"o":"m 381 -14 q 201 36 276 -14 q 88 175 126 86 q 49 383 49 264 q 92 596 49 510 q 215 725 135 682 q 406 768 294 768 l 769 768 l 769 579 l 643 579 q 685 515 669 550 q 709 440 701 481 q 717 351 717 400 q 694 206 717 272 q 628 90 671 139 q 522 13 585 40 q 381 -14 460 -14 m 382 176 q 435 198 414 176 q 467 265 457 219 q 478 378 478 310 q 472 469 478 431 q 456 535 467 507 q 429 579 446 564 l 411 579 q 343 560 371 579 q 302 497 315 542 q 289 376 289 453 q 299 264 289 308 q 331 198 310 219 q 382 176 351 176 z "},"τ":{"ha":643,"x_min":18,"x_max":599,"o":"m 392 -14 q 269 13 319 -14 q 195 96 219 39 q 171 247 171 153 l 171 579 l 18 579 l 18 768 l 599 768 l 599 579 l 408 579 l 408 260 q 415 218 408 235 q 435 193 422 201 q 467 185 449 185 q 517 192 492 185 q 571 210 543 199 l 571 28 q 491 -3 535 8 q 392 -14 447 -14 z "},"υ":{"ha":776,"x_min":75,"x_max":706,"o":"m 369 -11 q 228 11 285 -11 q 138 76 171 33 q 90 179 104 118 q 75 318 75 240 l 75 768 l 311 768 l 311 325 q 316 247 311 276 q 335 203 321 217 q 376 189 349 189 q 431 210 410 189 q 460 281 451 232 q 469 414 469 331 q 458 583 469 496 q 425 768 446 669 l 661 768 q 688 640 679 699 q 701 528 697 582 q 706 414 706 475 q 621 94 706 199 q 369 -11 536 -11 z "},"φ":{"ha":1042,"x_min":49,"x_max":992,"o":"m 414 -333 l 414 0 q 215 63 297 11 q 91 197 133 114 q 49 383 49 279 q 88 580 49 497 q 209 711 128 663 q 414 768 290 760 l 414 1056 l 629 1056 l 629 768 q 828 708 747 758 q 950 574 908 657 q 992 383 992 490 q 950 191 992 274 q 828 60 908 108 q 629 0 747 11 l 629 -333 l 414 -333 m 414 172 l 414 596 q 345 565 374 594 q 301 489 317 536 q 286 383 286 442 q 300 277 286 325 q 342 201 314 229 q 414 172 371 174 m 629 172 q 700 202 672 174 q 741 278 728 231 q 754 383 754 325 q 724 531 754 469 q 629 596 693 593 l 629 172 z "},"χ":{"ha":829,"x_min":7,"x_max":836,"o":"m 685 -333 q 580 -314 621 -333 q 511 -253 539 -294 q 453 -149 483 -212 l 156 497 q 115 569 132 550 q 68 588 99 588 q 38 585 54 588 q 7 576 21 582 l 7 765 q 58 777 29 772 q 121 782 86 782 q 224 765 182 782 q 298 708 265 749 q 364 596 331 668 l 661 -54 q 688 -106 676 -87 q 715 -133 700 -125 q 749 -140 729 -140 q 778 -138 764 -140 q 811 -131 793 -136 l 811 -317 q 775 -326 793 -322 q 735 -331 757 -329 q 685 -333 714 -333 m 21 -333 l 331 282 l 428 50 l 254 -333 l 21 -333 m 526 143 l 429 375 l 603 768 l 836 768 l 526 143 z "},"ψ":{"ha":1072,"x_min":75,"x_max":1001,"o":"m 418 -333 l 418 -11 q 228 26 306 -7 q 113 135 151 60 q 75 335 75 210 l 75 768 l 304 768 l 304 339 q 313 253 304 285 q 347 208 322 222 q 418 189 372 193 l 418 1056 l 647 1056 l 647 189 q 722 216 696 196 q 757 278 747 236 q 767 393 767 321 q 754 576 767 482 q 715 768 742 669 l 946 768 q 990 567 978 654 q 1001 389 1001 479 q 961 173 1001 260 q 842 41 921 86 q 647 -11 763 -4 l 647 -333 l 418 -333 z "},"ω":{"ha":1118,"x_min":63,"x_max":1054,"o":"m 342 -14 q 188 33 250 -14 q 94 167 125 79 q 63 374 63 254 q 91 608 63 513 q 165 768 119 704 l 400 768 q 340 654 363 715 q 307 526 317 593 q 297 385 297 458 q 313 236 297 281 q 368 192 329 192 q 410 206 393 192 q 435 254 426 219 q 444 349 444 289 l 444 543 l 674 543 l 674 349 q 680 252 674 286 q 701 205 686 218 q 743 192 717 192 q 789 214 772 192 q 813 278 806 236 q 819 381 819 321 q 808 524 819 454 q 774 655 797 593 q 717 768 751 717 l 949 768 q 1013 642 990 703 q 1045 516 1036 581 q 1054 374 1054 451 q 1023 165 1054 251 q 929 32 992 78 q 774 -14 867 -14 q 638 25 693 -14 q 561 158 583 64 l 556 158 q 512 59 540 97 q 441 3 483 21 q 342 -14 399 -14 z "},"ϊ":{"ha":478,"x_min":-50,"x_max":449,"o":"m 324 -14 q 186 19 242 -12 q 103 110 131 50 q 75 257 75 171 l 75 768 l 313 768 l 313 286 q 331 209 313 232 q 379 186 349 186 q 413 190 397 186 q 449 199 429 193 l 449 3 q 387 -10 421 -6 q 324 -14 353 -14 m -50 958 q -21 1038 -50 1011 q 54 1065 8 1065 q 131 1037 101 1065 q 160 958 160 1008 q 131 881 160 910 q 54 853 101 853 q -21 880 8 853 q -50 958 -50 907 m 236 958 q 265 1038 236 1011 q 340 1065 294 1065 q 418 1037 389 1065 q 447 958 447 1008 q 418 881 447 910 q 340 853 389 853 q 265 881 293 853 q 236 958 236 908 z "},"ϋ":{"ha":776,"x_min":75,"x_max":706,"o":"m 369 -11 q 228 11 285 -11 q 138 76 171 33 q 90 179 104 118 q 75 318 75 240 l 75 768 l 311 768 l 311 325 q 316 247 311 276 q 335 203 321 217 q 376 189 349 189 q 431 210 410 189 q 460 281 451 232 q 469 414 469 331 q 458 583 469 496 q 425 768 446 669 l 661 768 q 688 640 679 699 q 701 528 697 582 q 706 414 706 475 q 621 94 706 199 q 369 -11 536 -11 m 122 958 q 151 1038 122 1011 q 226 1065 181 1065 q 303 1037 274 1065 q 332 958 332 1008 q 303 881 332 910 q 226 853 274 853 q 151 880 181 853 q 122 958 122 907 m 408 958 q 438 1038 408 1011 q 513 1065 467 1065 q 590 1037 561 1065 q 619 958 619 1008 q 590 881 619 910 q 513 853 561 853 q 437 881 465 853 q 408 958 408 908 z "},"ό":{"ha":767,"x_min":49,"x_max":717,"o":"m 717 386 q 698 233 717 306 q 639 106 679 161 q 535 18 599 50 q 382 -14 471 -14 q 238 17 300 -14 q 133 103 175 49 q 69 231 90 158 q 49 386 49 304 q 85 592 49 503 q 195 731 121 681 q 385 782 269 782 q 558 735 483 782 q 675 601 633 689 q 717 386 717 513 m 289 385 q 299 270 289 317 q 330 200 308 224 q 383 176 351 176 q 438 200 418 176 q 467 270 458 224 q 476 386 476 317 q 467 501 476 456 q 438 569 458 546 q 383 592 418 592 q 312 541 335 592 q 289 385 289 490 m 313 842 l 313 861 l 378 1078 l 628 1078 l 628 1064 l 467 842 l 313 842 z "},"ύ":{"ha":776,"x_min":75,"x_max":706,"o":"m 369 -11 q 228 11 285 -11 q 138 76 171 33 q 90 179 104 118 q 75 318 75 240 l 75 768 l 311 768 l 311 325 q 316 247 311 276 q 335 203 321 217 q 376 189 349 189 q 431 210 410 189 q 460 281 451 232 q 469 414 469 331 q 458 583 469 496 q 425 768 446 669 l 661 768 q 688 640 679 699 q 701 528 697 582 q 706 414 706 475 q 621 94 706 199 q 369 -11 536 -11 m 300 842 l 300 861 l 365 1078 l 615 1078 l 615 1064 l 454 842 l 300 842 z "},"ώ":{"ha":1118,"x_min":63,"x_max":1054,"o":"m 342 -14 q 188 33 250 -14 q 94 167 125 79 q 63 374 63 254 q 91 608 63 513 q 165 768 119 704 l 400 768 q 340 654 363 715 q 307 526 317 593 q 297 385 297 458 q 313 236 297 281 q 368 192 329 192 q 410 206 393 192 q 435 254 426 219 q 444 349 444 289 l 444 543 l 674 543 l 674 349 q 680 252 674 286 q 701 205 686 218 q 743 192 717 192 q 789 214 772 192 q 813 278 806 236 q 819 381 819 321 q 808 524 819 454 q 774 655 797 593 q 717 768 751 717 l 949 768 q 1013 642 990 703 q 1045 516 1036 581 q 1054 374 1054 451 q 1023 165 1054 251 q 929 32 992 78 q 774 -14 867 -14 q 638 25 693 -14 q 561 158 583 64 l 556 158 q 512 59 540 97 q 441 3 483 21 q 342 -14 399 -14 m 488 842 l 488 861 l 553 1078 l 803 1078 l 803 1064 l 642 842 l 488 842 z "},"Ё":{"ha":665,"x_min":89,"x_max":604,"o":"m 89 0 l 89 992 l 604 992 l 604 788 l 335 788 l 335 615 l 585 615 l 585 411 l 335 411 l 335 207 l 604 207 l 604 0 l 89 0 m 207 1075 q 133 1103 161 1075 q 106 1183 106 1131 q 133 1267 106 1239 q 207 1296 161 1296 q 281 1267 253 1296 q 310 1183 310 1239 q 281 1103 310 1131 q 207 1075 253 1075 m 483 1075 q 408 1103 435 1075 q 381 1183 381 1132 q 408 1267 381 1239 q 483 1296 436 1296 q 558 1267 529 1296 q 586 1183 586 1239 q 558 1103 586 1131 q 483 1075 529 1075 z "},"Ђ":{"ha":943,"x_min":26,"x_max":901,"o":"m 638 -15 q 581 -11 608 -15 q 532 0 553 -7 l 532 194 q 555 190 544 192 q 576 188 565 188 q 635 215 615 188 q 656 292 656 242 l 656 292 q 629 374 656 347 q 553 401 603 401 q 493 392 524 401 q 429 365 463 383 l 472 433 l 472 0 l 226 0 l 226 783 l 26 783 l 26 992 l 706 992 l 706 783 l 472 783 l 472 500 l 406 561 q 501 595 451 585 q 601 606 550 606 q 824 524 746 606 q 901 292 901 442 l 901 292 q 869 126 901 194 q 779 22 838 58 q 638 -15 721 -15 z "},"Ѓ":{"ha":657,"x_min":89,"x_max":638,"o":"m 89 0 l 89 992 l 604 992 l 604 783 l 336 783 l 336 0 l 89 0 m 253 1065 l 253 1085 l 374 1288 l 638 1288 l 638 1274 l 422 1065 l 253 1065 z "},"Є":{"ha":769,"x_min":54,"x_max":733,"o":"m 463 -14 q 241 47 332 -14 q 102 219 150 107 q 54 488 54 331 q 108 764 54 647 q 258 943 161 881 q 482 1006 354 1006 q 613 990 550 1006 q 733 943 676 975 l 658 753 q 576 788 613 778 q 503 797 540 797 q 392 763 438 797 q 326 664 347 729 q 304 507 304 599 l 201 607 l 614 607 l 614 404 l 197 404 l 306 511 q 321 334 300 404 q 388 229 342 264 q 507 194 433 194 q 606 207 563 194 q 696 242 650 219 l 696 40 q 588 0 651 14 q 463 -14 525 -14 z "},"Ѕ":{"ha":682,"x_min":46,"x_max":643,"o":"m 310 -14 q 215 -8 258 -14 q 131 11 172 -3 q 46 49 90 25 l 46 288 q 177 226 111 249 q 299 204 243 204 q 352 215 331 204 q 384 242 374 225 q 394 282 394 260 q 384 322 394 304 q 344 360 374 339 q 257 414 314 382 q 172 469 210 442 q 107 531 133 497 q 66 610 81 565 q 51 715 51 654 q 90 870 51 806 q 201 970 128 935 q 375 1006 274 1006 q 514 987 446 1006 q 643 935 582 968 l 575 728 q 473 775 521 758 q 383 792 425 792 q 336 783 356 792 q 308 760 317 775 q 299 724 299 744 q 310 685 299 703 q 354 644 322 667 q 447 588 386 622 q 555 513 511 553 q 621 422 599 472 q 643 301 643 371 q 604 141 643 213 q 491 28 565 69 q 310 -14 417 -14 z "},"І":{"ha":435,"x_min":94,"x_max":340,"o":"m 94 0 l 94 992 l 340 992 l 340 0 l 94 0 z "},"Ї":{"ha":460,"x_min":17,"x_max":444,"o":"m 107 0 l 107 992 l 353 992 l 353 0 l 107 0 m 113 1076 q 42 1105 67 1076 q 17 1185 17 1133 q 42 1267 17 1238 q 114 1297 68 1297 q 186 1268 161 1297 q 211 1185 211 1239 q 185 1105 211 1133 q 113 1076 160 1076 m 346 1076 q 274 1105 300 1076 q 249 1185 249 1133 q 274 1268 249 1239 q 346 1297 300 1297 q 418 1268 392 1297 q 444 1185 444 1239 q 419 1105 444 1133 q 346 1076 393 1076 z "},"Ј":{"ha":429,"x_min":-92,"x_max":339,"o":"m 31 -311 q -35 -308 -6 -311 q -92 -297 -65 -304 l -92 -94 q -53 -104 -74 -100 q -10 -108 -33 -108 q 53 -92 31 -108 q 85 -36 75 -75 q 94 68 94 3 l 94 992 l 339 992 l 339 82 q 301 -153 339 -67 q 195 -275 264 -239 q 31 -311 126 -311 z "},"Љ":{"ha":1239,"x_min":-3,"x_max":1200,"o":"m 117 -15 q 49 -10 78 -15 q -3 1 19 -6 l -3 204 q 24 198 13 200 q 50 196 36 196 q 99 208 79 196 q 130 247 118 219 q 144 322 142 275 q 154 458 150 388 q 164 609 158 529 q 174 783 169 689 q 185 992 179 878 l 807 992 l 807 664 l 850 664 q 1113 583 1025 664 q 1200 340 1200 501 q 1110 88 1200 176 q 849 0 1019 0 l 565 0 l 565 781 l 401 781 q 394 638 397 704 q 387 512 390 572 q 378 394 383 451 q 368 278 374 338 q 331 117 360 182 q 249 18 301 51 q 117 -15 196 -15 m 807 206 l 843 206 q 926 239 899 206 q 954 336 954 272 q 928 429 954 399 q 846 460 901 460 l 807 460 l 807 206 z "},"Њ":{"ha":1229,"x_min":85,"x_max":1190,"o":"m 85 0 l 85 992 l 332 992 l 332 633 l 554 633 l 554 992 l 797 992 l 797 635 l 842 635 q 1103 556 1017 635 q 1190 324 1190 476 q 1100 86 1190 172 q 840 0 1010 0 l 554 0 l 554 429 l 332 429 l 332 0 l 85 0 m 797 204 l 835 204 q 918 235 890 204 q 946 318 946 267 q 919 402 946 372 q 836 432 893 432 l 797 432 l 797 204 z "},"Ћ":{"ha":954,"x_min":26,"x_max":894,"o":"m 226 0 l 226 783 l 26 783 l 26 992 l 706 992 l 706 783 l 472 783 l 472 493 l 406 554 q 504 588 453 576 q 610 599 556 599 q 822 526 750 599 q 894 314 894 454 l 894 0 l 650 0 l 650 281 q 626 362 650 336 q 551 388 603 388 q 491 379 521 388 q 429 354 461 371 l 472 428 l 472 0 l 226 0 z "},"Ќ":{"ha":850,"x_min":89,"x_max":861,"o":"m 585 0 l 346 501 l 343 528 l 581 992 l 846 992 l 576 503 l 581 544 l 861 0 l 585 0 m 89 0 l 89 992 l 336 992 l 336 0 l 89 0 m 258 413 l 258 618 l 447 618 l 447 413 l 258 413 m 321 1065 l 321 1085 l 442 1288 l 706 1288 l 706 1274 l 490 1065 l 321 1065 z "},"Ў":{"ha":807,"x_min":3,"x_max":807,"o":"m 186 -14 q 119 -10 153 -14 q 56 4 86 -6 l 56 213 q 101 203 79 207 q 144 200 122 200 q 217 216 188 200 q 269 272 247 232 q 310 379 292 311 l 315 176 l 3 992 l 264 992 l 354 721 q 375 656 365 690 q 394 588 385 622 q 408 521 403 554 l 417 521 q 432 590 424 557 q 450 656 440 624 q 467 717 460 688 l 547 992 l 807 992 l 561 315 q 472 127 521 200 q 353 20 422 54 q 186 -14 285 -14 m 407 1057 q 225 1118 289 1057 q 154 1293 161 1179 l 332 1293 q 353 1217 335 1244 q 407 1189 371 1189 q 468 1217 449 1189 q 489 1293 488 1244 l 667 1293 q 593 1119 658 1182 q 407 1057 528 1057 z "},"Џ":{"ha":899,"x_min":89,"x_max":810,"o":"m 329 -215 l 329 0 l 89 0 l 89 992 l 336 992 l 336 208 l 563 208 l 563 992 l 810 992 l 810 0 l 569 0 l 569 -215 l 329 -215 z "},"А":{"ha":861,"x_min":0,"x_max":861,"o":"m 596 0 l 554 192 l 308 192 l 267 0 l 0 0 l 267 993 l 592 993 l 861 0 l 596 0 m 472 603 q 458 676 465 638 q 443 754 450 715 q 431 822 436 793 q 422 756 428 793 q 407 681 415 719 q 392 606 399 642 l 350 399 l 513 399 l 472 603 z "},"Б":{"ha":778,"x_min":89,"x_max":733,"o":"m 89 0 l 89 992 l 667 992 l 667 785 l 333 785 l 333 638 l 383 638 q 646 559 558 638 q 733 328 733 481 q 643 87 733 174 q 382 0 553 0 l 89 0 m 333 203 l 376 203 q 459 234 432 203 q 486 322 486 265 q 459 408 486 378 q 376 438 432 438 l 333 438 l 333 203 z "}}}
